<svg width="49" height="40" viewBox="0 0 49 40" fill="none" xmlns="http://www.w3.org/2000/svg">
<path d="M12 19C14.7863 19.2899 17.2706 20.0676 19 22C20.8255 23.8357 21 26.1981 21 29C21 32.0918 20.0176 34.8744 18 37C16.0784 39.029 13.8824 40 11 40C7.73333 40 5.11373 38.4155 3 36C0.982353 33.5845 0 30.6377 0 26C0 16.9179 3.65882 8.8599 10 2C11.1529 0.74396 12.4627 0 14 0C15.3451 0 15.9431 0.9372 17 2C18.1529 2.96618 19 3.64734 19 5C19 6.15942 17.9608 6.9372 17 8C14.1176 11.0918 12.8647 15.1353 12 19ZM39 19C41.7863 19.2899 44.2706 20.0676 46 22C47.8255 23.8357 49 26.1981 49 29C49 32.0918 48.0176 34.8744 46 37C44.0784 39.029 41.8824 40 39 40C35.7333 40 33.1137 38.4155 31 36C28.9824 33.5845 28 30.6377 28 26C28 16.9179 30.6588 8.8599 37 2C38.1529 0.74396 39.4627 0 41 0C42.3451 0 43.9431 0.9372 45 2C46.1529 2.96618 47 3.64734 47 5C47 6.15942 45.9608 6.9372 45 8C42.1176 11.0918 39.8647 15.1353 39 19Z" fill="#FF5656"/>
</svg>
