<svg width="124" height="101" viewBox="0 0 124 101" fill="none" xmlns="http://www.w3.org/2000/svg">
<path opacity="0.06" d="M30 48C37.051 48.7319 42.6235 51.1208 47 56C51.6196 60.6353 54 66.9251 54 74C54 81.8068 51.1059 87.6329 46 93C41.1373 98.1232 35.2941 101 28 101C19.7333 101 13.349 98.099 8 92C2.89412 85.901 0 76.7102 0 65C0 42.0676 7.95294 22.3213 24 5C26.9176 1.8285 30.1098 0 34 0C37.4039 0 40.3255 1.31643 43 4C45.9176 6.43961 48 9.58454 48 13C48 15.9275 46.4314 18.3164 44 21C36.7059 28.8068 32.1882 38.2415 30 48ZM100 48C107.051 48.7319 112.624 51.1208 117 56C121.62 60.6353 124 66.9251 124 74C124 81.8068 121.106 87.6329 116 93C111.137 98.1232 105.294 101 98 101C89.7333 101 83.349 98.099 78 92C72.8941 85.901 70 76.7102 70 65C70 42.0676 77.9529 22.3213 94 5C96.9176 1.8285 100.11 0 104 0C107.404 0 110.325 1.31643 113 4C115.918 6.43961 118 9.58454 118 13C118 15.9275 116.431 18.3164 114 21C106.706 28.8068 102.188 38.2415 100 48Z" fill="#5C56D7"/>
</svg>
