<svg width="10" height="17" viewBox="0 0 10 17" fill="none" xmlns="http://www.w3.org/2000/svg">
<path d="M8.99988 1.00001H6.99988C4.84413 1.00001 2.99988 2.75742 2.99988 5.00001V6.00001H0.999877C0.833162 6.00001 0.999877 6.83101 0.999877 7.00001V9.00001C0.999877 9.16902 0.833316 9.00001 0.999877 9.00001H2.99988V16C2.99988 16.169 3.83316 16 3.99988 16H5.99988C6.16659 16 5.99988 16.1689 5.99988 16V9.00001H8.99988C9.16659 9.00001 8.99988 9.16902 8.99988 9.00001V7.00001C8.99988 6.91887 9.05637 6.05744 8.99988 6.00001C8.94338 5.94259 9.07992 6.00001 8.99988 6.00001H5.99988V5.00001C5.99988 4.30653 6.10873 4.00001 6.99988 4.00001H8.99988C9.16644 4.00001 8.99988 4.16886 8.99988 4.00001V1.00001C9.16628 1.00033 8.99988 0.831324 8.99988 1.00001Z" fill="#5C56D7"/>
</svg>
