<svg width="16" height="15" viewBox="0 0 16 15" fill="none" xmlns="http://www.w3.org/2000/svg">
<path d="M2 0H14C15.1294 0 16 0.858771 16 2V13C16 14.1412 15.1294 15 14 15H2C0.870238 15 0 14.1412 0 13V2C0 0.858771 0.870238 0 2 0ZM12 2C11.6038 2 11 1.62837 11 2V4C11 4.37148 11.6038 5 12 5H13C13.3962 5 14 4.37148 14 4V2C14 1.62837 13.3962 2 13 2H12ZM14 6H13C13.1332 6.40782 13 7.55306 13 8C13 10.495 10.7466 12 8 12C5.25355 12 3 10.495 3 8C3 7.55275 2.8666 6.40767 3 6H2V13C2 13.3279 1.65008 13 2 13H14C14.3499 13 14 13.328 14 13V6ZM8 5C6.22543 5 5 5.3878 5 7C5 8.6122 6.22543 10 8 10C9.77473 10 11 8.6122 11 7C11 5.3878 9.77489 5 8 5Z" fill="#5C56D7"/>
</svg>
