<svg width="10" height="14" viewBox="0 0 10 14" fill="none" xmlns="http://www.w3.org/2000/svg">
<path d="M9.72221 5H8.88888V3.88888C8.88888 1.74453 7.14438 0 5 0C2.85562 0 1.11112 1.74453 1.11112 3.88888V5C1.11112 5.15354 1.51313 5 1.66667 5H2.22222C2.37576 5 2.77778 5.15354 2.77778 5L2.77779 3.88888C2.77779 2.66357 3.77469 1.66667 5 1.66667C6.22531 1.66667 7.22221 2.66357 7.22221 3.88888V5H0.277786C0.124245 5 0 5.12424 0 5.27779V12.2222C0 12.835 0.498307 13.3333 1.11112 13.3333H8.88891C9.50169 13.3333 10 12.835 10 12.2222V5.27779C10 5.12424 9.87576 5 9.72221 5ZM5.83172 10.8027C5.84039 10.8811 5.81518 10.9597 5.76255 11.0186C5.70992 11.0775 5.63451 11.1111 5.55557 11.1111H4.44445C4.36552 11.1111 4.2901 11.0775 4.23747 11.0186C4.18484 10.9598 4.15961 10.8811 4.16831 10.8027L4.34354 9.2269C4.05898 9.01992 3.88891 8.6925 3.88891 8.33333C3.88891 7.72055 4.38721 7.22221 5.00003 7.22221C5.61284 7.22221 6.11115 7.72052 6.11115 8.33333C6.11115 8.6925 5.94107 9.01992 5.65651 9.2269L5.83172 10.8027Z" fill="white"/>
</svg>
