<svg width="15" height="12" viewBox="0 0 15 12" fill="none" xmlns="http://www.w3.org/2000/svg">
<path d="M6.00008 11.1C5.9813 11.05 5.97483 11.0075 5.9812 10.9731C5.98754 10.939 5.9657 10.9107 5.91563 10.8889C5.86555 10.8671 5.84056 10.8498 5.84056 10.8374C5.84056 10.8249 5.80467 10.8155 5.73273 10.8093C5.66082 10.8031 5.62493 10.7999 5.62493 10.7999H5.5031H5.39999H2.69996C2.28747 10.7999 1.93431 10.6531 1.64052 10.3592C1.3468 10.0654 1.19995 9.71237 1.19995 9.29994V2.69983C1.19995 2.28734 1.34676 1.93431 1.64052 1.64055C1.93431 1.34676 2.28747 1.19982 2.69996 1.19982H5.69996C5.78123 1.19982 5.84513 1.17966 5.89212 1.13894C5.93891 1.09832 5.9701 1.03734 5.9858 0.956106C6.00143 0.874868 6.01085 0.801511 6.01401 0.73587C6.01709 0.670295 6.01558 0.587415 6.00928 0.487428C6.00307 0.387473 5.99995 0.324985 5.99995 0.299865C5.99995 0.218627 5.97024 0.148455 5.9109 0.0889546C5.8515 0.0297172 5.78123 0 5.69999 0H2.69996C1.95628 0 1.3203 0.264072 0.792119 0.792185C0.264073 1.3203 0 1.95618 0 2.69993V9.29991C0 10.0436 0.264073 10.6796 0.792119 11.2076C1.3203 11.7359 1.95628 12 2.69996 12H5.70009C5.78136 12 5.84529 11.9796 5.89225 11.9391C5.93904 11.8984 5.97024 11.8375 5.98593 11.7562C6.00156 11.675 6.01099 11.6013 6.01414 11.536C6.01723 11.4703 6.01571 11.3876 6.00941 11.2876C6.00314 11.1875 6.00008 11.1251 6.00008 11.1Z" fill="white"/>
<path d="M14.5216 5.57807L9.42162 0.477911C9.30295 0.359305 9.16228 0.299805 8.99977 0.299805C8.83726 0.299805 8.69659 0.359305 8.57778 0.477911C8.45901 0.596681 8.39968 0.737452 8.39968 0.899862V3.59989H4.19967C4.03706 3.59989 3.89649 3.65939 3.77772 3.778C3.65895 3.89677 3.59961 4.03744 3.59961 4.19995V7.80003C3.59961 7.96251 3.65895 8.10318 3.77772 8.22188C3.89662 8.34043 4.03716 8.40009 4.19967 8.40009H8.39971V11.1001C8.39971 11.2625 8.45905 11.4033 8.57782 11.5219C8.69659 11.6407 8.83726 11.7002 8.9998 11.7002C9.16228 11.7002 9.30295 11.6407 9.42165 11.5219L14.5216 6.42201C14.6404 6.30314 14.6998 6.16266 14.6998 6.00012C14.6998 5.83765 14.6404 5.69684 14.5216 5.57807Z" fill="white"/>
</svg>
