<svg width="135" height="40" viewBox="0 0 135 40" fill="none" xmlns="http://www.w3.org/2000/svg">
<path d="M36.9013 7.1577C37.7476 7.10369 38.1707 7.47272 38.1707 8.26478C38.1707 8.66081 38.0738 8.95783 37.8798 9.15585C37.6859 9.35387 37.3509 9.47087 36.8748 9.50688L36.0814 9.58788C34.9707 9.69589 34.142 10.0919 33.5954 10.776C33.0665 11.46 32.802 12.2881 32.802 13.2602V19.4436C32.802 19.8757 32.6786 20.1997 32.4317 20.4157C32.1849 20.6317 31.8675 20.7397 31.4797 20.7397C31.0918 20.7397 30.7656 20.6317 30.5011 20.4157C30.2543 20.1997 30.1309 19.8757 30.1309 19.4436V8.45379C30.1309 8.03976 30.2543 7.72474 30.5011 7.50872C30.7656 7.2747 31.0918 7.1577 31.4797 7.1577C31.8323 7.1577 32.1232 7.2747 32.3524 7.50872C32.5992 7.72474 32.7227 8.03076 32.7227 8.42679V9.72289C33.0753 8.93083 33.5866 8.32779 34.2566 7.91375C34.9266 7.49972 35.6847 7.2567 36.531 7.1847L36.9013 7.1577Z" fill="#5C56D7"/>
<path d="M45.9536 7.10369C47.6638 7.10369 48.9333 7.54473 49.7619 8.42679C50.6082 9.30886 51.0314 10.65 51.0314 12.4501V19.4436C51.0314 19.8577 50.9168 20.1817 50.6876 20.4157C50.4584 20.6317 50.141 20.7397 49.7355 20.7397C49.3476 20.7397 49.039 20.6227 48.8098 20.3887C48.5806 20.1547 48.466 19.8397 48.466 19.4436V18.4446C48.131 19.2006 47.6285 19.7857 46.9586 20.1997C46.3062 20.5957 45.5392 20.7938 44.6577 20.7938C43.8114 20.7938 43.0356 20.6227 42.3303 20.2807C41.6427 19.9207 41.0961 19.4346 40.6906 18.8226C40.2851 18.2106 40.0823 17.5175 40.0823 16.7434C40.0647 15.7714 40.3027 15.0153 40.7964 14.4753C41.2901 13.9172 42.0923 13.5212 43.2031 13.2872C44.3139 13.0352 45.8566 12.9091 47.8313 12.9091H48.4396V12.1261C48.4396 11.118 48.2368 10.3889 47.8313 9.93891C47.4258 9.48888 46.7734 9.26386 45.8742 9.26386C45.2571 9.26386 44.6753 9.34486 44.1287 9.50688C43.5822 9.66889 42.9827 9.90291 42.3303 10.2089C41.8543 10.479 41.5193 10.614 41.3254 10.614C41.0609 10.614 40.8405 10.515 40.6642 10.3169C40.5055 10.1189 40.4262 9.8669 40.4262 9.56088C40.4262 9.29086 40.4967 9.05684 40.6377 8.85883C40.7964 8.64281 41.0433 8.43579 41.3782 8.23778C41.9953 7.89575 42.7182 7.62573 43.5469 7.42772C44.3756 7.2117 45.1778 7.10369 45.9536 7.10369ZM45.1337 18.7686C46.1034 18.7686 46.8968 18.4356 47.5139 17.7695C48.131 17.0855 48.4396 16.2124 48.4396 15.1503V14.4483H47.9635C46.5883 14.4483 45.5304 14.5113 44.7899 14.6373C44.0494 14.7633 43.5205 14.9793 43.2031 15.2853C42.8857 15.5733 42.727 15.9964 42.727 16.5544C42.727 17.2025 42.9562 17.7335 43.4147 18.1475C43.8731 18.5616 44.4461 18.7686 45.1337 18.7686Z" fill="#5C56D7"/>
<path d="M61.006 20.7938C59.7542 20.7938 58.6522 20.5147 57.7001 19.9567C56.7657 19.3986 56.034 18.6066 55.5051 17.5805C54.9937 16.5544 54.7381 15.3663 54.7381 14.0162C54.7381 12.6481 55.0026 11.442 55.5315 10.3979C56.0781 9.35387 56.8362 8.5438 57.8059 7.96776C58.7757 7.39171 59.8864 7.10369 61.1382 7.10369C61.8082 7.10369 62.4782 7.2027 63.1482 7.40071C63.8358 7.59873 64.4441 7.86875 64.9731 8.21078C65.5373 8.60681 65.8194 9.06584 65.8194 9.58788C65.8194 9.89391 65.74 10.1549 65.5813 10.3709C65.4227 10.569 65.2199 10.668 64.9731 10.668C64.8144 10.668 64.6557 10.632 64.497 10.56C64.3383 10.47 64.1356 10.3439 63.8887 10.1819C63.4479 9.89391 63.0336 9.67789 62.6457 9.53388C62.2755 9.37187 61.8259 9.29086 61.2969 9.29086C60.098 9.29086 59.1635 9.70489 58.4936 10.533C57.8412 11.361 57.515 12.5131 57.515 13.9892C57.515 15.4653 57.8412 16.6084 58.4936 17.4185C59.1459 18.2106 60.0716 18.6066 61.2705 18.6066C61.7994 18.6066 62.2666 18.5256 62.6722 18.3636C63.0777 18.2016 63.492 17.9855 63.9152 17.7155C64.1091 17.5895 64.3031 17.4815 64.497 17.3915C64.691 17.3015 64.8673 17.2565 65.0259 17.2565C65.2728 17.2565 65.4755 17.3645 65.6342 17.5805C65.7929 17.7785 65.8722 18.0305 65.8722 18.3366C65.8722 18.5886 65.8017 18.8226 65.6607 19.0386C65.5373 19.2366 65.3169 19.4436 64.9995 19.6597C64.4706 20.0197 63.8535 20.2987 63.1482 20.4967C62.443 20.6947 61.7289 20.7938 61.006 20.7938Z" fill="#5C56D7"/>
<path d="M75.4289 18.6606C75.8168 18.6966 76.0901 18.8046 76.2487 18.9846C76.4251 19.1466 76.5132 19.3806 76.5132 19.6867C76.5132 20.0467 76.3722 20.3257 76.0901 20.5237C75.8256 20.7037 75.4289 20.7757 74.9 20.7397L74.1859 20.6857C72.7578 20.5777 71.6911 20.1367 70.9858 19.3626C70.2806 18.5706 69.9279 17.4095 69.9279 15.8794V9.53388H68.3411C67.5653 9.53388 67.1774 9.18285 67.1774 8.4808C67.1774 8.15677 67.2744 7.90475 67.4684 7.72474C67.6799 7.52672 67.9709 7.42772 68.3411 7.42772H69.9279V4.6465C69.9279 4.23247 70.0425 3.90844 70.2717 3.67443C70.5186 3.44041 70.8448 3.3234 71.2503 3.3234C71.6558 3.3234 71.982 3.44041 72.2288 3.67443C72.4757 3.90844 72.5991 4.23247 72.5991 4.6465V7.42772H75.2173C75.5876 7.42772 75.8697 7.52672 76.0636 7.72474C76.2752 7.90475 76.381 8.15677 76.381 8.4808C76.381 8.82283 76.2752 9.08384 76.0636 9.26386C75.8697 9.44387 75.5876 9.53388 75.2173 9.53388H72.5991V16.0684C72.5991 16.9145 72.7666 17.5355 73.1016 17.9315C73.4542 18.3276 73.9831 18.5526 74.6884 18.6066L75.4289 18.6606Z" fill="#5C56D7"/>
<path d="M80.5739 20.7397C80.186 20.7397 79.8598 20.6317 79.5953 20.4157C79.3485 20.1997 79.2251 19.8757 79.2251 19.4436V8.4808C79.2251 8.04877 79.3485 7.72474 79.5953 7.50872C79.8598 7.2747 80.186 7.1577 80.5739 7.1577C80.9617 7.1577 81.2791 7.2747 81.5259 7.50872C81.7728 7.72474 81.8962 8.04877 81.8962 8.4808V19.4436C81.8962 19.8757 81.7728 20.1997 81.5259 20.4157C81.2791 20.6317 80.9617 20.7397 80.5739 20.7397ZM80.5739 4.51149C80.0625 4.51149 79.657 4.36748 79.3573 4.07946C79.0576 3.79143 78.9077 3.41341 78.9077 2.94537C78.9077 2.47733 79.0576 2.1083 79.3573 1.83828C79.657 1.55026 80.0625 1.40625 80.5739 1.40625C81.0675 1.40625 81.4642 1.55026 81.764 1.83828C82.0813 2.1083 82.24 2.47733 82.24 2.94537C82.24 3.41341 82.0901 3.79143 81.7904 4.07946C81.4907 4.36748 81.0852 4.51149 80.5739 4.51149Z" fill="#5C56D7"/>
<path d="M91.951 20.7938C90.6992 20.7938 89.5972 20.5147 88.6451 19.9567C87.7107 19.3986 86.979 18.6066 86.45 17.5805C85.9387 16.5544 85.6831 15.3663 85.6831 14.0162C85.6831 12.6481 85.9476 11.442 86.4765 10.3979C87.0231 9.35387 87.7812 8.5438 88.7509 7.96776C89.7206 7.39171 90.8314 7.10369 92.0832 7.10369C92.7532 7.10369 93.4232 7.2027 94.0932 7.40071C94.7808 7.59873 95.3891 7.86875 95.918 8.21078C96.4822 8.60681 96.7644 9.06584 96.7644 9.58788C96.7644 9.89391 96.685 10.1549 96.5263 10.3709C96.3677 10.569 96.1649 10.668 95.918 10.668C95.7594 10.668 95.6007 10.632 95.442 10.56C95.2833 10.47 95.0806 10.3439 94.8337 10.1819C94.3929 9.89391 93.9786 9.67789 93.5907 9.53388C93.2205 9.37187 92.7709 9.29086 92.2419 9.29086C91.043 9.29086 90.1085 9.70489 89.4385 10.533C88.7862 11.361 88.46 12.5131 88.46 13.9892C88.46 15.4653 88.7862 16.6084 89.4385 17.4185C90.0909 18.2106 91.0165 18.6066 92.2155 18.6066C92.7444 18.6066 93.2116 18.5256 93.6172 18.3636C94.0227 18.2016 94.437 17.9855 94.8602 17.7155C95.0541 17.5895 95.2481 17.4815 95.442 17.3915C95.6359 17.3015 95.8123 17.2565 95.9709 17.2565C96.2178 17.2565 96.4205 17.3645 96.5792 17.5805C96.7379 17.7785 96.8172 18.0305 96.8172 18.3366C96.8172 18.5886 96.7467 18.8226 96.6057 19.0386C96.4822 19.2366 96.2619 19.4436 95.9445 19.6597C95.4156 20.0197 94.7985 20.2987 94.0932 20.4967C93.388 20.6947 92.6739 20.7938 91.951 20.7938Z" fill="#5C56D7"/>
<path d="M109.998 7.1577C110.404 7.1577 110.721 7.2747 110.95 7.50872C111.197 7.74274 111.321 8.06677 111.321 8.4808V19.4706C111.321 19.8487 111.197 20.1547 110.95 20.3887C110.704 20.6227 110.377 20.7397 109.972 20.7397C109.602 20.7397 109.302 20.6317 109.073 20.4157C108.844 20.1817 108.729 19.8757 108.729 19.4977V18.4716C108.323 19.2276 107.759 19.8037 107.036 20.1997C106.331 20.5957 105.538 20.7938 104.656 20.7938C101.518 20.7938 99.9485 19.0296 99.9485 15.5013V8.4808C99.9485 8.06677 100.063 7.74274 100.292 7.50872C100.539 7.2747 100.874 7.1577 101.297 7.1577C101.703 7.1577 102.02 7.2747 102.249 7.50872C102.496 7.74274 102.62 8.06677 102.62 8.4808V15.4743C102.62 16.5364 102.831 17.3195 103.254 17.8235C103.678 18.3276 104.33 18.5796 105.211 18.5796C106.252 18.5796 107.08 18.2376 107.697 17.5535C108.332 16.8694 108.65 15.9604 108.65 14.8263V8.4808C108.65 8.08477 108.773 7.76974 109.02 7.53572C109.267 7.28371 109.593 7.1577 109.998 7.1577Z" fill="#5C56D7"/>
<path d="M130.662 7.10369C133.554 7.10369 135 8.87683 135 12.4231V19.4436C135 19.8577 134.876 20.1817 134.629 20.4157C134.383 20.6317 134.056 20.7397 133.651 20.7397C133.263 20.7397 132.946 20.6317 132.699 20.4157C132.452 20.1817 132.328 19.8577 132.328 19.4436V12.4501C132.328 11.352 132.135 10.56 131.747 10.0739C131.359 9.56988 130.75 9.31786 129.922 9.31786C128.952 9.31786 128.185 9.65989 127.621 10.3439C127.057 11.01 126.775 11.9281 126.775 13.0982V19.4436C126.775 19.8577 126.651 20.1817 126.404 20.4157C126.158 20.6317 125.831 20.7397 125.426 20.7397C125.038 20.7397 124.721 20.6317 124.474 20.4157C124.227 20.1817 124.103 19.8577 124.103 19.4436V12.4501C124.103 11.352 123.91 10.56 123.522 10.0739C123.134 9.56988 122.525 9.31786 121.697 9.31786C120.727 9.31786 119.951 9.65989 119.369 10.3439C118.805 11.01 118.523 11.9281 118.523 13.0982V19.4436C118.523 19.8577 118.4 20.1817 118.153 20.4157C117.906 20.6317 117.589 20.7397 117.201 20.7397C116.813 20.7397 116.487 20.6317 116.222 20.4157C115.975 20.1817 115.852 19.8577 115.852 19.4436V8.45379C115.852 8.05776 115.984 7.74274 116.249 7.50872C116.513 7.2747 116.831 7.1577 117.201 7.1577C117.571 7.1577 117.871 7.2747 118.1 7.50872C118.347 7.72474 118.47 8.03076 118.47 8.42679V9.42587C118.858 8.66981 119.396 8.09377 120.084 7.69774C120.771 7.30171 121.565 7.10369 122.464 7.10369C123.451 7.10369 124.262 7.31071 124.897 7.72474C125.549 8.13877 126.034 8.77782 126.351 9.64189C126.739 8.86783 127.312 8.25578 128.071 7.80575C128.829 7.33771 129.693 7.10369 130.662 7.10369Z" fill="#5C56D7"/>
<g clip-path="url(#clip0)">
<path d="M13.0195 25.8277C5.84708 25.8277 0 20.0581 0 12.9332C0 5.80833 5.84708 0 13.0195 0C20.1919 0 26.039 5.80833 26.039 12.9332C26 20.0581 20.1529 25.8277 13.0195 25.8277ZM13.0195 3.75605C7.95202 3.75605 3.78111 7.8606 3.78111 12.9332C3.78111 17.9671 7.91304 22.1104 13.0195 22.1104C18.1259 22.1104 22.2189 17.9671 22.2189 12.9332C22.2189 7.8606 18.087 3.75605 13.0195 3.75605Z" fill="#5C56D7"/>
<path d="M1.75323 40C0.817696 40 0.0380859 39.2256 0.0380859 38.2963V12.0039H3.46837V38.2963C3.46837 39.2256 2.72774 40 1.75323 40Z" fill="#5C56D7"/>
<path d="M13.0196 17.5024C10.4859 17.5024 8.41992 15.4501 8.41992 12.8944C8.41992 10.3775 10.4859 8.3252 13.0196 8.3252C15.5534 8.3252 17.6193 10.3775 17.6193 12.8944C17.6193 15.4501 15.5534 17.5024 13.0196 17.5024ZM13.0196 12.0812C12.5519 12.0812 12.201 12.4685 12.201 12.8944C12.201 13.3591 12.5908 13.7076 13.0196 13.7076C13.4874 13.7076 13.8382 13.3204 13.8382 12.8944C13.8382 12.4685 13.4484 12.0812 13.0196 12.0812Z" fill="#FF5656"/>
</g>
<defs>
<clipPath id="clip0">
<rect width="26" height="40" fill="white"/>
</clipPath>
</defs>
</svg>
