<svg width="12" height="16" viewBox="0 0 12 16" fill="none" xmlns="http://www.w3.org/2000/svg">
<path fill-rule="evenodd" clip-rule="evenodd" d="M5.85121 0C9.08289 0 11.7024 2.70563 11.7024 6.04354C11.7024 8.98771 8.8641 13.1708 6.67503 15.6304C6.23626 16.1232 5.46616 16.1232 5.0274 15.6304C2.83833 13.1708 0 8.98771 0 6.04354C0 2.70563 2.61954 0 5.85121 0V0ZM5.85121 2.988C7.58217 2.988 8.98455 4.39038 8.98455 6.12134C8.98455 7.8523 7.58217 9.25468 5.85121 9.25468C4.12025 9.25468 2.71788 7.8523 2.71788 6.12134C2.71788 4.39038 4.12025 2.988 5.85121 2.988Z" fill="#121045"/>
</svg>
