<svg width="14" height="13" viewBox="0 0 14 13" fill="none" xmlns="http://www.w3.org/2000/svg">
<path d="M4.94971 9.76782V12.3407C4.94971 12.5205 5.06654 12.6797 5.23955 12.7363C5.28281 12.7501 5.32718 12.7568 5.371 12.7568C5.50244 12.7568 5.62939 12.6958 5.71028 12.5871L7.23422 10.5389L4.94971 9.76782Z" fill="white"/>
<path d="M13.3661 0.0772083C13.2364 -0.0132732 13.0659 -0.0254855 12.9248 0.0472328L0.227449 6.56968C0.0773381 6.64684 -0.0112615 6.80449 0.00115376 6.97046C0.0141333 7.13699 0.126435 7.2791 0.28614 7.33294L3.81601 8.51975L11.3334 2.19714L5.51634 9.09095L11.4322 11.0799C11.4762 11.0943 11.5225 11.1021 11.5688 11.1021C11.6455 11.1021 11.7217 11.0815 11.7888 11.0416C11.8961 10.9772 11.9689 10.8689 11.9875 10.7474L13.5394 0.477992C13.5625 0.322563 13.4959 0.168245 13.3661 0.0772083Z" fill="white"/>
</svg>
