<svg width="95" height="18" viewBox="0 0 95 18" fill="none" xmlns="http://www.w3.org/2000/svg">
<path d="M11.3595 15.6141L11.2063 14.6259C10.9655 14.4156 10.4025 14.6451 10.2181 14.7792C9.6785 15.1708 8.41558 15.1797 8.39496 16.0739C8.38836 16.35 7.89887 16.1574 7.40677 16.2272C6.52075 16.353 6.51994 16.7172 6.57184 17.3686L3.60729 17.8284C3.21127 17.5748 2.45328 17.5029 2.46584 16.9935C2.47301 16.6948 2.77402 16.1539 2.31258 16.0053C1.84979 15.8633 1.35883 15.5329 1.17114 15.1703C0.983442 14.8078 0.827552 14.5665 1.01788 14.1822C1.51336 13.3826 2.50995 12.4323 3.67592 11.746C5.64856 10.6203 7.07519 9.58594 9.29851 8.85008C11.3275 8.14649 14.1432 8.38172 16.2158 7.77727C17.5549 7.38817 18.7777 6.65146 20.0153 6.17604C21.3445 5.66511 22.7062 6.01338 23.968 5.56301C26.0756 4.81095 27.6429 4.47376 29.8972 4.64345C30.256 4.67057 31.2123 3.52413 31.7203 3.34875C33.6933 2.66835 37.3944 2.08187 39.6258 2.12267C40.2928 2.13487 41.0019 1.62533 41.6021 1.81615C42.224 2.01315 43.1414 2.26546 43.5785 1.50963C45.3356 2.02175 46.6453 0.0334749 48.5194 0.743335C49.1658 0.988004 49.7223 1.14377 50.6491 1.425C51.0761 1.55425 51.6267 -0.018414 52.4722 0.130297L53.6136 0.965224C53.6929 0.806883 54.4234 0.910736 54.6018 0.811964C54.3917 0.81388 54.7802 0.713193 54.6018 0.811964C55.9665 0.814833 57.2301 0.15035 58.5546 0.198927C60.4242 0.267258 62.7672 0.189261 64.6369 0.267556C68.7676 0.440352 72.8761 0.905799 76.9549 1.393C80.0788 1.75066 83.2839 2.33747 86.3084 2.97822C89.1208 3.58814 91.9921 4.0637 93.8387 5.85815C93.684 6.10892 93.0825 5.9548 92.8505 6.01141C92.6186 6.06802 92.2069 6.79119 92.0156 7.15286C92.6055 7.39517 93.3654 7.51441 94.1452 7.83452C93.3802 8.60537 93.2907 9.31632 93.4636 9.96415C91.867 10.9161 90.5969 9.99956 89.3576 9.58901C88.5216 9.29027 88.151 9.01534 87.2279 8.90734C83.7161 8.54491 79.389 8.06983 75.8981 7.62863C75.8464 7.13209 76.8746 7.90579 76.8863 7.47538C76.8246 7.44299 76.8528 6.49084 76.733 6.48719C75.7859 6.45857 74.9101 7.98006 73.9218 7.93515C72.6668 7.87876 72.067 7.41178 70.8039 7.40675C67.8742 7.39511 64.7587 7.35095 61.757 7.7979C60.6863 7.95715 59.7592 7.23525 58.6392 7.26949C57.9027 7.293 57.3649 8.06353 56.6628 7.57601C54.3925 8.21748 51.9903 7.97367 49.7455 8.64882C48.705 8.96167 47.7369 8.44761 46.781 9.1086C45.7637 8.72211 43.7183 8.5798 42.6749 8.73345C41.5014 8.90638 40.8828 9.0114 39.7104 9.19323C38.622 9.36203 37.8229 9.43584 36.7458 9.65301C35.9548 9.81242 34.5659 9.66863 33.7813 10.1128C33.2689 10.4025 32.3593 9.60199 31.8049 10.4193C29.9564 9.82748 28.7918 12.1199 27.0172 12.1738C23.6716 12.2756 20.4693 13.3998 17.1354 13.7064C16.4477 14.3875 15.6889 13.5518 15.159 14.0129C14.3816 14.6895 13.0534 14.3129 12.1944 14.4727C11.7402 14.5558 11.8883 15.4305 11.3595 15.6141ZM35.9795 4.71208C36.6248 4.58933 37.472 4.15112 37.9559 4.40556C38.5987 4.74309 38.3053 4.21621 38.9441 4.2523C39.2667 4.27031 39.8159 3.99509 39.9323 4.09904C40.6061 4.69459 41.4504 3.67786 41.9087 3.79252C42.7041 3.99163 43.1619 3.52242 43.885 3.486C44.8436 3.43643 46.0016 3.61842 47.0028 4.01441C47.8176 4.3366 48.9224 3.24048 49.9674 3.55463C50.4898 3.71195 51.3237 3.45812 51.9438 3.24811C52.7461 2.9765 53.1317 3.18679 53.9201 2.9416C54.5511 2.74577 55.261 2.82434 55.8965 2.63508C56.6793 2.40188 57.272 3.62396 58.0261 3.31674C58.7803 3.00953 59.2147 3.21043 60.0025 3.01023C60.7672 2.81589 62.2324 2.08362 62.9671 2.55045C64.5838 2.22669 65.5545 2.30006 67.0731 2.92559C67.2445 2.99629 67.8236 2.84253 68.0613 2.77234C68.5284 2.64111 68.5682 2.59874 69.0495 2.61908C69.5307 2.63941 70.7608 3.1321 71.1791 3.30074C71.7097 3.5001 71.6915 3.17274 72.1673 3.14748C72.643 3.10783 72.6895 2.9456 73.1555 2.99422C75.2033 3.25172 77.3414 3.83012 79.3911 4.05104C82.2111 4.35942 85.0232 5.22743 87.7564 5.78952C88.1514 5.86999 89.2529 5.91845 89.7327 5.483C89.0404 5.21597 88.3436 3.86864 87.4498 3.81315C86.6207 3.76033 85.2464 4.17008 84.4853 4.27293C83.5767 4.3957 83.4753 3.0897 82.3556 3.59126C81.8217 3.82986 81.0222 3.05348 80.226 2.90959C79.1088 2.70892 78.229 2.30873 77.1082 2.38119C75.5635 2.48107 74.4564 2.13063 73.0022 2.00604C71.532 1.88006 69.377 1.8949 67.908 1.78415C66.4451 1.67474 65.2523 1.2342 63.802 1.409C62.2419 1.59721 60.4111 2.04376 58.8611 2.1753C57.7753 2.26749 56.7564 1.81426 55.7433 1.64689C54.9718 1.50323 54.5555 1.76686 53.7669 1.95341C52.9058 2.16315 51.7058 2.1522 50.8023 2.41319C49.6843 2.73602 49.0133 2.741 47.8378 2.87297C46.7695 2.99329 44.6304 2.91471 43.7318 2.49782C42.5568 1.95301 41.7887 3.84231 40.7672 2.9576C39.977 3.57587 39.7565 3.67265 38.7908 3.26412C38.7221 3.23509 37.8762 3.32365 37.8026 3.41737C37.3413 4.00437 36.5879 4.65174 35.9795 4.71208C31.7248 5.13362 28.3203 5.8918 24.1213 6.55119C24.062 6.56039 23.2848 6.54282 23.1331 6.70445C25.0328 6.86337 27.5057 6.31122 29.2155 6.77308C29.844 6.40597 30.5454 5.76599 31.0386 5.47838C31.697 5.54951 30.7314 6.38582 31.1919 6.46656C31.425 6.283 31.7042 5.19645 32.0268 5.32512C33.0946 5.75071 34.2095 5.08388 34.9913 4.86534L36.1328 5.70027L35.9795 4.71208Z" fill="#FF5656"/>
</svg>
