<svg width="144" height="17" viewBox="0 0 144 17" fill="none" xmlns="http://www.w3.org/2000/svg">
<path d="M92.9775 2.69203C88.3762 2.75174 83.7742 2.85219 79.1736 2.84628C77.8074 2.8446 76.2872 3.35234 75.0457 2.4575C74.8955 2.35009 74.4424 2.4276 74.1646 2.64226C73.5416 3.12414 72.8405 3.09688 72.1104 2.74329C71.8595 2.6216 71.4571 2.44501 71.2646 2.51012C69.6395 3.06105 68.0418 3.26031 66.4225 2.553C64.7688 3.59504 62.7833 3.03602 60.9835 3.06375C57.3479 3.11941 53.8195 4.04771 50.1584 3.73161C47.9448 4.83587 45.1638 3.66629 42.9337 4.70569C41.3559 3.70887 39.7644 4.61696 38.6425 5.07551C37.1022 5.70489 35.413 4.87136 33.9262 5.80516C33.2325 6.24011 31.6089 5.90796 30.3697 6.07004C31.3672 6.31955 32.0063 6.81238 32.6569 7.29195C33.8394 6.80527 34.9413 6.21356 36.4378 6.31334C37.271 6.36897 38.2073 6.47273 38.8264 5.84491C39.6369 6.70324 40.3882 5.7861 40.8791 5.6228C41.5234 5.40857 41.7 5.46561 42.1412 5.72808C42.2869 5.78639 42.4505 5.81822 42.6179 5.82081C42.7852 5.8234 42.9513 5.79668 43.1017 5.74296C45.6435 4.55406 48.7781 5.89648 51.2983 4.68381C52.5982 4.97369 53.8426 5.04065 54.8622 4.2045C55.833 5.23901 57.1371 3.74493 57.5476 4.16965C58.4304 5.08391 59.6701 3.28529 60.2202 4.49175C61.328 4.5028 62.5746 4.76002 63.5192 4.48093C66.9831 3.45777 70.5446 4.20056 74.0363 3.92915C74.8348 3.86712 75.6842 4.93218 76.5004 3.88132C77.3469 4.93056 78.1508 3.87494 78.9776 3.84753C81.1822 3.77409 83.3286 4.11915 85.4511 4.44538C85.9451 4.56055 86.4506 4.6493 86.9635 4.7109C87.9036 4.75885 88.7017 4.19623 89.8171 4.60934C90.6046 4.90177 91.8057 4.71012 92.8022 4.61681C96.2331 4.29561 99.5409 5.37688 102.968 4.97918C103.503 4.91756 103.735 5.21364 104.078 5.39756C104.248 5.48913 107.406 5.43447 107.864 5.40639C108.31 5.37872 108.885 5.25836 109.19 5.40531C111.316 6.42866 113.952 5.96576 116.188 6.65413C116.717 6.76123 117.274 6.78267 117.819 6.7169C119.283 6.64705 120.615 6.82032 121.657 7.62972L122.251 7.23215C125.417 7.39556 128.214 8.45339 131.321 8.48715C131.851 8.49286 132.393 8.37291 132.873 8.72045C133.14 8.91356 133.621 8.95351 134.025 9.06802C133.977 9.48502 133.439 9.638 133.131 9.91238C132.272 10.1327 131.658 8.91611 130.551 9.81736C129.744 10.475 129.06 9.1032 127.872 9.44477C127.027 9.6884 125.663 9.71266 124.988 9.37148C123.959 8.85171 123.102 9.29945 122.139 9.19766C123.269 9.69971 124.878 9.57467 125.715 10.8537C124.588 10.8937 123.808 10.1589 122.789 10.7451C122.515 11.012 123.413 11 123.339 11.2982C122.353 11.8947 121.595 11.2158 120.723 11.0527C119.883 10.8952 118.919 11.3186 118.136 10.9017C117.191 10.3992 116.494 11.6032 115.481 10.9657L115.066 10.1657L114.212 10.6629L113.116 9.55617C112.388 10.1706 111.866 10.4557 111.033 9.87545C110.889 9.77507 109.982 10.063 109.424 9.85012C108.688 10.9224 108.277 8.87287 107.558 9.76143L106.607 10.4635C107.026 11.1025 108.111 10.3877 108.571 10.9575C107.943 11.4578 107.081 11.2593 106.408 11.177C106.001 11.1276 104.925 10.998 105.631 10.0801C105.977 9.63022 104.686 9.16717 103.794 9.35235C103.149 9.48621 102.672 9.76852 101.961 9.37312C101.366 9.04265 100.604 8.85269 99.8355 9.36708C99.1155 9.84858 98.5596 8.69824 97.5682 9.20513C97.2656 9.35915 95.976 9.09756 95.332 8.89322C94.4582 8.61613 93.4602 9.06514 92.7471 8.52269C92.2927 9.32143 91.291 8.48691 90.5015 8.95564C89.7419 9.40648 89.8568 8.4071 89.3522 8.06835C88.4808 9.32005 87.6118 7.91541 86.6816 8.09945C86.0105 8.48052 86.3703 8.95102 86.4574 9.44637C89.0577 9.77405 91.815 9.02799 94.3148 9.67931C96.7852 10.3228 99.6281 9.10649 101.793 10.6124C101.315 11.0216 100.437 10.9537 99.9949 10.7929C98.0983 10.1035 96.0646 10.6725 94.1911 10.3865C89.7984 9.71578 85.3859 10.1222 80.9855 10.1478C79.8817 10.154 79.3856 9.329 78.2828 9.50188C79.8319 9.16901 81.3379 8.79433 82.8555 9.64266L84.9515 8.85979C84.4739 8.10377 83.2024 8.24029 82.6308 7.72662C81.0592 8.46522 79.4916 9.10399 77.5598 8.45896C76.8081 8.2079 75.8229 9.31563 75.2162 8.26136C72.615 9.30668 69.7968 8.64254 67.0876 8.8103C64.4111 8.97599 61.7095 8.90879 59.0454 8.94336C58.3387 9.30522 59.0158 9.88806 58.4059 10.4091C53.6597 10.2129 48.8466 11.5587 43.8831 10.6638L48.4399 10.6046C48.4772 9.98846 47.8705 9.87385 47.6091 9.58936L46.9712 10.0077C45.3346 9.25854 44.0395 10.5693 42.1147 10.0218C42.9039 10.651 43.5155 10.8454 42.997 11.5463C42.4184 11.3731 42.0575 10.8977 41.514 10.6409C40.9284 11.4753 40.1374 12.2073 38.716 12.092C35.82 11.8562 33.0739 12.5819 30.2568 12.7959C28.5764 12.9235 26.8455 13.0958 25.1515 13.2952C23.5632 13.4823 22.0263 13.9047 20.3774 13.8001C18.9401 14.8866 16.6521 13.7218 15.2243 14.8348C13.3167 14.5027 11.6851 15.5798 9.78194 15.4101C8.95344 15.3361 8.33186 16.2466 7.39005 15.8889C6.61351 15.5944 5.9718 16.8916 5.23888 15.9401C4.5294 16.2375 4.30223 17.0945 3.17745 16.8928C2.64582 16.6108 3.23553 16.5282 3.38171 16.2067C2.28499 15.3507 1.6924 14.0978 0.149626 13.3936C0.379631 12.9906 0.922319 13.1572 1.26475 12.998C1.70904 12.6521 1.345 12.2301 1.51026 11.7943L2.63884 11.497C2.91035 11.1824 2.35943 11.1725 2.25329 10.9134C2.54659 10.4601 2.99885 10.0813 3.85999 10.1478C5.01796 10.2375 5.99821 9.83382 6.77744 9.36686C8.06831 8.54224 9.75127 8.10852 11.4693 8.15771C12.3243 8.19009 13.0776 7.22507 13.9731 8.0894L14.4549 7.08171C16.2521 7.27081 17.8833 6.63615 19.6219 6.32515C21.9723 5.90479 24.367 5.67277 26.68 5.0648C27.6215 4.81719 28.7236 4.79633 29.754 4.52569C30.7206 4.27147 31.7962 4.46802 32.8662 4.02464C33.7222 3.67014 35.2242 4.13866 36.0987 3.79131C37.1465 3.37473 37.8153 3.19162 38.72 3.80459C38.7991 3.85824 39.413 3.37621 39.7103 3.41308C41.0852 3.58416 42.1262 2.75785 43.4744 2.83686C44.7627 2.91228 46.0492 2.87562 47.2386 2.33363C48.227 1.88337 49.3343 3.08369 50.3726 2.28011C53.4111 2.00063 56.4219 1.54847 59.5165 1.6543C60.4403 1.68606 61.5025 1.92926 62.308 1.20005C62.5582 0.973986 63.0562 1.33798 63.4408 1.43141C64.6879 1.73865 66.077 1.80182 67.2372 1.3548C67.9011 1.10013 68.5507 0.965117 69.0615 1.1433C69.5648 1.31913 69.7349 1.52224 70.318 1.16336C70.756 0.894667 71.4978 0.943821 72.1207 1.27666C72.8639 1.67492 74.0221 1.72523 74.5422 1.31823C75.4089 0.640176 75.9695 1.95586 76.7259 1.28552C77.4658 0.629615 78.6619 0.872727 79.5371 0.993692C80.2059 1.08617 80.9337 0.997163 81.5285 1.19012C82.8282 1.61259 84.1547 1.31133 85.4581 1.31628C86.7687 1.32142 87.8252 2.06528 89.2368 1.80884C89.7598 1.73938 90.2402 1.55282 90.6089 1.27595C91.2604 1.8758 92.7828 1.71252 92.9775 2.69203Z" fill="#5C56D7"/>
<path d="M92.9736 2.68884C94.2606 2.95428 94.6015 2.00556 95.3478 1.72603C96.11 1.53515 96.3272 2.13872 96.8481 2.147C98.6855 2.17783 100.501 2.36014 102.311 2.48072C105.298 2.64498 108.268 2.93139 111.207 3.33856C113.161 3.63116 115.221 3.5678 117.033 4.3158C118.41 3.62703 119.865 4.24707 121.175 4.34845C122.954 4.48584 125.075 4.37302 126.406 5.618C127.086 5.05993 127.801 4.90602 128.717 5.35781C129.864 5.93816 131.276 6.18798 132.674 6.05829C132.941 6.01298 133.218 6.01148 133.484 6.0539C133.75 6.09633 133.999 6.18157 134.212 6.30326C135.452 7.05267 136.994 7.02528 138.587 6.9204L139.007 7.76711C139.961 8.40651 140.559 6.87485 141.255 7.48178C141.934 8.07444 142.983 7.57035 143.559 8.09927L142.595 8.81086C141.874 8.10939 141.17 8.27381 140.486 8.85327C140.262 8.84168 139.949 8.89359 139.842 8.80994C138.509 7.761 136.507 7.84167 134.867 7.56796C132.837 7.22877 130.693 7.07179 128.624 6.73803C126.689 6.42631 124.716 5.93329 122.842 5.81215C120.692 5.67329 118.573 5.31531 116.406 5.21219C114.353 5.11417 112.222 5.00567 110.17 4.48114C108.724 4.11169 106.988 4.19436 105.416 4.08927C103.268 3.94573 101.186 3.17361 98.9726 3.59083C97.9093 3.79163 97.3269 2.90874 96.2008 3.09997C95.2584 3.25983 94.2175 3.12571 93.2235 3.08394C93.1286 3.08079 93.0572 2.82937 92.9736 2.68884Z" fill="#5C56D7"/>
</svg>
