<svg width="95" height="106" viewBox="0 0 95 106" fill="none" xmlns="http://www.w3.org/2000/svg">
<path d="M94.9468 47.0802C94.3119 57.1436 91.7097 66.6014 86.2041 75.1969C83.8384 78.89 81.8339 82.8177 79.3845 86.4517C78.3371 88.009 76.4916 89.0078 75.1542 90.3999C68.292 97.5423 60.5652 103.278 50.5486 105.03C36.8683 107.423 23.9775 105.587 12.4415 97.2987C3.40616 90.8077 -0.240902 81.1615 0.0122756 70.8943C0.603145 46.9243 10.5349 26.9536 29.0653 11.5369C32.7496 8.43886 36.7565 5.74539 41.017 3.50288C51.6299 -1.99119 62.1178 -0.791054 72.0109 5.48531C78.6726 9.71105 83.8572 15.3668 86.9271 22.8007C87.7715 24.8459 88.997 26.7374 90.0866 28.6776C93.2916 34.3832 95.3636 40.3835 94.9468 47.0802ZM56.0444 10.3779C54.6919 11.0923 53.3292 11.7454 52.0326 12.5101C47.5328 15.1644 42.686 17.4037 38.6777 20.6671C34.9162 23.7299 32.0362 27.8784 28.7973 31.5744C27.2479 33.3425 25.4504 34.9901 24.3055 36.9996C18.7926 46.6783 13.5152 56.5929 12.8023 67.9318C12.4321 73.8174 13.3296 79.8415 14.2448 85.7112C14.5034 87.3686 16.5718 89.3917 18.2783 90.0683C28.1194 93.9653 38.2783 94.8541 48.1363 90.4869C66.6136 82.3021 76.5056 67.0059 81.4229 48.1627C83.7427 39.2736 83.296 30.6146 75.3337 24.1058C73.8128 22.8624 72.1709 21.7604 70.7017 20.4614C69.9732 19.8173 68.932 18.8016 69.0212 18.077C69.5958 13.4424 67.1695 11.8025 63.0641 11.6134C61.3735 11.5354 59.6648 11.626 57.9951 11.4055C57.2193 11.3034 56.5176 10.6406 56.0444 10.3779ZM45.6526 5.16597C40.6537 5.84001 32.4862 11.0263 31.3609 14.2092L45.6526 5.16597Z" fill="#FF5656"/>
</svg>
