<svg width="8" height="12" viewBox="0 0 8 12" fill="none" xmlns="http://www.w3.org/2000/svg">
<path d="M2.34748 7.69496V7.01061C2.34748 6.49072 2.45358 6.05305 2.66578 5.69761C2.87798 5.33687 3.25464 4.98674 3.79576 4.64721C4.22546 4.37666 4.53316 4.13263 4.71883 3.91512C4.90981 3.69761 5.00531 3.44828 5.00531 3.16711C5.00531 2.9443 4.90451 2.76923 4.70292 2.64191C4.50133 2.50928 4.23873 2.44297 3.91512 2.44297C3.11406 2.44297 2.17772 2.72679 1.1061 3.29443L0 1.12997C1.32095 0.376658 2.70027 0 4.13793 0C5.32095 0 6.24934 0.259947 6.92308 0.779841C7.59682 1.29973 7.93369 2.00796 7.93369 2.90451C7.93369 3.54642 7.78249 4.10345 7.48011 4.5756C7.18302 5.04244 6.70557 5.48541 6.04775 5.90451C5.49072 6.26525 5.14058 6.5305 4.99735 6.70027C4.85942 6.86472 4.79045 7.06101 4.79045 7.28912V7.69496H2.34748ZM2.00531 10.4801C2.00531 9.99204 2.14589 9.61539 2.42706 9.35013C2.71353 9.08488 3.13263 8.95225 3.68435 8.95225C4.21485 8.95225 4.62069 9.08753 4.90186 9.35809C5.18833 9.62334 5.33156 9.99735 5.33156 10.4801C5.33156 10.9629 5.18302 11.3369 4.88594 11.6021C4.59416 11.8674 4.19363 12 3.68435 12C3.15915 12 2.74801 11.87 2.45093 11.6101C2.15385 11.3448 2.00531 10.9682 2.00531 10.4801Z" fill="white"/>
</svg>
