<svg width="20" height="16" viewBox="0 0 20 16" fill="none" xmlns="http://www.w3.org/2000/svg">
<path d="M18.9998 3.00003C18.717 3.12769 18.2969 2.91256 17.9998 3.00003C18.3515 2.5952 18.8361 2.5213 18.9998 2.00003C19.0365 1.88319 18.0942 1.07645 17.9998 1.00003C17.9056 0.923556 18.1036 0.937445 17.9998 1.00003C17.369 1.38087 16.7135 1.83999 15.9998 2.00003C15.2809 1.28504 14.0092 1.00003 12.9998 1.00003C10.8692 1.00003 8.99982 2.83141 8.99982 5.00003C8.99982 5.17083 9.9788 4.83254 9.99982 5.00003C7.35586 4.76375 4.68775 4.10749 2.99982 2.00003C2.93967 1.92492 2.0947 1.99229 1.99982 2.00003C1.90489 2.0076 2.04778 1.91629 1.99982 2.00003C1.65748 2.59795 1.99982 3.30424 1.99982 4.00003C1.99982 4.9477 2.41262 5.29745 2.99982 6.00003C2.82127 5.93709 2.16519 6.09347 1.99982 6.00003C1.91104 5.94974 2.08802 5.94856 1.99982 6.00003C1.91157 6.05151 2.00215 5.89655 1.99982 6.00003C1.99942 6.01747 1.99982 5.98236 1.99982 6.00003C1.99982 7.4146 2.85625 9.3059 3.99982 10C3.90158 9.99004 3.09737 10.019 2.99982 10C2.89926 9.98047 3.06764 9.92196 2.99982 10C2.93189 10.078 2.96853 9.90074 2.99982 10C3.42311 11.3452 4.68234 12.6984 5.99982 13C4.90711 13.6966 3.31161 14 1.99982 14C1.72611 14 1.26924 14.0325 0.999823 14C0.865985 13.9838 1.0454 13.8705 0.999823 14C0.954242 14.1296 0.885959 13.9257 0.999823 14C2.68502 15.0998 4.99864 16 6.99982 16C10.9339 16 13.6281 14.5841 14.9998 13C16.7104 11.0248 16.9998 7.58325 16.9998 5.00003C16.9998 4.89211 17.0031 5.10866 16.9998 5.00003C17.6747 4.48249 18.527 3.71993 18.9998 3.00003C19.083 3.10068 19.0716 2.8907 18.9998 3.00003C19.118 2.94672 18.9167 2.89933 18.9998 3.00003Z" fill="#5C56D7"/>
</svg>
