<svg width="70" height="47" viewBox="0 0 70 47" fill="none" xmlns="http://www.w3.org/2000/svg">
<g opacity="0.35">
<path d="M16.8174 40.8718C16.8174 42.7347 18.2986 44.2667 20.2226 44.2667C21.9939 44.2667 23.6277 42.7347 23.6277 40.8718C23.6277 39.075 21.9939 37.4768 20.2226 37.4768C18.2986 37.4768 16.8174 39.075 16.8174 40.8718ZM20.075 47C16.6698 47 14.0078 44.2667 14.0078 40.8718C14.0078 37.4768 16.6698 34.8097 20.075 34.8097C21.4034 34.8097 22.5894 35.1456 23.6277 35.8735V30.8803H26.5849V46.7302H23.6277V45.9973C22.5894 46.6641 21.4034 47 20.075 47Z" fill="#121045"/>
<path d="M3.2022 40.8718C3.2022 42.7347 4.83096 44.2667 6.60224 44.2667C8.53131 44.2667 10.0074 42.7347 10.0074 40.8718C10.0074 39.075 8.53131 37.4768 6.60224 37.4768C4.83096 37.4768 3.2022 39.075 3.2022 40.8718ZM6.45464 47C3.2022 47 0.392578 44.2667 0.392578 40.8718C0.392578 37.4768 3.2022 34.8097 6.45464 34.8097C7.78819 34.8097 8.97413 35.1456 10.0074 35.8735V34.9421H12.9697V46.7302H10.0074V45.9973C9.12174 46.6641 7.78819 47 6.45464 47Z" fill="#121045"/>
<path d="M64.6113 46.9792C61.3589 46.9792 59.4298 45.3149 59.2822 42.9175H62.3922C62.3922 43.7166 62.835 44.7804 64.7589 44.8466C66.0925 44.8466 66.8305 44.0475 66.8305 43.4469C66.6829 42.5154 65.497 42.4492 64.3161 42.2457C62.9826 42.0522 61.9493 41.7825 61.2062 41.4516C60.173 40.9172 59.5774 39.7821 59.5774 38.586C59.5774 36.4534 61.3589 34.789 64.4637 34.789C67.4261 34.789 69.35 36.321 69.4925 38.6522H66.5353C66.5353 38.0567 66.3877 37.054 64.6113 37.054C63.4254 37.054 62.6874 37.2525 62.5398 38.1178C62.5398 39.319 65.0542 39.2528 66.9781 39.716C68.7545 40.1842 69.9405 41.3142 69.9405 42.9175C69.9405 45.8493 67.5737 46.9792 64.6113 46.9792Z" fill="#121045"/>
<path d="M29.4121 46.6257V34.7663V46.6257Z" fill="#121045"/>
<path d="M29.4121 46.6257V34.7663" stroke="#121045" stroke-width="3.2"/>
<path d="M7.94141 27.3097L18.1517 21.3799L23.6285 30.7759H9.86538" fill="#121045"/>
<path d="M45.9734 30.7732L31.7676 5.99579L41.9778 -5.14984e-05L59.7363 30.7732" fill="#121045"/>
<path d="M19.9287 16.7194L30.2866 10.8609L41.6829 30.7726H30.8771V33.7043H27.9198V30.7726" fill="#121045"/>
<path d="M48.4766 40.8718C48.4766 42.7347 49.9578 44.2667 51.8817 44.2667C53.6581 44.2667 55.2818 42.7347 55.2818 40.8718C55.2818 39.075 53.6581 37.4768 51.8817 37.4768C49.9578 37.4768 48.4766 39.075 48.4766 40.8718ZM51.7291 47C48.329 47 45.667 44.2667 45.667 40.8718C45.667 37.4768 48.329 34.8097 51.7291 34.8097C53.0626 34.8097 54.2485 35.1456 55.2818 35.8735V34.9421H58.0965V46.7302H55.2818V45.9973C54.2485 46.6641 53.0626 47 51.7291 47Z" fill="#121045"/>
<path d="M34.8711 40.8718C34.8711 42.7347 36.4999 44.2667 38.2763 44.2667C40.2003 44.2667 41.6814 42.7347 41.6814 40.8718C41.6814 39.075 40.2003 37.4768 38.2763 37.4768C36.4999 37.4768 34.8711 39.075 34.8711 40.8718ZM41.6814 30.8803H44.6386V46.7302H41.6814V45.9973C40.7907 46.6641 39.6047 47 38.2763 47C34.8711 47 32.0615 44.2667 32.0615 40.8718C32.0615 37.4768 34.8711 34.8097 38.2763 34.8097C39.6047 34.8097 40.7907 35.1456 41.6814 35.8735V30.8803Z" fill="#121045"/>
<path d="M68.0212 33.7966C67.2781 33.7966 66.54 33.1299 66.54 32.3307C66.54 31.5316 67.2781 30.8649 68.0212 30.8649C68.9068 30.8649 69.5024 31.5316 69.5024 32.3307C69.5024 33.1299 68.9068 33.7966 68.0212 33.7966ZM68.0212 31.0684C67.2781 31.0684 66.8353 31.664 66.8353 32.3307C66.8353 32.9975 67.2781 33.5981 68.0212 33.5981C68.7592 33.5981 69.2021 32.9975 69.2021 32.3307C69.2021 31.664 68.7592 31.0684 68.0212 31.0684Z" fill="#121045"/>
<path d="M68.3271 33.135L68.0319 32.4682H67.7367V33.135H67.5127V31.5368H68.1795C68.3271 31.5368 68.6223 31.7404 68.6223 32.0051C68.6223 32.2697 68.4747 32.4021 68.3271 32.4682L68.6223 33.135H68.3271ZM68.0319 31.7404H67.7367V32.2697H68.0319C68.3271 32.2697 68.3271 32.2036 68.3271 32.0051C68.3271 31.8676 68.3271 31.7404 68.0319 31.7404Z" fill="#121045"/>
</g>
</svg>
