<svg width="125" height="60" viewBox="0 0 125 60" fill="none" xmlns="http://www.w3.org/2000/svg">
<g opacity="0.35">
<path d="M54.9497 44.8896C54.9497 43.8513 54.246 43.3821 53.844 43.2148C54.3465 42.9466 54.6814 42.3436 54.6814 41.7408C54.6814 40.5013 53.844 39.7979 52.37 39.7979H49.2212V47.2683H52.3702C53.9782 47.3018 54.9497 46.3973 54.9497 44.8896ZM52.3702 46.0286H50.5947V43.9181H52.3702C53.1072 43.9181 53.5092 44.2866 53.5092 44.9901C53.5092 45.6266 53.0737 46.0286 52.3702 46.0286ZM52.3367 42.6786H50.5947V41.0706H52.2697C52.9397 41.0706 53.2412 41.3386 53.2412 41.8746C53.2747 42.2431 53.1072 42.6786 52.3367 42.6786ZM55.9212 44.9231V41.8411H57.2611V44.8563C57.2611 45.7608 57.5961 46.1963 58.2661 46.1963C58.9364 46.1963 59.2711 45.7608 59.2711 44.8563V41.8411H60.6111V47.3016H59.2711V46.8661C58.9363 47.2346 58.5006 47.4356 57.9646 47.4356C56.1892 47.4023 55.9212 45.8611 55.9212 44.9231ZM76.4898 47.3018H75.15V41.8413H76.4898V42.3105C76.8248 41.9418 77.294 41.7408 77.8633 41.7408C79.1697 41.7408 79.8732 42.612 79.8732 44.2198V47.3018H78.5332V44.2866C78.5332 43.3821 78.2317 42.9466 77.5618 42.9466C76.8915 42.9466 76.5233 43.4158 76.5233 44.2866V47.3018H76.4898ZM63.1906 44.5211V47.3016H61.8506V41.8411H63.1906V44.5211ZM64.3966 40.2331L65.7366 39.5631V47.3016H64.3966V40.2331ZM70.0245 42.2098C69.6895 41.8748 69.2875 41.7071 68.8185 41.7071C67.5118 41.7071 66.6746 42.7791 66.6746 44.4876C66.6746 46.2968 67.4786 47.4023 68.785 47.4023C69.254 47.4023 69.656 47.2346 70.0245 46.8663V47.2683H71.3645V39.5299L70.0245 40.1999V42.2098ZM69.0865 46.1626C68.6175 46.1626 68.048 45.8611 68.048 44.4876C68.048 43.2148 68.584 42.9801 69.053 42.9801C69.5555 42.9801 69.857 43.2816 70.0247 43.5161V45.6601C69.8235 45.8946 69.589 46.1626 69.0865 46.1626ZM99.4038 41.7071C98.9683 41.7071 98.5328 41.9083 98.1978 42.2098V39.6971L96.8578 40.3673V47.2683H98.1978V46.8663C98.5328 47.2013 98.9683 47.4023 99.4373 47.4023C100.777 47.4023 101.548 46.3303 101.548 44.4876C101.548 42.7791 100.744 41.7071 99.4038 41.7071ZM99.1691 42.9466C99.6716 42.9466 100.174 43.3486 100.174 44.4543C100.174 45.5931 99.8393 46.1291 99.1691 46.1291C98.6666 46.1291 98.3318 45.7941 98.1976 45.6266V43.4826C98.4323 43.1476 98.7671 42.9466 99.1691 42.9466ZM84.0944 42.2098C83.7594 41.8748 83.3574 41.7071 82.8884 41.7071C81.5819 41.7071 80.7444 42.7791 80.7444 44.4876C80.7444 46.2968 81.5484 47.4023 82.8549 47.4023C83.3241 47.4023 83.7594 47.2346 84.0944 46.8663V47.0003C84.0944 47.6033 84.0944 48.4073 82.3524 48.4408H82.2854L82.7544 49.5128H82.7879C84.5632 49.4793 85.4344 48.6083 85.4344 46.7993V41.8411H84.0944V42.2098ZM84.0944 43.4826V45.6266C83.8934 45.8946 83.6254 46.1626 83.1229 46.1626C82.6537 46.1626 82.1177 45.8611 82.1177 44.4876C82.1177 43.2148 82.6537 42.9801 83.1229 42.9801C83.6254 42.9466 83.9269 43.2481 84.0944 43.4826ZM89.6219 43.1811C90.0574 42.9466 90.4594 42.8126 91.0289 42.8126C91.6654 42.8126 92.0006 43.0806 92.0006 43.5831V43.9518C91.6991 43.7841 91.2299 43.6836 90.8281 43.6836C89.8231 43.6836 88.6506 44.1528 88.6506 45.4591C88.6506 46.8661 89.7563 47.4021 90.6608 47.4021C91.0293 47.4021 91.5988 47.2681 91.9673 46.8324V47.2678H93.3073V43.5829C93.3073 42.4106 92.4698 41.6734 91.0961 41.6734C90.3593 41.6734 89.6891 41.8409 89.0526 42.2094L89.6219 43.1811ZM90.0239 45.4926C90.0239 45.0236 90.3589 44.7221 90.9619 44.7221C91.3639 44.7221 91.6989 44.7891 92.0339 44.9901V45.7271C91.8664 46.0286 91.4643 46.2968 90.9619 46.2968C90.3589 46.2968 90.0239 45.9951 90.0239 45.4926ZM105.903 45.6936C105.668 45.9281 105.333 46.1628 104.831 46.1628C104.563 46.1628 103.692 46.0623 103.625 44.9568H106.975V44.5548C106.975 42.8128 106.07 41.7071 104.697 41.7071C103.29 41.7071 102.251 42.9133 102.251 44.5548C102.251 46.2633 103.256 47.4023 104.831 47.4023C105.534 47.4023 106.238 47.1341 106.74 46.5311L105.903 45.6936ZM103.625 43.9851C103.658 43.3151 104.06 42.8461 104.63 42.8461C105.333 42.8461 105.635 43.4158 105.668 43.9851H103.625ZM118.901 45.6936C118.666 45.9281 118.331 46.1628 117.829 46.1628C117.56 46.1628 116.69 46.0623 116.622 44.9568H119.973V44.5548C119.973 42.8128 119.068 41.7071 117.695 41.7071C116.288 41.7071 115.249 42.9133 115.249 44.5548C115.249 46.2633 116.254 47.4023 117.829 47.4023C118.532 47.4023 119.236 47.1341 119.772 46.5311L118.901 45.6936ZM116.623 43.9851C116.656 43.3151 117.058 42.8461 117.628 42.8461C118.331 42.8461 118.633 43.4158 118.666 43.9851H116.623ZM113.373 45.3921C113.373 45.8613 113.541 46.1291 113.943 46.1291C114.211 46.1291 114.512 46.0286 114.747 45.8946L114.579 47.1676C114.277 47.3351 113.875 47.4356 113.44 47.4356C112.368 47.4356 112 46.5311 112 45.7608V43.1143H111.196V41.8413H112.033V40.4343L113.373 39.7644V41.8411H114.612V43.1141H113.373V45.3921ZM110.76 47.1676C110.459 47.3351 110.057 47.4356 109.621 47.4356C108.549 47.4356 108.181 46.5311 108.181 45.7608V43.1143H107.343V41.8413H108.181V40.4343L109.521 39.7644V41.8411H110.66V43.1141H109.521V45.4256C109.521 45.8946 109.688 46.1626 110.09 46.1626C110.358 46.1626 110.66 46.0621 110.894 45.9281L110.76 47.1676ZM124.06 43.3486C123.8 43.1504 123.482 43.0443 123.155 43.0471C122.485 43.0471 122.183 43.4491 122.183 44.3201V47.2681H120.843V41.8078H122.183V42.2768C122.518 41.8748 122.92 41.6738 123.389 41.6738C123.758 41.6738 124.16 41.8076 124.394 42.0088L124.06 43.3486ZM63.1906 40.3673V41.0373H61.8506V39.6974H63.1906V40.3673ZM72.5705 41.8411H73.9105V47.3016H72.5705V41.8411ZM73.9105 40.3673V41.0373H72.5705V39.6974H73.9105V40.3673ZM110.928 51.757C110.593 51.422 110.191 51.2545 109.722 51.2545C108.415 51.2545 107.578 52.3265 107.578 54.035C107.578 55.844 108.382 56.9495 109.688 56.9495C110.157 56.9495 110.559 56.782 110.928 56.4137V56.8157H112.268V49.077L110.928 49.7473V51.757ZM109.989 55.71C109.52 55.71 108.951 55.4085 108.951 54.0352C108.951 52.7622 109.487 52.5277 109.956 52.5277C110.459 52.5277 110.76 52.8292 110.928 53.0635V55.2075C110.727 55.4085 110.492 55.71 109.989 55.71ZM65.1669 52.896C64.9072 52.6978 64.589 52.5917 64.2624 52.5945C63.5924 52.5945 63.2909 52.9965 63.2909 53.8673V56.8155H61.9509V51.355H63.2909V51.824C63.6256 51.422 64.0276 51.221 64.4969 51.221C64.8654 51.221 65.2674 51.355 65.5019 51.556L65.1669 52.896ZM54.5475 51.355H55.8874L54.3465 56.8155H53.1742L52.5712 54.5375C52.4707 54.1355 52.3367 53.6663 52.2697 53.365C52.2025 53.5995 52.0687 54.2695 51.9682 54.6045L51.3652 56.8157H50.2262L48.6852 51.3552H50.0585L50.5612 53.3987C50.6282 53.7337 50.7622 54.3367 50.8292 54.7387C50.8962 54.3367 51.0637 53.7337 51.1642 53.3652L51.7337 51.3552H52.8727L53.4422 53.3652C53.5427 53.734 53.6767 54.3032 53.7772 54.7387C53.8442 54.4037 53.9447 53.8675 54.0787 53.3652L54.5475 51.355ZM58.6346 51.2545C57.1944 51.2545 56.1559 52.4605 56.1559 54.102C56.1559 55.7435 57.1944 56.9495 58.6346 56.9495C60.0751 56.9495 61.1136 55.7435 61.1136 54.102C61.1136 52.4272 60.0751 51.2545 58.6346 51.2545ZM58.6346 55.6767C57.9646 55.6767 57.5291 55.0402 57.5291 54.1022C57.5291 53.1307 57.9646 52.528 58.6346 52.528C59.3048 52.528 59.7403 53.1642 59.7403 54.1022C59.7403 55.0402 59.3046 55.6767 58.6346 55.6767ZM104.295 52.896C104.035 52.6978 103.717 52.5917 103.39 52.5945C102.72 52.5945 102.419 52.9965 102.419 53.8673V56.8155H101.079V51.355H102.419V51.824C102.754 51.422 103.156 51.221 103.625 51.221C103.993 51.221 104.395 51.355 104.63 51.556L104.295 52.896ZM93.7088 51.355H95.0488L93.5078 56.8155H92.3353L91.7324 54.5375C91.6319 54.1355 91.4978 53.6663 91.4309 53.365C91.3639 53.5995 91.2299 54.2695 91.1294 54.6045L90.5264 56.8157H89.3539V56.7822L87.8131 51.3552H89.1864L89.6889 53.3987C89.7561 53.7337 89.8899 54.3367 89.9571 54.7387C90.0241 54.3367 90.1914 53.7337 90.2919 53.3652L90.8616 51.3552H92.0006L92.5701 53.3652C92.6706 53.734 92.8046 54.3032 92.9051 54.7387C92.9721 54.4037 93.0726 53.8675 93.2066 53.3652L93.7088 51.355ZM97.7623 51.2545C96.3218 51.2545 95.2833 52.4605 95.2833 54.102C95.2833 55.7435 96.3218 56.9495 97.7623 56.9495C99.2028 56.9495 100.241 55.7435 100.241 54.102C100.241 52.4605 99.2028 51.2545 97.7623 51.2545ZM97.7623 55.6767C97.0923 55.6767 96.6568 55.0737 96.6568 54.1022C96.6568 53.1307 97.0923 52.528 97.7623 52.528C98.4325 52.528 98.8678 53.1642 98.8678 54.1022C98.8678 55.0402 98.4323 55.6767 97.7623 55.6767ZM69.187 53.164L70.862 56.8157H69.388L68.2491 54.2695L67.5456 55.1742V56.8157H66.2056V49.7805L67.5456 49.1106V53.4655C67.7077 53.2382 67.8753 53.0148 68.048 52.7955L69.12 51.3885H70.661L69.187 53.164ZM75.5853 56.8157H74.2453V51.355H75.5853V51.824C75.9203 51.4555 76.3893 51.2545 76.9588 51.2545C78.2652 51.2545 78.9687 52.1257 78.9687 53.7335V56.8155H77.6288V53.8003C77.6288 52.8958 77.3272 52.4603 76.6573 52.4603C75.987 52.4603 75.6188 52.9295 75.6188 53.8003V56.8155H75.5853V56.8157ZM83.1899 51.757C82.8549 51.422 82.4529 51.2545 81.9839 51.2545C80.6772 51.2545 79.84 52.3265 79.84 54.035C79.84 55.844 80.6439 56.9495 81.9504 56.9495C82.4194 56.9495 82.8549 56.782 83.1899 56.4137V56.5475C83.1899 57.1505 83.1899 57.9545 81.4479 57.988H81.3807L81.8499 59.06H81.8834C83.6587 59.0265 84.5299 58.1553 84.5299 56.3463V51.3883H83.1899V51.757ZM83.1899 53.0302V55.1742C82.9889 55.4422 82.7207 55.71 82.2182 55.71C81.7492 55.71 81.2132 55.4085 81.2132 54.0352C81.2132 52.7622 81.7492 52.5277 82.2182 52.5277C82.7207 52.494 83.0222 52.7955 83.1899 53.0302ZM71.666 51.355H73.006V56.8157H71.666V51.355ZM73.006 49.9145V50.5848H71.666V49.2448H73.006V49.9145ZM105.3 49.7805L106.64 49.1106V56.8157H105.3V49.7805ZM9.59105 45.7271H19.7412V39.8311H9.59105V35.2082H20.8467L17.1285 28.7092H1.18262V56.8157H23.6609V50.35H9.59105V45.7271ZM38.6353 28.7092L33.8783 37.8881L29.1212 28.7092H19.7747L29.5902 45.7271V56.8157H37.9986V45.7271L47.8138 28.7092H38.6353Z" fill="#121045"/>
<path d="M56.2557 0L0.679688 20.3008L56.2557 10.4854V0Z" fill="#121045"/>
</g>
</svg>
