<svg width="191" height="33" viewBox="0 0 191 33" fill="none" xmlns="http://www.w3.org/2000/svg">
<g opacity="0.35">
<path d="M143.017 7.66797V25.3478H157.186V22.2799H146.907V17.9469H157.186V14.8474H146.907V10.7358H157.186V7.66797H143.017Z" fill="#121045"/>
<path d="M68.6602 7.66797V25.3478H82.8293V22.2799H72.5503V17.9469H82.8293V14.8474H72.5503V10.7358H82.8293V7.66797H68.6602Z" fill="#121045"/>
<path d="M181.064 10.799H175.435V7.63623H190.679V10.799H184.796V25.3477H181.064V10.799Z" fill="#121045"/>
<path d="M132.706 20.8249L127.425 7.63623H123.187L130.904 25.3477H134.794L142.131 7.63623H138.178L132.706 20.8249Z" fill="#121045"/>
<path d="M118.727 20.3505L111.453 7.63623H106.74V25.3477H110.567L110.409 11.9376L118.031 25.3477H122.333V7.63623H118.537L118.727 20.3505Z" fill="#121045"/>
<path d="M100.509 25.3477V7.63623H104.241V25.3477H100.509Z" fill="#121045"/>
<path d="M89.661 10.799H84.0312V7.63623H99.3074V10.799H93.4246V25.3477H89.661V10.799Z" fill="#121045"/>
<path d="M51.6761 7.63623L56.1039 21.4575L60.7532 7.63623H66.2247V25.3477H62.6508V12.0957L58.0332 25.3477H54.143L49.7784 12.0957V25.3477H46.1729V7.63623H51.6761Z" fill="#121045"/>
<path d="M169.299 15.0372H164.365C162.816 15.0372 162.025 14.4047 162.025 13.1079C162.025 11.4949 162.911 10.7675 164.871 10.7675H174.075V7.60474H164.334C162.183 7.60474 160.602 8.04752 159.621 8.90147C158.609 9.75541 158.135 11.147 158.135 13.0131C158.135 16.5553 159.938 18.1051 164.049 18.1051H168.445C170.375 18.1051 171.07 18.6744 171.07 20.1293C171.07 21.5841 170.28 22.1218 168.192 22.1218H158.862V25.2846H168.793C173.063 25.2846 174.992 23.6399 174.992 19.9711C174.992 18.1684 174.549 16.9032 173.696 16.1442C172.81 15.4168 171.323 15.0372 169.299 15.0372Z" fill="#121045"/>
<path d="M28.556 1.24753C28.556 1.24753 26.2156 0.298702 25.8993 0.140564C25.583 0.0140538 25.2667 -0.0175699 24.9188 0.0456853C24.5709 0.10894 24.3179 0.298702 24.1914 0.45684C24.0649 0.58335 19.0677 5.58051 19.0677 5.58051C19.0677 5.58051 14.1022 0.678235 13.9441 0.48847C13.7859 0.330332 13.5962 0.172196 13.185 0.0456853C12.7739 -0.0491975 12.4259 0.0140538 12.2362 0.140564C12.0148 0.235447 9.89574 1.12102 9.57947 1.24753C9.29482 1.34241 9.01017 1.59543 8.8204 1.88008C8.69389 2.1331 8.56738 2.38612 8.56738 2.7024C8.56738 2.41775 8.56738 9.66047 8.56738 9.66047L13.1534 12.3172V6.27631L15.3041 8.427C15.4622 8.58513 15.652 8.68002 15.8734 8.7749C16.0315 8.83816 16.158 8.86978 16.411 8.86978C16.664 8.86978 21.6296 8.86978 21.6296 8.86978C21.8193 8.86978 22.0091 8.83816 22.1672 8.7749C22.357 8.68002 22.5468 8.58513 22.7682 8.36374C22.9896 8.14234 24.8872 6.24469 24.8872 6.24469V12.2856L29.4732 9.62884C29.4732 9.62884 29.4732 3.42984 29.4732 2.73403C29.5048 2.03822 29.1253 1.50055 28.556 1.24753Z" fill="#121045"/>
<path d="M27.7027 32.6536C27.7027 32.6536 29.6952 31.1355 29.9799 30.9141C30.2645 30.6927 30.4227 30.4397 30.5492 30.1234C30.6441 29.7755 30.6124 29.4908 30.5808 29.3011C30.5176 29.1113 28.7148 22.3114 28.7148 22.3114C28.7148 22.3114 35.4831 20.5086 35.7045 20.4453C35.9259 20.3821 36.1473 20.3188 36.4636 20.0025C36.7482 19.7179 36.8747 19.37 36.9063 19.117C36.938 18.8639 37.2226 16.5868 37.2859 16.2705C37.3491 15.9542 37.2859 15.6063 37.0961 15.3217C36.9696 15.0686 36.7798 14.8789 36.4952 14.7207C36.7482 14.8789 30.4859 11.2417 30.4859 11.2417L25.8999 13.8984L31.1501 16.9347L28.2087 17.7254C27.9874 17.7886 27.7976 17.8835 27.6078 18.01C27.4813 18.1049 27.3548 18.2314 27.2599 18.4528C27.1334 18.6742 24.6348 22.9755 24.6348 22.9755C24.5399 23.1337 24.4767 23.2918 24.4451 23.4816C24.4134 23.703 24.4134 23.9244 24.5083 24.1774C24.6032 24.4304 25.299 27.0555 25.299 27.0555L20.0488 24.0192V29.2694C20.0488 29.2694 25.4255 32.3689 26.0264 32.7168C26.5641 33.0964 27.2283 33.0015 27.7027 32.6536Z" fill="#121045"/>
<path d="M0.945587 16.2389C0.945587 16.2389 1.26186 18.7375 1.32512 19.0854C1.38837 19.4333 1.51488 19.7179 1.7679 20.0026C2.02093 20.2556 2.30557 20.3821 2.49534 20.4454C2.6851 20.5086 9.48504 22.3114 9.48504 22.3114C9.48504 22.3114 7.68226 29.0797 7.61901 29.2695C7.55575 29.4909 7.52413 29.7123 7.61901 30.1234C7.71389 30.5346 7.99854 30.7876 8.18831 30.9141C8.37807 31.0406 10.2125 32.4639 10.4655 32.6536C10.7185 32.8434 11.0664 32.9699 11.4143 32.9699C11.6673 32.9699 11.9836 32.9066 12.2366 32.7485C11.9836 32.9066 18.2459 29.2695 18.2459 29.2695V23.956L12.9641 26.9607L13.7548 24.0193C13.818 23.7979 13.818 23.5765 13.7864 23.3551C13.7548 23.1653 13.7231 23.0705 13.5966 22.8174C13.4701 22.596 10.9715 18.2947 10.9715 18.2947C10.8767 18.1366 10.7501 18.01 10.6236 17.8835C10.4655 17.757 10.2757 17.6305 9.99108 17.5673C9.73806 17.4724 7.11297 16.7766 7.11297 16.7766L12.3315 13.7719L7.74552 11.1152C7.74552 11.1152 2.36883 14.2147 1.7679 14.5626C1.13535 14.9738 0.850704 15.6063 0.945587 16.2389Z" fill="#121045"/>
</g>
</svg>
