<svg width="129" height="37" viewBox="0 0 129 37" fill="none" xmlns="http://www.w3.org/2000/svg">
<g opacity="0.35">
<path d="M41.6659 12.1113C38.3429 7.15458 35.4229 5.48446 34.6015 4.69851C33.6991 3.83162 33.0114 2.84919 32.5739 2.37617C31.6005 1.31279 30.3407 0.000156403 28.2685 0.000156403C26.2682 0.000156403 24.9464 1.30369 24.5171 2.42984C24.3925 2.75095 24.2942 3.14392 24.2051 3.28674C24.0086 3.60875 23.1244 5.11786 22.7578 5.71642H24.4107L23.6065 7.23462C24.5444 7.02904 25.2139 6.87713 26.1072 6.87713C26.9022 6.87713 27.4735 7.06543 27.7236 7.56483C28.1884 8.4945 28.1884 11.3071 28.9744 13.4248C29.7066 15.4151 31.4932 17.3627 33.5026 18.8545C33.529 18.8718 33.5563 18.8809 33.5918 18.8809C33.69 18.8809 33.7528 18.81 33.7528 18.7381C33.7528 18.6844 33.7346 18.649 33.69 18.6044C32.0108 16.9252 30.6445 15.0676 29.9122 13.0318C29.1881 11.0488 29.3046 8.26162 28.6706 7.01995C28.2503 6.19853 27.3579 5.98477 26.5356 5.98477C25.8752 5.98477 25.2584 6.11848 24.9728 6.18034L25.696 4.95686H24.4725C24.7318 4.50203 24.9992 4.08177 25.1338 3.83162C25.2494 3.61694 25.2948 3.3495 25.4376 2.98382C25.9016 1.8131 26.9286 1.07173 28.2685 1.07173C29.9477 1.07173 30.9301 2.1524 31.9035 3.23306C32.3501 3.73337 33.0824 4.77856 33.9311 5.55541C34.5114 6.09119 35.6194 6.68974 37.325 8.44992C38.3074 9.46782 39.4508 10.7895 40.6561 12.5579C44.9706 18.8718 47.8015 24.4362 49.3824 28.777L49.3561 28.7952C44.8278 25.7224 40.9063 22.8197 37.7452 19.2384C35.503 16.6932 33.5563 13.7459 31.8589 9.98542C31.7425 9.73526 31.6451 9.5033 31.5378 9.26224C31.4932 9.164 31.4486 9.13671 31.3768 9.13671C31.2876 9.13671 31.2249 9.19948 31.2249 9.28862C31.2249 9.38687 31.2694 9.60154 31.3677 10.03C32.27 13.9242 34.7707 17.4164 37.4414 20.3191C40.1031 23.2045 43.1122 25.6869 45.5865 27.4917L47.5158 33.0105C47.5604 33.1452 47.6141 33.288 47.6141 33.4217C47.6141 33.52 47.5868 33.6 47.5249 33.6537C47.4713 33.7073 47.4003 33.7346 47.2393 33.7346H46.6589C46.4088 33.7346 46.3096 33.6982 46.2205 33.6273C46.1313 33.5554 46.0695 33.4481 46.024 33.3235C45.8548 32.805 44.836 29.9023 44.6404 29.3128C44.604 29.2064 44.5413 29.17 44.4703 29.17C44.3812 29.17 44.3184 29.2419 44.3184 29.3219C44.3184 29.3938 44.3448 29.4738 44.3903 29.724C44.6486 31.0457 44.9524 32.5284 45.077 33.0915C45.1316 33.3498 45.1935 33.5918 45.1935 33.7701C45.1935 33.9302 45.158 34.0203 45.0243 34.154L44.4257 34.7616C44.2829 34.9044 44.202 34.9399 44.0864 34.9399C43.9436 34.9399 43.8272 34.8417 43.7735 34.5915C43.0949 31.4205 42.0679 27.4917 41.7996 26.401C41.7368 26.1609 41.6922 26.0262 41.5494 26.0262C41.4248 26.0262 41.3802 26.1154 41.3802 26.2227C41.3802 26.3028 41.3975 26.401 41.4066 26.4729C41.5676 27.5981 42.2198 31.6979 42.9248 35.4402C43.0503 36.0834 43.2914 36.4399 43.8454 36.4399C44.0955 36.4399 44.3357 36.3417 44.5595 36.1279C44.926 35.7613 45.0325 35.6631 45.4709 35.2347C45.7829 34.9308 45.9976 34.8062 46.5334 34.8062H47.8551C48.168 34.8062 48.3372 34.7262 48.4892 34.5824C48.632 34.4487 48.7211 34.2613 48.7211 33.993C48.7211 33.7164 48.6502 33.4936 48.5519 33.2161C48.2126 32.3056 47.1229 29.2237 46.8008 28.3577L46.8281 28.3395C47.9443 29.1882 49.5698 30.2689 50.2848 30.2689C50.5077 30.2689 50.6423 30.1706 50.6423 29.8222C50.6423 28.1794 47.9088 21.4179 41.6659 12.1113Z" fill="#121045"/>
<path d="M68.6595 9.5058C68.4794 9.72412 68.3775 9.96791 68.3775 10.3918V22.0472H68.3129C68.3129 22.0472 61.9335 10.6738 61.6251 10.148C61.4068 9.77506 61.163 9.51854 60.8419 9.32569C60.5208 9.14649 60.187 9.03096 59.5457 9.03096H57.4407C56.9522 9.03096 56.6448 9.19743 56.4265 9.45486C56.2463 9.67227 56.1436 9.91696 56.1436 10.34V26.8611C56.1436 27.285 56.2463 27.5288 56.4265 27.7471C56.6448 28.0036 56.9522 28.1701 57.4407 28.1701H58.6342C59.1218 28.1701 59.4301 28.0036 59.6484 27.7471C59.8276 27.5288 59.9304 27.285 59.9304 26.8611V14.9228H59.995C59.995 14.9228 66.6182 26.6555 66.8884 27.0921C67.2604 27.708 67.889 28.1701 68.7877 28.1701H70.829C71.3166 28.1701 71.6249 28.0036 71.8432 27.7471C72.0225 27.5288 72.1252 27.285 72.1252 26.8611V11.9573H98.9409C99.2111 11.9573 99.4157 11.8809 99.5704 11.7526C99.7368 11.598 99.8142 11.3924 99.8142 11.085V9.95517C99.8142 9.6468 99.7368 9.44122 99.5704 9.28749C99.4157 9.15922 99.2111 9.0819 98.9409 9.0819H69.6737C69.1862 9.0819 68.8778 9.24928 68.6595 9.5058ZM80.3667 13.9213C75.9121 13.9213 73.4088 17.4007 73.4088 21.072C73.4088 24.9872 76.0922 28.4275 80.3922 28.4275C82.5362 28.4275 84.6412 27.6188 85.8474 26.1934C86.374 25.5775 86.7979 24.717 86.7979 24.1912C86.7979 24.0111 86.7588 23.8574 86.6569 23.7419C86.5542 23.6136 86.3995 23.5363 86.1303 23.5363H84.0635C83.6524 23.5363 83.3704 23.69 83.1648 23.9984C82.5617 24.8844 81.6884 25.3465 80.4049 25.3465C78.4792 25.3465 77.2348 23.8829 77.1447 22.2782H86.0793C86.4768 22.2782 86.7588 22.1882 86.9517 21.9962C87.17 21.7907 87.2728 21.495 87.2728 20.9429C87.2728 19.2618 86.7461 17.5162 85.6427 16.1808C84.5129 14.8327 82.7927 13.9213 80.3667 13.9213ZM94.1397 13.9213C90.623 13.9213 88.3125 15.5905 88.3125 18.2603C88.3125 19.21 88.6591 19.9805 89.224 20.5836C89.8789 21.2904 90.8159 21.7779 92.1767 22.1245L95.1158 22.8686C95.9245 23.0742 96.6431 23.318 96.6431 24.0239C96.6431 25.1154 95.4879 25.4875 94.2562 25.4875C93.6522 25.4875 93.0236 25.372 92.5097 25.1154C92.1503 24.9353 91.8429 24.6788 91.6246 24.3322C91.4317 24.0366 91.368 23.8183 91.0724 23.6518C90.8923 23.549 90.674 23.5363 90.3792 23.5363H88.7874C88.4408 23.5363 88.2743 23.6391 88.1588 23.7801C88.0433 23.9211 88.0041 24.1267 88.0041 24.3322C88.0041 24.8453 88.1842 25.4875 88.6082 26.0651C89.5833 27.3741 91.6246 28.4275 94.2298 28.4275C96.7978 28.4275 100.354 27.3614 100.354 23.9211C100.354 23.036 100.096 22.2782 99.6213 21.6624C99.0182 20.8792 98.1586 20.3398 96.695 19.9677L93.7813 19.2227C92.5742 18.9152 92.0093 18.6969 92.0093 17.9519C92.0093 17.2333 92.6516 16.6557 94.1397 16.6557C95.013 16.6557 95.809 16.8485 96.3229 17.3879C96.7459 17.8373 96.6695 18.0684 97.0033 18.2476C97.208 18.3504 97.4391 18.3504 97.7993 18.3504H99.2493C99.4803 18.3504 99.6477 18.3122 99.775 18.1702C99.8787 18.0547 99.9424 17.8755 99.9424 17.5799C99.9424 16.9122 99.5058 16.0526 98.7362 15.3976C97.7092 14.5116 96.0919 13.9213 94.1397 13.9213ZM102.137 14.4097H101.419C101.15 14.4097 100.944 14.4862 100.79 14.6144C100.623 14.7691 100.546 14.9746 100.546 15.2821V16.1681C100.546 16.4765 100.623 16.6811 100.79 16.8358C100.944 16.964 101.15 17.0414 101.419 17.0414H102.137V23.4462C102.137 25.0891 102.587 26.1161 103.421 26.9384C104.191 27.6952 105.193 28.1701 106.939 28.1701H108.029C108.299 28.1701 108.504 28.0936 108.659 27.9654C108.825 27.8107 108.928 27.6052 108.928 27.2977V26.1806C108.928 25.8723 108.825 25.6676 108.659 25.513C108.504 25.3847 108.299 25.3074 108.029 25.3074H107.876C107.182 25.3074 106.708 25.1282 106.386 24.8198C106.002 24.4605 105.809 23.9083 105.809 23.1897V17.0414H108.146C108.415 17.0414 108.621 16.964 108.774 16.8358C108.941 16.6811 109.018 16.4765 109.018 16.1681V15.2821C109.018 14.9746 108.941 14.7691 108.774 14.6144C108.621 14.4862 108.415 14.4097 108.146 14.4097H105.822V10.2244C105.822 9.89058 105.719 9.6468 105.565 9.45486C105.372 9.22381 105.103 9.0819 104.705 9.0819H103.254C102.856 9.0819 102.587 9.22381 102.394 9.45486C102.24 9.6468 102.137 9.89058 102.137 10.2244V14.4097ZM109.994 27.0275C109.994 27.3614 110.096 27.6052 110.251 27.798C110.443 28.0291 110.713 28.1701 111.11 28.1701H112.638C113.036 28.1701 113.305 28.0291 113.498 27.798C113.652 27.6052 113.755 27.3614 113.755 27.0275V10.2253C113.755 9.89149 113.652 9.64771 113.498 9.45486C113.305 9.22381 113.036 9.0819 112.638 9.0819H111.11C110.713 9.0819 110.443 9.22381 110.251 9.45486C110.096 9.64771 109.994 9.89149 109.994 10.2253V27.0275ZM77.1702 19.5438C77.3366 17.9647 78.5438 16.7839 80.3794 16.7839C82.1769 16.7839 83.4213 17.9647 83.5887 19.5438H77.1702ZM127.657 11.9573C127.926 11.9573 128.132 11.8809 128.285 11.7526C128.453 11.598 128.53 11.3924 128.53 11.085V9.89058C128.53 9.42848 128.44 9.19743 128.285 9.03096C128.144 8.87632 127.913 8.78717 127.657 8.78717C127.451 8.78717 127.247 8.81265 126.9 8.85085L116.655 9.86511C116.361 9.89058 116.22 9.98064 116.117 10.0962C116.001 10.2244 115.95 10.3918 115.95 10.6229V11.2896C115.95 11.5471 116.001 11.6626 116.091 11.7654C116.206 11.8936 116.373 11.9573 116.605 11.9573H127.657ZM121.996 13.9213C117.541 13.9213 115.038 17.4007 115.038 21.072C115.038 24.9872 117.722 28.4275 122.022 28.4275C124.166 28.4275 126.271 27.6188 127.477 26.1934C128.003 25.5775 128.427 24.717 128.427 24.1912C128.427 24.0111 128.388 23.8574 128.285 23.7419C128.184 23.6136 128.029 23.5363 127.76 23.5363H125.693C125.282 23.5363 125 23.69 124.794 23.9984C124.191 24.8844 123.318 25.3465 122.034 25.3465C120.109 25.3465 118.863 23.8829 118.774 22.2782H127.734C128.132 22.2782 128.415 22.1882 128.606 21.9962C128.825 21.7907 128.928 21.495 128.928 20.9429C128.928 19.2618 128.401 17.5162 127.298 16.1808C126.168 14.8327 124.422 13.9213 121.996 13.9213ZM118.8 19.5438C118.967 17.9647 120.173 16.7839 122.009 16.7839C123.806 16.7839 125.051 17.9647 125.218 19.5438H118.8Z" fill="#121045"/>
<path d="M38.575 15.362C38.5122 15.282 38.4585 15.2456 38.3876 15.2456C38.2802 15.2456 38.2266 15.3174 38.2266 15.3975C38.2266 15.523 38.3157 15.6749 38.5395 16.0506C39.2181 17.2022 40.0577 18.363 41.0938 19.4536C42.2099 20.6407 43.5226 21.7478 44.9252 22.7393L45.3628 23.0431C45.4256 23.0886 45.4701 23.115 45.5238 23.115C45.6129 23.115 45.6757 23.0258 45.6757 22.954C45.6757 22.9094 45.6575 22.8639 45.6038 22.8194C44.3003 21.6323 42.8976 20.185 41.585 18.7923C40.5571 17.6935 39.5037 16.5327 38.575 15.362Z" fill="#121045"/>
<path d="M11.0041 1.73279C11.1915 1.32163 11.6026 1.036 12.0938 1.036C12.7633 1.036 13.2991 1.5545 13.2991 2.2422C13.2991 2.64335 13.1117 2.99266 12.817 3.20643C12.8798 3.4393 12.9243 3.64397 12.9243 3.84046C12.9243 4.59092 12.4777 5.11761 11.6563 5.39505C11.549 5.84988 11.3525 6.26104 11.0304 6.56487C10.4947 7.08246 9.94978 7.08246 9.94978 7.29714C9.94978 7.41357 10.0307 7.48452 10.2536 7.48452C11.2451 7.48452 12.2185 6.93146 12.3349 6.01089C13.2818 5.68978 13.8531 4.73374 13.8531 3.97508C13.8531 3.77769 13.8349 3.60849 13.7549 3.44839C14.0141 3.19733 14.3179 2.76888 14.3179 2.13486C14.3179 1.58088 14.076 1.01871 13.6475 0.60755C13.2727 0.240959 12.7451 -9.82285e-05 12.1293 -9.82285e-05C11.236 -9.82285e-05 10.6557 0.482927 10.3255 0.955947C9.35123 0.955947 8.09227 2.03661 8.09227 3.58211H7.95855C7.8685 3.04633 7.31543 2.68793 6.85059 2.66155C6.47582 1.53631 5.62711 0.572073 4.23352 0.572073C4.07343 0.572073 3.87694 0.581169 3.70683 0.60755C3.29658 0.231863 2.84085 -9.82285e-05 2.20682 -9.82285e-05C0.991522 -9.82285e-05 0 0.974139 0 2.20581C0 2.97447 0.348397 3.50115 1.00971 3.96599C1.00971 3.96599 1.00062 4.06423 1.00062 4.1088C1.00062 5.09123 2.07219 6.62763 3.66226 6.62763C3.66226 6.87688 3.97518 7.21709 4.32358 7.27894V7.40448H4.18895C2.00124 7.40448 1.07248 8.45876 1.07248 9.16374C0.420259 9.43209 0 10.1553 0 10.8248C0 12.1556 0.974238 13.1025 2.26049 13.1025C2.68893 13.1025 3.12648 12.9333 3.4303 12.7005C3.65317 12.7805 3.9388 12.8251 4.23352 12.8251C4.85027 12.8251 5.53797 12.6113 6.02008 11.9054C6.09194 11.9145 6.1538 11.9145 6.22566 11.9145C7.0116 11.9145 7.6902 11.396 8.0477 10.7174C8.13684 10.5482 8.17232 10.4145 8.17232 10.3154C8.17232 10.218 8.12775 10.1371 8.0295 10.1371C7.90488 10.1371 7.88669 10.2535 7.66382 10.4591C7.16352 10.9148 6.39486 11.084 5.60892 11.084C5.22505 11.6471 4.75203 11.9418 4.20714 11.9418C3.80508 11.9418 3.49307 11.8345 3.17105 11.6198C2.9118 11.9054 2.59069 12.0219 2.27777 12.0219C1.57279 12.0219 1.07248 11.5307 1.07248 10.8157C1.07248 10.3154 1.39359 9.86963 1.84023 9.69953C1.92028 8.81535 2.86723 8.21679 4.04614 8.21679C4.19805 8.21679 4.34996 8.22589 4.51097 8.24408C4.68926 7.95845 5.11771 7.65463 5.72535 7.57367C5.85089 7.55639 5.94822 7.54729 6.02008 7.51181C6.09194 7.47543 6.12742 7.40447 6.12742 7.32352C6.12742 7.25256 6.10013 7.1898 6.02918 7.14522C5.96641 7.10975 5.85907 7.09246 5.73445 7.06517C5.17138 6.95784 4.50187 6.60944 4.16257 5.76073C2.81356 5.76073 1.82203 4.68007 1.82203 3.46568V3.38563C1.3754 3.20643 1.07248 2.77798 1.07248 2.26858C1.07248 1.59907 1.59917 1.06329 2.26867 1.06329C2.67074 1.06329 3.01914 1.25977 3.24291 1.5545C3.4303 1.50083 3.64407 1.48264 3.84965 1.48264C4.85027 1.48264 5.92184 2.11666 6.12742 3.34924C7.41367 3.46568 7.71749 4.55544 7.79754 5.01118C7.84212 5.24314 7.87759 5.43962 8.0295 5.43962C8.19051 5.43962 8.22599 5.26042 8.27966 5.01937C8.3779 4.56454 8.54801 4.19795 8.88731 3.91232C8.88731 2.7416 9.76239 1.73279 11.0041 1.73279Z" fill="#121045"/>
<path d="M13.6027 8.73489C13.1824 9.33345 12.8795 9.62817 11.9234 10.7534C10.6645 12.2452 10.0032 13.4514 8.9043 16.1304C9.0835 16.1122 9.34275 16.0949 9.62838 16.0949C9.7712 16.0949 9.88672 16.0949 10.075 16.1031L10.2087 15.8175C10.8255 14.4957 11.6551 12.7092 12.8167 11.3338L13.2188 10.8608C14.415 9.45898 15.1563 8.62755 15.6212 6.71637C15.7822 6.03777 15.9159 5.43104 16.3716 4.99258C16.7819 4.59961 17.3004 4.43042 17.8271 4.43042C18.2737 4.43042 18.6048 4.53776 19.087 4.74243C19.5245 4.92982 19.6846 4.9662 20.1494 4.9662C20.3104 4.9662 20.426 4.95711 20.5333 4.94801L19.9084 5.78762L20.7571 6.38617C19.6937 6.69818 19.1315 7.72609 18.9432 8.19911C18.9077 8.29735 18.8905 8.36012 18.8905 8.42288C18.8905 8.49474 18.9259 8.5657 19.0333 8.5657C19.1488 8.5657 19.238 8.47655 19.3899 8.29735C19.9084 7.67242 20.3195 7.24306 22.2298 6.64542L20.8817 5.62661L21.8996 4.13569H20.9445C20.3368 4.13569 19.9347 4.12659 19.4081 3.88553C18.6931 3.55533 18.3274 3.41251 17.6934 3.41251C16.9165 3.41251 16.2106 3.68905 15.6303 4.22483C14.9599 4.84067 14.7543 5.663 14.5141 6.56537C14.3258 7.26126 14.103 8.02991 13.6027 8.73489Z" fill="#121045"/>
<path d="M15.657 14.8171C15.1476 15.5048 14.4508 16.4063 13.915 17.3623C14.0851 17.4433 14.6482 17.7471 14.8447 17.8535C15.4605 16.9248 16.3183 15.7822 16.8805 14.9153C17.3899 14.1294 17.5955 13.7901 17.631 12.7358C17.6401 12.5575 17.6401 12.3874 17.6574 12.2182C17.7019 11.6733 17.8456 11.1194 18.3632 10.6109C18.7471 10.2261 19.3011 10.0305 19.8551 10.0305C20.3909 10.0305 20.7029 10.1815 21.1677 10.1815C21.4979 10.1815 21.739 10.1015 21.9536 10.0214L22.1237 9.95864L21.7126 10.942L22.6768 11.334C22.061 11.7179 20.712 13.3707 20.712 15.3265C20.712 16.0324 20.8193 16.6837 20.9712 17.2641C20.9894 17.3268 21.0249 17.3896 21.1231 17.3896C21.2123 17.3896 21.275 17.3359 21.2841 17.2377L21.2932 17.0321C21.3196 16.4335 21.3642 15.4875 21.6052 14.6388C22.0073 13.2097 23.088 11.8698 24.1686 11.2267L22.6322 10.5572L23.2936 8.94074L22.5704 9.09265C22.1328 9.1818 21.8108 9.26185 21.427 9.26185C21.1768 9.26185 20.8912 9.22637 20.5519 9.14541C20.2926 9.08355 20.0152 9.02988 19.6231 9.02988C18.9172 9.02988 18.1577 9.29732 17.6401 9.79763C16.6931 10.7 16.6394 11.6733 16.5767 12.5402C16.4966 13.6919 16.282 13.9775 15.657 14.8171Z" fill="#121045"/>
<path d="M15.9881 22.8464C14.7828 22.8464 14.2461 22.2752 14.2461 21.552C14.2461 20.283 16.4702 19.0423 18.4705 18.2736L18.989 18.944C17.7564 19.4343 15.274 20.4895 15.274 21.4001C15.274 21.7212 15.4614 21.9541 16.2109 21.9541C17.5154 21.9541 18.9181 21.3191 20.2125 20.6851C20.3107 20.6405 20.4272 20.596 20.5345 20.596C20.7037 20.596 20.8111 20.6496 20.9357 20.8279L21.1504 21.1226C19.6412 21.9541 17.7564 22.8464 15.9881 22.8464Z" fill="#121045"/>
<path d="M19.3103 23.1863C18.1314 23.8468 16.9079 24.2852 15.8273 24.2852C14.6211 24.2852 13.5495 23.7667 12.6562 22.4177C12.2814 21.8464 11.9867 21.1324 11.6292 20.4983C11.2008 19.7479 10.7359 19.3458 9.92363 19.3458C9.18226 19.3458 8.45818 19.6496 7.69043 19.9798L7.72591 20.1499C7.78867 20.4265 7.89601 20.6229 8.15435 20.6229C8.27079 20.6229 8.38722 20.5702 8.44999 20.552C8.87844 20.4174 9.19045 20.3009 9.6289 20.3009C10.2984 20.3009 10.6195 20.6948 11.0752 21.659L11.2454 22.0165C10.7805 22.1775 9.69076 22.2576 8.87844 22.2576H8.49456L8.55733 22.6415C8.58371 22.8025 8.64647 22.9362 8.78019 22.999C8.94029 23.079 9.17316 23.0881 9.57523 23.0881C10.5931 23.0881 11.3345 22.9635 11.7629 22.8552C12.8618 24.4908 14.3709 25.1157 15.8273 25.1157C17.068 25.1157 18.3279 24.66 19.5341 23.9996L19.3103 23.1863Z" fill="#121045"/>
<path d="M20.5243 23.5881L20.3105 22.7658C22.1499 21.7752 23.8291 20.9801 26.5089 20.7209C26.5626 21.7479 26.4907 23.0432 27.2503 23.0432C27.9462 23.0432 29.4644 21.2476 31.2155 18.9971C31.3765 19.149 31.6348 19.31 31.8677 19.4883L31.421 20.0687C29.7145 22.2664 28.2591 24.1421 27.062 24.1421C25.9458 24.1421 25.5256 22.8286 25.5083 21.8461C23.8027 22.0162 22.1944 22.5875 20.5243 23.5881Z" fill="#121045"/>
<path d="M19.5068 11.5755C19.5068 11.4863 19.5159 11.379 19.5514 11.2717C19.6233 11.0397 19.7743 10.8159 20.15 10.8159C20.3201 10.8159 20.5065 10.8605 20.6585 10.9687C20.7931 11.0579 20.8468 11.1734 20.8468 11.2898C20.8468 11.6737 20.2036 12.1204 19.8816 12.1204C19.6497 12.1204 19.5068 11.8966 19.5068 11.5755Z" fill="#121045"/>
<path d="M9.83395 11.3162C9.96767 11.0933 10.3697 10.5484 10.5307 10.3783C9.84305 8.98563 8.71781 7.65481 8.22659 7.12721L7.81543 7.52928C8.28936 8.21697 9.08349 9.5478 9.83395 11.3162Z" fill="#121045"/>
<path d="M3.56416 10.3871C3.44773 10.4317 3.39406 10.459 3.3322 10.459C3.23396 10.459 3.18848 10.378 3.18848 10.3153C3.18848 10.2534 3.21577 10.2179 3.27853 10.1633C4.37648 9.30645 5.34162 8.96715 6.67245 8.74338L6.83255 9.28007L3.56416 10.3871Z" fill="#121045"/>
<path d="M44.1579 5.66269C43.4611 5.66269 43.2646 5.27791 43.2646 4.73393C43.2646 3.60869 43.9705 1.99224 44.4172 1.07167H43.3356C42.7734 2.16144 40.5584 5.65359 39.3613 7.10085L40.049 7.84131C40.6921 7.12723 41.398 5.91284 42.1658 4.71574H42.3086C42.3086 4.77851 42.3004 4.84946 42.3004 4.91223C42.3004 5.92194 42.818 6.6715 44.0952 6.6715C44.8811 6.6715 46.1137 6.27853 47.2753 5.88556C48.2395 5.55535 49.1237 5.21605 49.5613 5.09143V4.01986C49.061 4.17086 48.0431 4.56383 46.9888 4.93042C45.8817 5.31429 44.792 5.66269 44.1579 5.66269Z" fill="#121045"/>
<path d="M46.5418 8.90459C47.6134 8.44976 49.5336 7.68111 50.6416 7.27904V6.18928C48.4175 7.0116 44.5142 8.62805 41.8525 10.0753C41.9244 10.1635 42.3892 10.8158 42.442 10.8967C43.5672 10.4319 44.5769 10.1281 45.4875 10.1281C46.7656 10.1281 47.8099 10.1281 49.5609 9.71691V8.89549C48.5785 9.07469 47.5333 9.28846 46.8547 9.28846C46.4527 9.28846 46.3362 9.23479 46.3362 9.10107C46.3362 9.02102 46.3899 8.96735 46.5418 8.90459Z" fill="#121045"/>
<path d="M17.4082 6.06471C17.4082 5.68084 17.6402 5.26058 18.0868 5.26058C18.2833 5.26058 18.5153 5.34062 18.6854 5.50254C18.7836 5.59169 18.8282 5.68902 18.8282 5.78817C18.8282 6.00285 18.6226 6.20752 18.3815 6.35034C18.1941 6.45768 17.9977 6.52954 17.8285 6.52954C17.551 6.52954 17.4082 6.35853 17.4082 6.06471Z" fill="#121045"/>
<path d="M9.61981 6.24316L9.1377 5.94844C9.44971 5.20707 9.83449 4.52847 10.2893 4.01906C10.6113 3.65338 10.9152 3.35775 11.2545 3.06393C11.3345 3.00116 11.3791 2.94749 11.4591 2.94749C11.5492 2.94749 11.612 3.01935 11.612 3.09031C11.612 3.12578 11.5938 3.17036 11.5583 3.22403C11.0134 4.07273 9.95002 5.75195 9.61981 6.24316Z" fill="#121045"/>
<path d="M3.2877 3.25151C3.20674 3.17965 3.18945 3.13508 3.18945 3.08141C3.18945 3.01955 3.23403 2.94769 3.33227 2.94769C3.36775 2.94769 3.40322 2.95679 3.4487 2.97498C4.10911 3.24242 4.67219 3.55534 5.1725 3.93921C5.59185 4.26032 6.00301 4.6542 6.40417 5.12722L6.02939 5.55566C5.56547 5.17088 4.06454 3.91283 3.2877 3.25151Z" fill="#121045"/>
<path d="M26.4727 3.45707C26.4727 3.14415 26.6337 2.58108 27.214 2.58108C27.4105 2.58108 27.5979 2.62565 27.7498 2.69751C27.9645 2.79575 28.1073 2.93857 28.1073 3.09048C28.1073 3.25149 27.9463 3.4125 27.7052 3.60898C27.4551 3.81366 27.134 4.00195 26.8747 4.00195C26.5627 4.00195 26.4727 3.70632 26.4727 3.45707Z" fill="#121045"/>
<path d="M7.21725 18.8276C7.69937 18.8276 8.09234 18.6665 8.46802 18.5155C8.82461 18.3718 9.1821 18.229 9.66422 18.229C10.8077 18.229 12.2185 18.783 13.4602 19.3097C13.5321 19.337 13.6121 19.3542 13.6922 19.3542C13.8896 19.3542 14.0415 19.2651 14.1388 19.0777L14.2998 18.783C12.9335 17.9879 10.754 17.1392 9.61965 17.1392C9.10205 17.1392 8.72637 17.2739 8.36978 17.4158C7.96771 17.5777 7.61932 17.7469 7.25273 17.7469C6.35126 17.7469 4.03802 16.8536 4.03802 15.9876C4.03802 14.9697 7.71756 14.5767 8.11963 14.5767L8.48531 13.7453C5.81548 13.7453 2.63533 14.6832 2.63533 15.9248C2.63533 16.2823 2.84091 16.4606 2.84091 16.7908C2.84091 17.2375 2.63533 17.5413 2.63533 18.0416C2.63533 18.3718 2.83182 18.7921 3.06378 19.1587C3.31393 19.5425 3.60866 19.7918 3.60866 20.1138C3.60866 20.3549 3.44856 20.6405 3.44856 21.2036C3.44856 22.4089 4.13626 23.142 5.47527 24.5793L5.74361 24.8649C4.63657 25.2943 2.57256 26.1876 2.09045 26.3922C0.420326 27.089 0.000976562 27.9377 0.000976562 29.2776C0.000976562 29.7952 0.000976593 30.3847 0.036453 30.9114H0.357561C1.02797 30.9114 1.10802 30.5102 1.10802 30.1263C1.10802 29.8671 1.09893 29.5724 1.09893 29.2504C1.10802 28.5099 1.13531 27.8486 2.33151 27.3128C2.81453 27.0981 5.18054 26.1339 6.94072 25.3834C7.45831 25.1596 7.94043 24.9723 8.47621 24.9723C9.07476 24.9723 9.76246 25.2315 10.6203 25.7409C11.3434 26.1694 12.103 26.7497 12.7015 27.4192L13.4602 26.8389C12.808 26.0711 11.9065 25.3834 11.0041 24.8476C10.1018 24.3118 9.29854 23.9989 8.61994 23.9989C8.32521 23.9989 8.08415 24.0526 7.87857 24.1063C7.63751 24.169 7.41374 24.24 7.12811 24.24C6.7979 24.24 6.52046 24.1599 6.11839 23.6951C5.96648 23.5259 5.00225 22.427 4.79667 22.1059C4.69842 21.954 4.52013 21.6502 4.52013 21.2927C4.52013 21.1408 4.54651 20.9625 4.63657 20.8015C5.46617 21.4446 6.49408 21.8376 7.74394 21.9895L7.57475 21.1408C5.77909 20.6678 3.86791 19.0868 3.86791 18.0689C3.86791 17.8542 3.92158 17.7023 4.00254 17.5149C4.69842 18.158 6.33307 18.8276 7.21725 18.8276Z" fill="#121045"/>
<path d="M36.6556 22.1772C35.3156 24.9998 33.2789 27.0538 31.1895 28.2418C30.1979 28.804 29.3047 29.1706 27.3762 29.1706H23.2045C21.7136 29.1706 20.7758 29.3671 20.0435 29.5545C19.2566 29.76 18.7572 29.9647 17.9622 29.9647C16.7833 29.9647 15.6935 29.3844 15.1668 28.8313L16.1493 28.0544L15.6581 27.4013C15.3724 27.6078 11.8803 30.1885 11.1471 30.7688L11.1025 30.7425C11.1207 30.5642 11.1207 30.4032 11.1207 30.2422C11.1207 28.2773 10.2092 27.8034 8.82565 27.2503L7.8878 27.8034C9.78988 28.4383 10.2629 28.9468 10.2629 30.3668C10.2629 31.4929 9.86083 31.9387 9.28048 32.2789C8.68192 32.6273 7.94056 32.7874 7.28924 32.7874C7.0118 32.7874 6.88718 32.841 6.78894 32.9393C6.6816 33.0466 6.62793 33.2076 6.62793 33.4305V33.7434H6.8517C8.0479 33.7434 9.15585 33.556 10.3702 32.6L14.3272 29.5099C14.8894 30.153 16.3103 31.0463 17.9886 31.0463C18.9355 31.0463 19.5432 30.8134 20.4183 30.5906C21.0969 30.4204 21.7582 30.2685 23.2045 30.2685H27.3935C29.5375 30.2685 30.5736 29.8219 31.7162 29.1797C34.1995 27.7861 36.3163 25.4283 37.5134 22.7211C37.2004 22.5256 36.9057 22.3464 36.6556 22.1772Z" fill="#121045"/>
<path d="M29.9295 25.5356C31.0102 23.8027 31.9744 22.2663 34.3413 21.0164C34.0912 20.8645 33.7346 20.6325 33.5463 20.507C32.6267 20.9091 31.7161 21.7123 30.9392 22.5255C29.1527 24.383 29.3128 25.4546 27.4289 26.1787C26.955 26.357 26.3746 26.5535 25.6332 26.7236C25.1957 25.3746 24.0977 24.0346 22.9361 24.0346C22.132 24.0346 21.2032 24.454 20.1317 24.9279C18.8727 25.4819 17.7202 26.1159 17.3545 26.357L17.8457 27.0183C18.2205 26.8118 19.3011 26.276 20.3818 25.8121C21.3197 25.41 22.1684 25.0798 22.7396 25.0798C23.6593 25.0798 24.2578 26.125 24.589 26.9637C23.3828 27.2503 21.3997 27.3212 20.8021 27.3212C20.5246 27.3212 20.4264 27.3658 20.3281 27.4467C20.239 27.5268 20.1671 27.6696 20.1226 27.8661L20.0516 28.1699H20.6938C24.035 28.1699 27.1878 27.6432 29.2145 26.4107C29.5011 26.4916 29.7512 26.5444 30.0723 26.5444C31.2331 26.5444 32.4302 25.9103 33.1806 25.33C33.4481 25.1244 33.5108 24.9361 33.5108 24.7314C33.5108 24.6332 33.5017 24.544 33.4926 24.454L33.4572 24.1065C32.3856 24.9543 31.4923 25.5892 30.3853 25.5892C30.1888 25.5892 30.046 25.571 29.9295 25.5356Z" fill="#121045"/>
<path d="M20.0693 18.9887C21.1946 18.1937 22.3553 18.1045 23.2931 18.1045C23.8562 18.1045 24.5166 18.1846 25.2134 18.2737C25.7765 18.3456 26.285 18.3993 26.8926 18.3993C28.1161 18.3993 29.3487 17.9526 29.8845 17.7197C30.0364 17.908 30.2957 18.1582 30.5012 18.3365C30.242 18.4975 28.5992 19.3899 26.9199 19.3899C26.1786 19.3899 25.4727 19.3016 24.865 19.2207C24.3292 19.1497 23.7489 19.087 23.1858 19.087C22.57 19.087 21.3283 19.2652 20.5605 19.6318L20.0693 18.9887Z" fill="#121045"/>
<path d="M23.6598 13.924L23.2305 14.7463H27.7951L27.4558 13.924H23.6598Z" fill="#121045"/>
</g>
</svg>
