<svg width="71" height="50" viewBox="0 0 71 50" fill="none" xmlns="http://www.w3.org/2000/svg">
<path d="M67.758 16.4036C67.758 16.2247 67.8179 16.0307 67.9 15.871C68.0034 15.7043 68.119 15.483 68.119 15.2728C68.119 15.1859 68.0987 15.099 68.0521 15.0191C67.8807 14.722 67.4792 14.7382 67.1902 14.7483L67.0157 14.7493C66.9366 14.7301 66.7359 14.6513 66.5391 14.5735C66.1873 14.431 65.7938 14.2703 65.5139 14.2369C65.2868 14.2066 65.0069 14.2804 64.6845 14.3643C64.3437 14.4532 63.9574 14.5533 63.6491 14.5159C63.3692 14.4825 62.9809 14.3259 62.6422 14.1864C61.7001 13.8256 60.8341 14.0227 60.2338 14.2491C59.3648 14.6007 58.7127 15.1768 58.3071 15.9559C57.5141 17.489 57.8478 19.4687 58.4907 20.6611C58.7624 21.1503 59.7035 22.7369 60.2004 23.415C60.2145 23.4342 60.2338 23.4503 60.2521 23.4665C60.2419 23.4695 60.2338 23.4705 60.2338 23.4705C59.525 23.7575 59.4205 24.5963 59.4205 25.0713C59.4205 25.234 59.4317 25.3573 59.4368 25.3967C59.4662 25.6604 59.5564 25.8242 59.7014 25.8838C59.7968 25.9252 59.9053 25.9101 59.9904 25.8484C59.9945 25.8444 60.4163 25.5341 60.9984 25.5887C61.4841 25.6352 62.3968 25.9788 62.3968 26.959C62.3968 27.8807 61.6362 28.9084 60.6202 28.9084C59.743 28.9084 59.2279 28.489 59.0991 28.0151C59.02 27.0823 58.7138 26.287 58.5728 26.0637C58.5069 25.9626 58.4258 25.8858 58.3406 25.8039C58.0597 25.5321 57.6318 25.1238 57.5304 23.3301C57.4188 21.3524 56.6116 19.4707 56.0215 18.2388C56.1452 18.2681 56.277 18.2772 56.4169 18.2621C57.0822 18.1822 57.1065 17.4374 57.1288 16.7209L57.144 16.3672C57.1694 15.8175 57.3438 15.776 57.6358 15.7093L57.8133 15.6639C58.1925 15.5466 58.2666 15.3738 58.2666 15.0757C58.2666 14.9858 58.2595 14.8817 58.2514 14.7655L58.2412 14.5906C58.2412 14.5735 58.2402 14.5533 58.2402 14.5381C58.2402 14.2551 58.4004 14.1642 58.6935 14.1005L58.7503 14.0864C58.9257 14.0439 59.0159 13.9934 59.1944 13.9004L59.2735 13.856C59.4814 13.7428 59.5382 13.572 59.5382 13.3982C59.5382 13.2314 59.4834 13.0627 59.4439 12.9414L59.4317 12.907C59.4074 12.8424 59.3962 12.7959 59.3962 12.7474C59.3962 12.6503 59.4581 12.5594 59.6741 12.3361C59.9215 12.0733 59.9965 11.8449 59.9965 11.664C59.9965 11.466 59.9053 11.3255 59.8637 11.2568L59.8505 11.2406C59.7988 11.1507 59.7349 11.0203 59.7187 10.8081C59.739 10.709 60.0158 10.4746 60.1507 10.3594L60.4376 10.1017C60.5685 9.95414 60.6303 9.76213 60.6303 9.59236C60.6303 9.46503 60.5968 9.34477 60.5309 9.26796C60.4346 9.14872 60.2774 9.11941 60.1446 9.19621L60.1669 9.1851C59.6203 9.44987 58.9805 8.94256 58.4795 8.47264C58.2798 8.28063 58.0719 7.79051 57.8883 7.35697C57.7251 6.96891 57.5841 6.6334 57.4269 6.43432C57.289 6.25949 57.1146 6.08972 56.9443 5.92701C56.71 5.69964 56.4727 5.46721 56.3257 5.22062C56.1999 5.01144 56.1361 4.66784 56.0772 4.36568C56.0184 4.04735 55.9576 3.75024 55.8349 3.55217C55.7183 3.36319 55.5631 3.31367 55.4566 3.30256C55.1595 3.27831 54.9202 3.53196 54.8726 3.58249C54.5136 3.94023 53.246 4.36164 52.9033 4.36164L52.2817 4.34951C51.8101 4.33941 51.2778 4.32728 51.007 4.34244C50.7393 4.35659 50.4736 4.492 50.213 4.62237C50.0356 4.71332 49.85 4.80629 49.7172 4.82751C49.5823 4.85075 49.4079 4.84267 49.2071 4.82852C48.915 4.81336 48.552 4.79416 48.1646 4.87197C47.8929 4.92958 47.7043 5.05085 47.6059 5.23275C47.4508 5.52076 47.5795 5.84516 47.6434 5.99977C47.6444 6.00382 47.7104 6.14631 47.7104 6.14631C47.8178 6.36964 47.8675 6.51112 47.7996 6.56771C47.4508 6.86483 47.5917 7.34181 47.6374 7.49845C47.6891 7.67025 47.7783 7.90572 47.9882 8.01081C48.1211 8.07852 48.2752 8.08155 48.4466 8.01788L48.4293 8.02496C48.7447 7.93906 49.4332 7.96837 49.6888 8.16947C49.7587 8.22303 49.7628 8.26447 49.7628 8.30489C49.7526 8.56764 49.7212 8.58179 49.2963 8.66364L48.911 8.74853C48.4293 8.87283 48.2437 9.11032 48.1758 9.28818C48.115 9.44785 48.121 9.62267 48.2001 9.73485L48.3107 9.86824C48.4182 9.99052 48.5987 10.1987 48.8157 10.4978C49.0377 10.8091 49.2659 10.8717 49.418 10.8697C49.6087 10.8667 49.7628 10.7606 49.8561 10.6494C50.3509 10.2846 50.8874 10.2048 51.2534 10.1805C51.5566 10.1573 52.2644 9.98648 52.7218 9.84803C52.7228 9.89856 52.7228 9.94707 52.7228 9.99659C52.7228 10.1765 52.7116 10.3523 52.6741 10.4614L52.6548 10.5201C52.1853 11.9177 51.1084 12.6877 49.4555 12.812L48.4212 12.8737C46.3617 12.9848 44.9866 13.0596 44.9866 15.1697V15.1707C44.655 15.197 44.3458 15.1626 44.072 15.0909L44.0527 15.107C43.9685 14.9888 43.8823 14.8686 43.7951 14.7533C43.0721 13.8165 42.2568 13.0253 41.3807 12.3927C40.8138 11.1648 41.0643 9.66916 41.6717 9.19419C41.8127 9.28312 41.977 9.33668 42.1554 9.33668C42.6543 9.33668 43.0549 8.93346 43.0549 8.43424C43.0549 8.31398 43.0346 8.19878 42.9869 8.09368C43.0812 8.11794 43.1756 8.1341 43.2739 8.1341C43.8529 8.1341 44.3255 7.66217 44.3255 7.08412C44.3255 6.89615 44.2758 6.7193 44.1876 6.5657C44.2586 6.57782 44.3316 6.5859 44.4086 6.5859C45.1043 6.5859 45.6701 6.02201 45.6701 5.32876C45.6701 4.84469 45.3892 4.42126 44.9826 4.21409C45.5028 4.05745 45.877 3.57642 45.877 3.0105C45.877 2.31927 45.3121 1.75436 44.6155 1.75436C44.4147 1.75436 44.221 1.80287 44.0527 1.88978C44.1034 1.74628 44.1318 1.5957 44.1318 1.43502C44.1318 0.684166 43.5193 0.0737801 42.7679 0.0737801C42.2538 0.0737801 41.8086 0.358761 41.5744 0.775116C41.4537 0.329456 41.044 1.14441e-05 40.5593 1.14441e-05C40.0168 1.14441e-05 39.5696 0.412327 39.5128 0.936813C39.3485 0.746826 39.1031 0.624542 38.8294 0.624542C38.4531 0.624542 38.1347 0.851925 37.9978 1.17531H37.7575C37.2434 1.17531 37.1369 0.757938 37.1369 0.645767C37.1369 0.315308 36.8357 0.0848999 36.4007 0.0848999H35.3106C34.8756 0.0848999 34.5734 0.315308 34.5734 0.645767C34.5734 0.757938 34.469 1.17531 33.9518 1.17531H33.748C33.6111 0.851925 33.2906 0.624542 32.9144 0.624542C32.6447 0.624542 32.3993 0.746826 32.233 0.936813C32.1772 0.412327 31.727 1.14441e-05 31.1865 1.14441e-05C30.7008 1.14441e-05 30.2931 0.329456 30.1704 0.775116C29.9392 0.358761 29.492 0.0737801 28.9789 0.0737801C28.2245 0.0737801 27.614 0.684166 27.614 1.43502C27.614 1.5957 27.6414 1.74628 27.6931 1.88978C27.5228 1.80287 27.3331 1.75436 27.1283 1.75436C26.4337 1.75436 25.8689 2.31927 25.8689 3.0105C25.8689 3.57642 26.2451 4.05745 26.7622 4.21409C26.3536 4.42126 26.0767 4.84469 26.0767 5.32876C26.0767 6.02201 26.6405 6.5859 27.3372 6.5859C27.4143 6.5859 27.4852 6.57782 27.5572 6.5657C27.468 6.7193 27.4203 6.89615 27.4203 7.08412C27.4203 7.66217 27.8909 8.1341 28.4719 8.1341C28.5703 8.1341 28.6646 8.11794 28.7548 8.09368C28.7112 8.19878 28.6879 8.31398 28.6879 8.43424C28.6879 8.93346 29.0915 9.33668 29.5884 9.33668C29.7881 9.33668 29.9686 9.27302 30.1177 9.16489C30.7535 9.6439 30.8701 11.1971 30.3459 12.3664C29.4484 13.003 28.624 13.8024 27.8929 14.7533C26.9863 15.9327 26.2643 17.299 25.7603 18.7552C25.8689 17.8578 25.7827 17.0645 25.4957 16.3874C24.582 14.2198 22.6432 13.4022 21.3503 12.7575L20.683 12.4108C19.6396 11.8156 19.1356 11.1486 18.802 10.708L18.5687 10.4129C18.5566 10.3988 18.5485 10.3887 18.5393 10.3776C18.5647 10.3826 18.5911 10.3937 18.6174 10.3988C18.9926 10.4574 19.5615 10.6575 19.8627 10.8869L20.2652 11.2244C20.609 11.5205 20.8432 11.7196 20.97 11.7924C21.33 11.9925 21.9313 11.951 22.1808 11.7398C22.2903 11.6479 22.3237 11.5185 22.3237 11.3922C22.3237 11.2244 22.2629 11.0577 22.2365 10.9809C22.2132 10.9213 22.199 10.8748 22.1869 10.8333C22.2041 10.8414 22.2203 10.8495 22.2335 10.8556L22.4505 10.9445C22.8308 11.0526 23.1837 10.798 23.3652 10.5009C23.5812 10.1492 23.5386 9.53981 22.9433 9.03452C22.6391 8.77885 21.7599 7.92087 21.0582 7.22964C20.5015 6.68292 20.0604 6.24939 19.9215 6.13115C19.7917 6.02201 19.5848 5.78452 19.4956 5.66124C19.5676 5.46923 19.6223 5.24184 19.4976 5.0751C19.3607 4.90027 19.1386 4.92958 19.02 4.94373C19.02 4.94373 18.9571 4.9508 18.951 4.9508C18.9368 4.94777 18.9237 4.94373 18.9237 4.94373C18.9034 4.93867 18.879 4.93463 18.8577 4.9316L18.8385 4.93666C18.8304 4.93565 18.8182 4.93463 18.802 4.93261C18.9419 4.61327 19.1021 4.14639 19.2644 3.51276C19.4408 2.8094 19.3414 2.18588 18.9865 1.80085C18.735 1.52597 18.3639 1.40471 17.9684 1.46837C17.3326 1.57145 16.8236 2.06057 16.491 2.46884L16.3622 2.0727L16.1087 2.15455L14.8989 2.54261L15.0378 2.9721C14.5227 2.82658 13.7916 2.70632 13.1953 3.00343C12.8353 3.18331 12.6041 3.49861 12.5615 3.86848C12.4987 4.38589 12.7816 4.94878 13.3403 5.41769C13.5472 5.58948 13.7277 5.73198 13.891 5.84819C13.8575 5.87143 13.825 5.89367 13.8007 5.91287C13.6314 6.05637 13.4732 6.22008 13.3312 6.36864L13.1446 6.5657C12.304 7.31251 11.2129 7.84003 10.1613 7.97342C10.0224 7.98555 9.90779 8.08863 9.88446 8.23112C9.84086 8.48578 10.1136 8.78693 10.5588 8.97793C11.007 9.16792 11.1003 9.75405 10.8782 10.9384L10.8681 10.9859C10.8468 11.091 10.8093 11.2659 10.9472 11.3952C11.0983 11.5357 11.3224 11.5074 11.7077 11.4003L11.7797 11.3811C11.8304 11.3669 11.8842 11.3508 11.9328 11.3396C11.9176 11.4013 11.8994 11.4872 11.8821 11.5519L11.8568 11.666L11.8355 11.7843C11.7838 12.0541 11.7199 12.3896 11.7199 12.6968C11.7199 12.8767 11.7422 13.0435 11.799 13.188C11.9521 13.5639 12.3202 14.1601 12.5321 14.3714C12.6629 14.5007 12.7998 14.5623 12.9418 14.5563C13.1517 14.5452 13.3018 14.3966 13.3941 14.2844C13.3941 14.2844 13.4012 14.2764 13.4052 14.2723C13.4316 14.3289 13.462 14.4057 13.5087 14.526L13.5147 14.5522C13.6587 14.9646 13.9609 15.8246 15.1301 16.1732C15.34 16.2359 15.5834 16.2924 15.7984 16.1732C15.9525 16.0843 16.0559 15.9246 16.1188 15.677C16.1482 15.5547 16.1604 15.4234 16.1726 15.295C16.1766 15.2647 16.1786 15.2293 16.1827 15.196C16.206 15.2152 16.2253 15.2415 16.2557 15.2748C16.6755 15.8468 17.3113 17.113 17.3113 18.5107C17.3113 18.8704 17.2698 19.2383 17.1724 19.6031C17.0112 20.1872 16.8195 20.6258 16.6492 21.0128C16.5224 21.2907 16.4321 21.5616 16.3328 21.8193C15.9779 22.1891 15.1261 22.659 14.5602 22.9713L14.2185 23.1623C13.6739 23.4705 12.0596 25.0521 11.944 27.1389C11.9399 27.1783 11.9399 27.2157 11.9369 27.2521C10.9817 27.5775 10.3519 27.528 10.0122 27.1086C9.28618 26.2153 9.83477 25.3239 10.6288 24.2517L10.8762 23.9122L11.1236 23.5787C11.1236 23.5787 11.3396 23.3099 11.3558 23.2826C11.369 23.3382 11.3792 23.3927 11.3913 23.4584L11.4887 23.8829L11.5728 24.2184C11.6367 24.5104 11.8294 24.569 11.9075 24.5801C12.019 24.5963 12.2056 24.7863 12.6964 23.8717C12.8009 23.6767 13.0016 23.3412 13.2247 22.9946L13.5979 22.4115C13.9873 21.7758 13.897 21.3433 13.2825 20.9239C13.0402 20.7592 13.0584 20.6733 13.2673 20.267L13.3342 20.1437C13.5249 19.7587 14.3189 17.2636 13.1669 15.4951C12.3658 14.2592 11.2331 13.1122 9.69585 13.4618C8.82073 13.6619 8.23968 13.9924 7.6779 14.3138C7.12727 14.6301 6.60605 14.9312 5.84755 15.0424C5.36588 15.1101 4.18959 15.5002 4.14091 15.5133C3.98374 15.5669 3.7718 15.6376 3.75659 15.863C3.75659 15.871 3.75659 15.8751 3.75659 15.8822C3.75659 16.1247 4.02531 16.248 4.36096 16.3996C4.75441 16.5754 4.92072 16.7169 5.00387 16.8159C4.82134 17.11 4.08108 17.9164 3.92492 18.0266C3.78194 18.1105 3.69676 18.2489 3.69676 18.3965C3.69676 18.4207 3.69676 18.445 3.70183 18.4692C3.75051 18.7148 4.00604 18.8785 4.46541 18.9553C4.46744 18.9553 4.46946 18.9563 4.47149 18.9563L4.46541 19.0351C4.41572 19.5475 4.34068 20.3196 4.6743 20.835L4.74427 20.9431C5.01806 21.3625 5.58796 22.2376 5.61027 22.5438C5.61838 22.6459 5.5839 22.7803 5.55043 22.9117C5.49466 23.134 5.43484 23.3644 5.55449 23.5585C5.5981 23.6332 5.68733 23.7272 5.86378 23.7666C6.39311 23.8899 6.59186 23.4655 6.75309 23.1229L6.84233 22.939C7.05629 22.5065 7.35442 21.9143 7.71542 21.316L7.95068 20.9552C8.36847 20.3337 8.93532 19.2554 8.81059 18.3793C8.8978 18.3823 8.96675 18.3853 8.98703 18.3884C9.08844 18.4025 9.19694 18.4157 9.29936 18.3894L9.40076 18.3682C9.58126 18.3338 9.83275 18.2873 9.88953 18.0508C9.94733 17.8194 9.74757 17.6264 9.54476 17.4698C9.29023 17.2727 9.0063 16.4491 9.15131 15.9206C9.25576 15.5345 9.44234 15.3263 9.71207 15.2809C10.2657 15.1869 11.1297 15.774 11.5333 16.3632C11.8842 16.8715 12.0342 17.4859 12.0342 18.0003C12.0342 18.1812 12.019 18.349 11.9856 18.4925C11.8608 19.0564 11.7493 19.1119 11.7462 19.1119C11.726 19.118 11.6489 19.0938 11.6012 19.0796L11.4187 19.0331C11.0232 18.9604 10.5517 19.0644 10.2505 19.2908L10.1512 19.3595C9.9159 19.5172 9.59445 19.7314 9.63805 20.0558C9.6776 20.3499 9.99297 20.4904 10.2252 20.5712C10.4067 20.6318 10.4564 20.7339 10.4787 20.8067C10.5852 21.1826 10.215 21.8698 9.93314 22.2164L9.78914 22.3923L9.44234 22.8521C8.046 24.6367 7.59272 26.3618 8.19709 27.5856C8.56113 28.3223 9.47175 29.1995 11.7402 29.2035C11.6448 29.6977 11.514 30.0201 11.3102 30.3434C10.7555 31.2277 9.81551 31.3166 9.31153 31.3651L9.14725 31.3823L9.0205 31.3904C8.87042 31.4005 8.66558 31.4126 8.50942 31.5864C8.31168 31.8067 8.25692 32.2282 8.31371 33.0892C8.39078 34.2331 8.25996 34.8597 8.15856 35.3175C8.12307 35.4963 8.08149 35.6904 8.06628 35.848C8.06222 35.9491 8.02673 36.1128 7.99428 36.2492C7.95271 36.423 7.90606 36.613 7.90606 36.7919C7.90606 36.9354 7.9375 37.0698 8.01659 37.187C8.11495 37.3285 8.2701 37.4134 8.47596 37.4427L8.99514 37.472C9.10162 37.475 9.24055 37.4771 9.32775 37.4892C9.3237 37.4953 9.32167 37.5094 9.32167 37.5094C9.30443 37.5458 9.29125 37.5842 9.27807 37.6206H3.49902C3.49902 37.6206 5.20972 40.5755 5.33445 40.7917C5.21884 41.0141 3.63389 44.0822 3.63389 44.0822H19.2127L20.0939 47.0745C24.9146 45.3201 30.6562 44.3146 35.8694 44.3146H35.8967C41.1099 44.3146 46.8616 45.3151 51.6834 47.0704L52.5575 44.0822H67.8949C67.8949 44.0822 66.31 41.0141 66.1974 40.7917C66.3191 40.5755 68.0338 37.6206 68.0338 37.6206H61.402C61.474 37.1335 61.4973 36.6252 61.474 36.4089C61.4578 36.229 61.3929 35.9076 61.329 35.5691C61.2621 35.2306 61.1819 34.8081 61.1819 34.6909C61.1819 34.3584 61.186 33.3165 61.2144 33.0882C61.2975 32.3989 60.5593 31.8492 60.2014 31.5864L60.0817 31.4955C59.7623 31.2358 59.45 30.9013 59.167 30.5607C60.0564 30.8679 61.6849 31.1681 63.0782 29.5057C63.4524 29.0499 63.712 28.4456 63.8661 28.0828L63.8925 28.0232C64.0294 27.6978 64.3833 27.1611 64.4887 27.0672C64.8203 26.7721 66.2258 24.9399 65.7786 24.2002C65.4764 23.6969 64.6713 23.989 64.4076 24.085C64.2575 24.1395 64.1835 24.0365 64.0821 23.6514C63.999 23.3321 63.8093 22.5145 63.7972 22.3943L63.7951 22.367C63.7789 22.2194 63.7465 21.9102 63.5021 21.7859C63.3479 21.7091 63.1695 21.7344 62.9697 21.8577C62.8703 21.9163 62.7872 21.9385 62.7213 21.9163C62.6422 21.892 62.5793 21.8031 62.5458 21.7283C62.4749 21.5646 62.3592 21.1685 62.2883 20.933L62.2295 20.7511L62.199 20.6258C62.1625 20.459 62.1118 20.2306 61.8898 20.1741C61.6738 20.1175 61.4933 20.2822 61.3412 20.4499C61.2225 20.5823 61.114 20.7107 61.0177 20.838C59.5869 19.5647 59.7532 18.3783 59.8505 17.6587C59.9945 16.7806 60.3535 16.1985 60.9193 15.9226C61.7508 15.5133 62.7852 15.8751 62.9119 15.9458L63.0346 16.0054C63.0873 16.0348 63.1928 16.0843 63.2486 16.1247C63.2323 16.1419 63.2131 16.1631 63.1725 16.1873L63.1492 16.2055L63.132 16.2247C62.7699 16.6189 62.629 17.0312 62.629 17.4394C62.629 18.4359 63.4788 19.4192 64.1156 20.0932C64.1156 20.0983 64.1156 20.0993 64.1156 20.1043C64.1156 21.0128 64.3356 22.4044 64.9593 22.9683C65.2036 23.1886 65.516 23.2896 65.8334 23.2583C66.3739 23.2058 67.1303 22.747 67.2611 22.6884C67.392 22.6287 67.7763 22.2498 67.1577 22.0861C66.5391 21.9264 66.7024 21.3716 66.7298 21.0927C66.7703 20.7289 66.9448 20.2701 67.2175 19.6779C67.3027 19.4929 67.3382 19.2878 67.3382 19.0776C67.3382 18.6875 67.2236 18.2873 67.1101 17.9942C67.2115 17.9841 67.3189 17.9609 67.4335 17.9225C67.756 17.8093 67.97 17.6153 68.0338 17.3788C68.047 17.3273 68.0551 17.2757 68.0551 17.2232C68.0551 17.0686 67.9933 16.9099 67.8736 16.7694C67.7915 16.6704 67.758 16.541 67.758 16.4036ZM15.6057 4.8548C15.6037 4.8548 15.6037 4.8548 15.6037 4.8548C15.3887 4.86692 15.2396 4.92958 15.1423 5.07005C15.1281 5.08925 15.119 5.10845 15.1088 5.12866C14.907 5.00335 14.5977 4.7881 14.1739 4.43036C14.0238 4.30404 13.9437 4.19995 13.897 4.12214C14.0806 4.0898 14.4254 4.10698 15.0764 4.34244L15.0906 4.34648L15.1088 4.34951C15.2488 4.38286 15.3816 4.40408 15.5063 4.41621L15.6493 4.8548C15.6331 4.8548 15.6219 4.8548 15.6057 4.8548ZM48.7031 24.5215C48.7295 24.2133 48.8258 24.1769 49.0377 24.0961L49.2122 24.0193L49.489 23.8839C49.8855 23.6929 49.4261 23.9051 49.9169 23.6524C49.919 23.6545 49.923 23.6575 49.923 23.6605C50.353 24.1365 51.3335 24.4003 51.8801 24.5145C52.3547 24.6145 52.8049 24.7994 53.1456 24.9824C53.1953 25.1451 53.2146 25.3391 53.2065 25.5351C52.7015 25.6726 50.9604 26.0849 49.7101 25.6564L49.6076 25.6119C49.3927 25.519 49.1047 25.3906 48.7822 25.5169C48.5084 25.6241 48.2813 25.8979 48.0906 26.3486C47.6019 27.4845 47.6414 28.6356 48.193 29.4248C48.404 29.729 48.6433 29.9837 48.8562 30.206C49.1432 30.5112 49.3927 30.775 49.4718 31.0569C49.5032 31.1721 49.4768 31.2287 49.4454 31.2671C49.3298 31.4207 48.9647 31.5197 48.5145 31.5197L48.121 31.5086C47.614 31.4894 46.9437 31.4662 46.2948 31.5713C45.9703 31.1792 45.6366 30.8659 45.3558 30.6001L45.2189 30.4667C45.9703 28.964 46.4773 27.2551 46.6771 25.4361C46.7501 25.428 46.82 25.4139 46.8839 25.3866C46.9123 25.424 46.9417 25.4624 46.9417 25.4624C47.1344 25.6938 47.5106 25.909 47.8554 25.8737C48.3046 25.8302 48.6433 25.136 48.7031 24.5215ZM45.95 18.732H45.9459L48.0845 18.8674C48.0947 19.2888 48.1738 19.8062 48.3705 20.4479C48.1444 20.5641 47.8929 20.6753 47.6779 20.741C47.4132 20.8249 46.9437 20.933 46.5523 21.1685C46.4053 20.3398 46.1903 19.5253 45.9165 18.733L45.95 18.732ZM36.8611 7.79961L37.5081 4.32425C38.0638 3.95842 39.4814 3.03981 40.8301 3.21363C41.3533 3.28336 41.7569 3.52589 41.9587 3.90284C42.2639 4.46977 42.1118 5.24184 41.5369 6.02302C40.4893 7.45298 39.7035 8.08458 39.4378 8.2392L39.4256 8.25638C38.588 8.01991 37.7271 7.86933 36.855 7.80264L36.8611 7.79961ZM30.1988 6.02302C29.6228 5.24184 29.4718 4.46977 29.776 3.90284C29.9808 3.52589 30.3793 3.28336 30.9076 3.21363C32.2543 3.03981 33.6709 3.96044 34.2286 4.32425L34.8756 7.79961V7.80264C34.0055 7.8663 33.1517 8.01688 32.3151 8.25133L32.2999 8.23819C32.0342 8.08458 31.2443 7.44994 30.1988 6.02302ZM17.2768 4.89118L16.9686 3.93113C17.0517 3.8513 17.1298 3.7654 17.2119 3.6694L17.2201 3.66131L17.2261 3.6512C17.6166 3.08529 17.8853 2.867 18.0506 2.78514C18.0536 2.8094 18.0577 2.82658 18.0577 2.8569C18.0577 2.94178 18.0465 3.05598 18.01 3.19645C17.7443 4.24947 17.5212 4.6062 17.5182 4.61024L17.507 4.62742L17.4969 4.64965C17.4634 4.72848 17.3864 4.81134 17.2768 4.89118ZM20.7418 38.6594L19.3516 37.6206H12.1945C12.1945 37.6105 12.1945 37.5943 12.1945 37.5842C12.1945 36.702 11.8629 36.423 11.6195 36.2169L11.5475 36.1562L11.079 35.7611C10.8164 35.5418 10.5193 35.2932 10.431 35.2043C10.359 35.1214 10.2465 34.6808 10.2465 34.3059C10.2465 34.2442 10.2515 34.1816 10.2586 34.122C10.2931 33.8441 10.3519 33.5874 10.3945 33.3974C10.3945 33.3974 10.4229 33.2771 10.4351 33.2165C10.502 33.1639 10.7809 33.0669 11.1419 33.1053C11.7168 33.168 12.2725 33.2125 12.7126 33.0356C13.1872 32.8446 13.53 32.4687 13.6232 32.0483C14.3158 32.1008 15.1463 31.5682 15.4627 31.1903C15.6331 30.9882 15.7781 30.6678 15.9403 30.2687L15.989 30.2899C16.5325 30.5314 17.0933 30.778 17.9512 30.6365C18.0252 30.6244 18.084 30.6193 18.1388 30.6163C17.9867 30.7113 17.79 30.9154 17.3194 31.5218C17.1105 31.7956 17.0031 32.0584 17.0031 32.309C17.0031 32.3727 17.0112 32.4343 17.0264 32.4939C17.1369 33.0073 17.6703 33.2893 18.0617 33.4944L18.1144 33.5237C18.4643 33.7097 18.879 33.8592 19.2836 34.0037L19.9134 34.2442C20.1354 34.3362 20.3017 34.4817 20.4964 34.6505C20.6993 34.8263 20.9294 35.0244 21.2529 35.1942C21.8461 35.5064 22.1777 35.6307 22.5691 35.5347C22.5691 35.5347 22.5915 35.5277 22.6128 35.5246C22.631 35.6105 22.6472 35.7369 22.6543 35.7894C22.7365 36.4321 23.4209 36.519 23.8742 36.5777L24.0679 36.6039L24.291 36.6534C24.3873 36.9192 24.51 37.1668 24.6753 37.3598C24.6753 37.3629 24.8366 37.4892 24.9593 37.5852C23.5224 37.8874 22.1098 38.2491 20.7418 38.6594ZM26.3536 30.6001C25.663 31.253 24.6713 32.1908 24.2251 33.9037C24.1166 33.8501 23.9919 33.7733 23.8408 33.649C23.3581 33.2488 22.8206 32.9962 22.2933 32.9204C21.767 32.8446 21.0623 32.5505 20.5056 32.3009C20.319 32.218 20.2014 32.119 20.176 32.0301C20.1496 31.931 20.2125 31.8067 20.2916 31.7037C20.3768 31.5864 20.8007 31.3793 21.3016 31.1105C21.8127 30.8376 23.2841 29.5835 23.1583 28.8003C23.1198 28.5669 22.9383 28.2435 22.6411 27.7301L22.4089 27.3269C22.1199 26.8074 21.5774 26.5952 20.9193 26.7438C20.2987 26.8843 18.8141 27.054 17.9096 26.952C18.5211 26.4477 19.2512 26.1607 20.104 26.092C21.1059 26.0152 21.9891 25.4614 22.7111 24.8419C23.1421 24.474 24.0375 23.3493 24.4178 22.6217C24.435 22.5863 24.4522 22.5519 24.4705 22.5166C24.4685 22.5752 24.4644 22.6318 24.4614 22.6985L24.4512 22.8399C24.4289 23.1997 24.5526 24.0223 24.4015 24.3043C24.2058 24.658 24.1541 24.755 23.856 24.8631C23.7383 24.9056 23.6876 24.8914 23.5893 24.8591C23.4676 24.8176 23.3003 24.7631 23.0488 24.854C22.342 25.1097 22.3643 25.4826 22.4008 25.998L22.417 26.3315C22.4241 26.571 22.4769 26.7458 22.5438 26.8721C22.5793 26.9277 22.6604 27.0399 22.7851 27.1339C23.0407 27.2966 23.356 27.2521 23.5639 27.1541C23.639 27.1177 23.8763 27.0348 24.1298 26.9499C24.4685 26.8347 24.8589 26.7023 25.1763 26.574C25.4359 27.9736 25.8759 29.2965 26.4753 30.4849L26.3536 30.6001ZM30.6146 36.6898C30.5548 36.6353 30.4959 36.5756 30.4878 36.5675L30.4432 36.5271C30.209 36.3058 29.5803 35.7177 28.7315 35.7621C28.5409 35.7743 28.3107 35.8106 28.0673 35.85C27.5532 35.9299 26.8565 36.0441 26.6192 35.846C26.5807 35.8157 26.5341 35.7621 26.53 35.6146C26.4296 34.1816 27.3169 33.1538 27.8239 32.6344C29.2578 34.4898 31.1317 35.848 33.247 36.4685H33.462C32.52 36.516 31.5668 36.5918 30.6146 36.6898ZM45.1834 35.6146C45.1793 35.7621 45.1296 35.8157 45.0962 35.846C44.8558 36.0441 44.1582 35.9299 43.6461 35.85C43.4017 35.8106 43.1755 35.7743 42.9809 35.7621C42.1331 35.7177 41.5044 36.3058 41.2681 36.5271C41.2134 36.5756 41.1535 36.6353 41.1039 36.6868C40.1567 36.5878 39.2117 36.515 38.2757 36.4675H38.444C40.5624 35.845 42.4404 34.4797 43.8742 32.6152C44.3772 33.1326 45.2848 34.1654 45.1834 35.6146ZM52.3811 37.6206L51.0577 38.6685C49.6725 38.2542 48.2438 37.8904 46.7896 37.5812C46.8788 37.5155 46.9802 37.4296 47.037 37.3598C47.471 36.8525 47.6373 35.9703 47.6749 35.37C47.681 35.3619 47.686 35.3599 47.6951 35.3498L47.9923 34.9264C48.2823 34.4989 48.6788 33.9097 49.0296 33.7592C49.5762 33.5267 50.5568 33.2438 50.9229 33.2438H51.0283C51.582 33.2498 52.7228 33.2589 53.0087 32.5536C53.2379 31.9796 52.9378 31.6774 52.7552 31.4955C52.6974 31.4379 52.6447 31.3823 52.6204 31.3378L52.5575 31.2216C52.3669 30.8982 52.0677 30.3849 52.6325 29.7876C52.6498 29.7826 52.6619 29.7765 52.6782 29.7664C52.7096 29.7432 52.737 29.7128 52.7512 29.6815C53.0564 30.4293 53.6435 31.54 54.5308 32.218C55.8663 33.2377 56.8753 33.3944 57.1552 33.4166C57.6115 33.455 58.2514 33.5661 58.4379 33.6268C58.5495 33.6632 58.8324 34.0159 58.8628 34.3766C58.9135 35.0032 58.7432 35.4347 58.3507 35.6641C57.6744 36.0613 56.926 36.9334 56.928 37.5094C56.928 37.5508 56.9311 37.5842 56.9382 37.6206H52.3811Z" fill="black"/>
<path d="M48.452 13.3666L49.4904 13.302C50.7813 13.208 52.4565 12.6744 53.1237 10.6745L53.1399 10.6239C53.2758 10.2399 53.1998 9.55982 53.1917 9.48301L53.1531 9.16468L52.855 9.28292C52.5417 9.40621 51.5296 9.66492 51.2143 9.68715C50.9689 9.70534 50.2175 9.75991 49.5451 10.2622L49.5117 10.2884L49.4853 10.3248C49.4721 10.346 49.4356 10.3753 49.4083 10.3774C49.3768 10.3774 49.3058 10.3339 49.2166 10.2106C48.9884 9.89229 48.7887 9.66492 48.6812 9.54264C48.6812 9.54264 48.6558 9.51232 48.6355 9.48706C48.6396 9.42844 48.7167 9.30717 49.0381 9.22532L49.393 9.14851C49.8068 9.06666 50.2337 8.98379 50.258 8.32288C50.258 8.31378 50.258 8.30469 50.258 8.2966C50.258 8.0955 50.1647 7.91865 49.9964 7.78222C49.5604 7.43964 48.6721 7.44671 48.2969 7.54979L48.2867 7.5508L48.2756 7.55484C48.238 7.57 48.2178 7.57 48.2117 7.57C48.2097 7.56798 48.165 7.53362 48.1153 7.36081C48.0778 7.24055 48.0626 7.15466 48.0626 7.09503C48.0626 6.98892 48.1032 6.95861 48.1214 6.94446C48.2756 6.81308 48.3273 6.65947 48.3273 6.50283C48.3273 6.28354 48.2218 6.06425 48.1589 5.93288L48.1052 5.82171C48.0778 5.75097 48.0251 5.62667 48.0251 5.53572C48.0251 5.50843 48.0322 5.48519 48.0413 5.46599C48.0667 5.4195 48.1448 5.37807 48.2654 5.35685C48.5889 5.28914 48.9033 5.30733 49.1801 5.32249C49.4022 5.33563 49.609 5.34674 49.7987 5.31541C50.0086 5.27903 50.2266 5.16989 50.4365 5.06176C50.6505 4.95363 50.8705 4.84246 51.0368 4.83539C51.2842 4.81922 51.8308 4.83539 52.2709 4.84449L52.9037 4.85459C53.3377 4.85459 54.7472 4.40287 55.2309 3.92083C55.2907 3.85716 55.3698 3.8036 55.4073 3.79854C55.4104 3.80461 55.4185 3.81269 55.4185 3.81269C55.4925 3.93295 55.5442 4.19974 55.596 4.45643C55.6568 4.80002 55.7339 5.19011 55.9002 5.47003C56.0776 5.7732 56.3463 6.0309 56.5999 6.28051C56.7641 6.43816 56.9203 6.58975 57.0389 6.74032C57.1556 6.88787 57.2965 7.22338 57.4334 7.54777C57.6453 8.048 57.8613 8.56541 58.1361 8.82816C58.4637 9.13538 59.2678 9.89331 60.0963 9.72454C60.0841 9.73869 60.0801 9.75385 60.0709 9.76799L59.8326 9.98628C59.5304 10.2399 59.2212 10.4986 59.2212 10.8028C59.2212 10.8139 59.2212 10.8261 59.2212 10.8372C59.2506 11.1636 59.353 11.3667 59.428 11.492L59.4443 11.5203C59.4706 11.5618 59.5 11.6062 59.5 11.6679C59.5 11.7416 59.4585 11.8447 59.3145 11.9943C59.0011 12.3237 58.8957 12.5309 58.8957 12.736C58.8957 12.8411 58.923 12.9442 58.9636 13.0635L58.9727 13.0999C59.0021 13.1817 59.0518 13.3232 59.0518 13.3909C59.0518 13.402 59.0498 13.4091 59.0498 13.4162C59.0457 13.4162 59.0346 13.4232 59.0346 13.4232L58.9555 13.4667C58.7892 13.5576 58.7476 13.5809 58.63 13.6092L58.5874 13.6183C58.0286 13.7406 57.7427 14.0488 57.7427 14.5359C57.7427 14.5642 57.7427 14.5915 57.7447 14.6238L57.7589 14.7986C57.766 14.9078 57.7741 15.0189 57.7741 15.0907C57.7741 15.121 57.7721 15.1382 57.768 15.1543C57.7549 15.1624 57.7325 15.1735 57.6656 15.1927L57.5247 15.2291C57.1931 15.3049 56.6931 15.4232 56.6485 16.3408L56.6333 16.7046C56.612 17.4099 56.5775 17.7455 56.3585 17.7717C55.9468 17.8202 55.6436 17.4686 55.6 17.3685C55.5594 17.2765 55.4804 16.9653 55.4692 16.9249C55.1569 15.9769 55.2583 16.2033 54.8131 17.038C54.7462 17.1522 54.6823 17.3048 54.5819 17.4888C54.225 18.1466 54.0049 18.2366 53.8508 18.3457L53.7473 18.4023C53.7159 18.4175 53.6642 18.4175 53.6399 18.4114C53.5851 18.3862 53.5131 18.2851 53.4604 18.0668C53.3752 17.698 53.3002 17.2139 53.2636 16.7551C53.2353 16.0922 53.94 15.3989 52.5143 16.5338C52.5143 16.5338 52.3317 16.652 52.2303 16.7137C52.0448 16.8289 50.9587 17.3099 50.6505 17.4372C50.543 17.4817 50.1789 17.509 50.1749 17.416C50.1749 17.4029 50.1749 17.3635 50.1941 17.2957C50.1962 17.2816 50.1982 17.2725 50.2002 17.2604C50.3726 16.6601 50.6505 16.7874 49.6638 16.8834L49.1923 16.9067L49.0462 16.9178C48.7927 16.94 48.4459 16.9703 48.2695 16.8127C48.1762 16.7298 48.1255 16.5883 48.1214 16.3903C48.1032 15.4878 48.7765 15.026 49.2328 14.932C49.8372 14.8118 52.1675 14.5621 53.1987 14.4722C54.0455 14.4015 55.5838 14.0761 56.3899 12.7118C56.682 12.2156 57.045 10.1924 56.7793 9.01613C56.6972 8.6412 56.3088 8.05609 56.5461 9.12729C56.7844 10.153 56.2135 12.0408 55.962 12.4612C55.2684 13.6344 53.9045 13.9174 53.1551 13.9821C52.1381 14.071 49.7774 14.3226 49.1355 14.448C48.5808 14.5591 48.0281 14.9684 47.7756 15.595C47.5485 15.9143 47.0334 16.6379 46.5304 16.6237C45.9402 16.6075 45.4809 15.9062 45.4809 15.314C45.4332 13.5293 46.3134 13.4818 48.452 13.3666ZM45.0245 15.6627C45.1716 16.3872 45.7617 17.0977 46.5172 17.1169C46.9421 17.128 47.3132 16.8834 47.6377 16.5479C47.6692 16.8157 47.7706 17.03 47.9359 17.1775C48.091 17.3149 48.2715 17.3796 48.452 17.4089C48.3151 17.6434 48.1762 17.9476 48.1174 18.373L45.7263 18.2255C45.3764 17.319 44.9404 16.456 44.4273 15.6556C44.6159 15.6758 44.8177 15.6788 45.0245 15.6627ZM42.1558 8.84636C41.9297 8.84636 41.7471 8.66142 41.7471 8.43404C41.7471 8.21273 41.9297 8.02779 42.1558 8.02779C42.3809 8.02779 42.5675 8.21273 42.5675 8.43404C42.5675 8.66142 42.3809 8.84636 42.1558 8.84636ZM43.2743 7.64175C42.966 7.64175 42.7145 7.39113 42.7145 7.08392C42.7145 6.7767 42.966 6.52709 43.2743 6.52709C43.5815 6.52709 43.833 6.7767 43.833 7.08392C43.833 7.39113 43.5815 7.64175 43.2743 7.64175ZM45.1756 5.32855C45.1756 5.75097 44.8298 6.09558 44.409 6.09558C43.9831 6.09558 43.6414 5.75097 43.6414 5.32855C43.6414 4.90816 43.9831 4.56557 44.409 4.56557C44.8298 4.56557 45.1756 4.90816 45.1756 5.32855ZM44.6159 2.2453C45.0408 2.2453 45.3876 2.58788 45.3876 3.0103C45.3876 3.43373 45.0408 3.77732 44.6159 3.77732C44.1961 3.77732 43.8493 3.43373 43.8493 3.0103C43.8493 2.58788 44.1961 2.2453 44.6159 2.2453ZM42.7683 0.564716C43.25 0.564716 43.6414 0.956818 43.6414 1.43482C43.6414 1.91383 43.25 2.30391 42.7683 2.30391C42.2866 2.30391 41.8962 1.91383 41.8962 1.43482C41.8962 0.956818 42.2866 0.564716 42.7683 0.564716ZM40.5597 0.49094C40.867 0.49094 41.1164 0.740555 41.1164 1.04878C41.1164 1.35599 40.867 1.60661 40.5597 1.60661C40.2504 1.60661 39.9989 1.35599 39.9989 1.04878C39.9989 0.740555 40.2504 0.49094 40.5597 0.49094ZM38.8297 1.11547C39.0559 1.11547 39.2384 1.2994 39.2384 1.52375C39.2384 1.74809 39.0559 1.93303 38.8297 1.93303C38.6026 1.93303 38.4201 1.74809 38.4201 1.52375C38.4201 1.2994 38.6026 1.11547 38.8297 1.11547ZM37.9729 1.84511L37.981 1.83298C38.1077 2.17657 38.4403 2.42417 38.8297 2.42417C39.2759 2.42417 39.646 2.09977 39.7191 1.67735C39.9097 1.93101 40.2169 2.09674 40.5597 2.09674C40.9156 2.09674 41.231 1.91989 41.4206 1.65007C41.5261 2.29885 42.0899 2.79505 42.7683 2.79505C43.0015 2.79505 43.2246 2.73744 43.4132 2.63234C43.3767 2.75058 43.3554 2.87791 43.3554 3.0103C43.3554 3.49841 43.6353 3.91982 44.0399 4.12799C43.5237 4.28463 43.1475 4.76365 43.1475 5.32855C43.1475 5.59433 43.2307 5.83788 43.3686 6.04C43.3382 6.03798 43.3047 6.03393 43.2743 6.03393C42.6943 6.03393 42.2227 6.50587 42.2227 7.08392C42.2227 7.25268 42.2643 7.41336 42.3353 7.55484C42.2765 7.54271 42.2166 7.53564 42.1558 7.53564C41.6569 7.53564 41.2543 7.93886 41.2543 8.43404C41.2543 8.51792 41.2665 8.59776 41.2847 8.67052C41.2371 8.71801 41.158 8.79885 41.1063 8.85141C40.7351 8.69173 40.363 8.55026 39.9837 8.42393L40.001 8.40271C40.4269 8.09146 41.1042 7.41134 41.9591 6.24615C42.6192 5.3427 42.7835 4.42409 42.4093 3.7268C42.1335 3.21645 41.6011 2.88802 40.9035 2.79505C39.6288 2.63033 38.3653 3.27204 37.62 3.7268L37.9729 1.84511ZM40.6175 10.2753C39.1157 9.58306 37.5084 9.22936 35.8434 9.22936C34.2016 9.22936 32.6207 9.57194 31.1341 10.245C31.0865 9.88825 30.9841 9.56083 30.8431 9.28999C32.4331 8.60482 34.1185 8.25719 35.8606 8.25719C37.624 8.25719 39.3317 8.61291 40.941 9.31425C40.7848 9.58811 40.6763 9.91756 40.6175 10.2753ZM40.6996 11.9468C39.2151 11.0524 37.5662 10.5825 35.8434 10.5825C34.1347 10.5825 32.496 11.0454 31.0246 11.9225C31.126 11.5405 31.1747 11.1454 31.1707 10.7705C32.639 10.0732 34.2118 9.72151 35.8434 9.72151C37.4953 9.72151 39.0853 10.0853 40.5688 10.7957C40.5607 11.1747 40.6003 11.5668 40.6996 11.9468ZM35.0697 0.645561C35.0697 0.523281 35.2197 0.504082 35.311 0.504082H36.4011C36.4903 0.504082 36.6435 0.523281 36.6435 0.645561C36.6435 0.997242 36.9172 1.47524 37.5206 1.57529L36.3636 7.77111L36.3707 7.77818C36.2023 7.7701 36.032 7.76403 35.8606 7.76403C35.6973 7.76403 35.5341 7.7701 35.3718 7.77818V7.77111L34.2158 1.57124C34.8019 1.46412 35.0697 0.992188 35.0697 0.645561ZM32.9148 1.11547C33.142 1.11547 33.3285 1.2994 33.3285 1.52375C33.3285 1.74809 33.142 1.93303 32.9148 1.93303C32.6907 1.93303 32.5082 1.74809 32.5082 1.52375C32.5082 1.2994 32.6907 1.11547 32.9148 1.11547ZM31.1869 0.49094C31.4962 0.49094 31.7446 0.740555 31.7446 1.04878C31.7446 1.35599 31.4962 1.60661 31.1869 1.60661C30.8786 1.60661 30.6292 1.35599 30.6292 1.04878C30.6292 0.740555 30.8786 0.49094 31.1869 0.49094ZM28.9793 0.564716C29.4589 0.564716 29.8504 0.956818 29.8504 1.43482C29.8504 1.91383 29.4589 2.30391 28.9793 2.30391C28.4976 2.30391 28.1072 1.91383 28.1072 1.43482C28.1072 0.956818 28.4976 0.564716 28.9793 0.564716ZM26.3631 3.0103C26.3631 2.58788 26.7038 2.2453 27.1287 2.2453C27.5525 2.2453 27.8973 2.58788 27.8973 3.0103C27.8973 3.43373 27.5525 3.77732 27.1287 3.77732C26.7038 3.77732 26.3631 3.43373 26.3631 3.0103ZM27.3376 6.09558C26.9147 6.09558 26.5709 5.75097 26.5709 5.32855C26.5709 4.90816 26.9147 4.56557 27.3376 4.56557C27.7604 4.56557 28.1052 4.90816 28.1052 5.32855C28.1052 5.75097 27.7604 6.09558 27.3376 6.09558ZM28.4723 7.64175C28.165 7.64175 27.9125 7.39113 27.9125 7.08392C27.9125 6.7767 28.165 6.52709 28.4723 6.52709C28.7805 6.52709 29.03 6.7767 29.03 7.08392C29.03 7.39113 28.7805 7.64175 28.4723 7.64175ZM29.5887 8.84636C29.3657 8.84636 29.1801 8.66142 29.1801 8.43404C29.1801 8.21273 29.3657 8.02779 29.5887 8.02779C29.8169 8.02779 29.9994 8.21273 29.9994 8.43404C29.9994 8.66142 29.8169 8.84636 29.5887 8.84636ZM30.6292 8.84837C30.5663 8.75742 30.5105 8.68567 30.4689 8.63918C30.4841 8.5735 30.4943 8.5068 30.4943 8.43404C30.4943 7.93886 30.0877 7.53564 29.5887 7.53564C29.5299 7.53564 29.4681 7.54271 29.4082 7.55484C29.4843 7.41336 29.5259 7.25268 29.5259 7.08392C29.5259 6.50587 29.0523 6.03393 28.4723 6.03393C28.4398 6.03393 28.4084 6.03798 28.377 6.04C28.5179 5.83788 28.599 5.59433 28.599 5.32855C28.599 4.76365 28.2208 4.28463 27.7036 4.12799C28.1113 3.91982 28.3891 3.49841 28.3891 3.0103C28.3891 2.87791 28.3709 2.75058 28.3313 2.63234C28.525 2.73744 28.743 2.79505 28.9793 2.79505C29.6587 2.79505 30.2225 2.29885 30.326 1.65007C30.5156 1.91989 30.8309 2.09674 31.1869 2.09674C31.5317 2.09674 31.8338 1.93101 32.0275 1.67735C32.1005 2.09977 32.4707 2.42417 32.9148 2.42417C33.3042 2.42417 33.6317 2.18062 33.7615 1.84208L33.7646 1.84511L34.1154 3.7268C33.3701 3.27204 32.1066 2.63033 30.833 2.79505C30.1373 2.88802 29.6029 3.21645 29.3271 3.7268C28.9509 4.42409 29.1152 5.3427 29.7794 6.24615C30.6332 7.41134 31.3096 8.09146 31.7355 8.40271L31.7558 8.41989C31.3735 8.5452 30.9972 8.68769 30.6292 8.84837ZM28.2847 15.0513C30.256 12.4854 32.9412 11.0747 35.8434 11.0747C38.7415 11.0747 41.4267 12.4854 43.4011 15.0513C44.8004 16.8764 45.7435 19.1653 46.1106 21.5321L45.855 21.7706C45.5305 22.0566 45.1675 22.384 45.0357 22.8084L45.0205 22.8458C44.914 23.1854 44.8369 23.4269 44.8369 23.631C44.8369 23.7452 44.8603 23.8473 44.9221 23.9463C45.0752 24.2212 45.2933 24.297 45.4667 24.3303C45.5082 24.3344 45.5407 24.4647 45.5407 24.5628C45.5407 24.5749 45.5407 24.589 45.5387 24.6032C45.5305 24.6244 45.5305 24.6517 45.5305 24.678C45.5305 24.871 45.6208 25.157 46.0933 25.347C46.1227 25.3591 46.1542 25.3642 46.1856 25.3743C45.5082 31.5499 41.1296 36.3511 35.8434 36.3511C30.837 36.3511 26.648 32.0481 25.64 26.3515C26.0852 26.0655 26.0264 25.5552 25.9879 25.2459L25.9696 25.0489C25.9696 24.7406 25.8713 24.1727 25.9138 23.4006C25.9392 22.9388 25.998 22.3628 26.1004 21.8726C26.1674 21.5553 26.2312 21.2592 26.2596 21.0298C26.3266 20.47 26.2302 20.2153 25.9189 19.9182C26.4006 18.1396 27.2047 16.457 28.2847 15.0513ZM44.1697 32.2128C44.4628 31.8035 44.7294 31.372 44.9819 30.9223L45.0164 30.9597C45.2395 31.1699 45.494 31.4124 45.7516 31.7004C45.5529 31.7611 45.3632 31.8308 45.1898 31.9278C44.8217 32.1279 44.6392 32.3886 44.5723 32.6473C44.4273 32.4745 44.2853 32.33 44.1697 32.2128ZM42.9518 36.2551C43.1191 36.2662 43.3382 36.3006 43.5694 36.338C44.2387 36.4451 44.9992 36.5643 45.4119 36.2278C45.5823 36.0873 45.6705 35.8893 45.6786 35.6427C45.7009 35.3072 45.6786 34.9929 45.6208 34.6978C45.8135 34.8666 46.0477 34.9211 46.2972 34.8585C46.3174 34.9262 46.3448 35.0202 46.3661 35.0909L46.3844 35.1637C46.4482 35.4153 46.6754 35.6205 46.937 35.673C47.006 35.6882 47.077 35.6902 47.1419 35.6831C47.077 36.1641 46.9289 36.724 46.6612 37.0443C46.5902 37.1262 46.3043 37.3263 46.1126 37.4395C44.6929 37.1585 43.2591 36.9352 41.8222 36.7654C42.1122 36.5471 42.5716 36.2339 42.9518 36.2551ZM52.5477 29.081C52.5558 29.1124 52.565 29.1467 52.5751 29.1861C52.4838 29.2538 52.4007 29.3256 52.3317 29.3953C51.9322 29.5762 51.337 29.1578 51.0439 28.9507L51.0064 28.9244C50.3726 28.4353 49.7926 28.3322 50.7235 29.2033L50.7579 29.2286C51.0064 29.4044 51.4779 29.7874 51.9626 29.8885C51.6158 30.5908 51.9829 31.2184 52.1279 31.469L52.1776 31.559C52.2344 31.6752 52.3257 31.7631 52.4048 31.8419C52.5751 32.0127 52.6593 32.0966 52.5477 32.3705C52.3885 32.7626 51.4069 32.7545 51.0368 32.7524L50.9232 32.7504C50.4365 32.7504 49.3788 33.0748 48.8363 33.3073C48.3729 33.5033 47.9612 34.0884 47.6276 34.5816C47.5485 34.7069 47.2635 35.099 47.1885 35.1566C47.1419 35.1859 47.0912 35.2001 47.0334 35.1899C46.9441 35.1718 46.8792 35.099 46.862 35.0384L46.7403 34.6341C46.649 34.2289 46.7271 34.0126 46.2394 34.3603L46.2414 34.3613C46.1045 34.4158 46.0295 34.3876 45.9858 34.3603C45.8672 34.2835 45.7344 34.1561 45.7942 34.045C45.8033 34.0288 45.9007 33.8378 45.9007 33.8378C46.2039 33.285 45.9899 33.3052 45.5143 33.3547C45.4667 33.3578 45.4261 33.3649 45.4007 33.3699C45.3409 33.381 45.1503 33.2638 45.0671 33.0384C44.9718 32.7747 45.0965 32.5392 45.4261 32.3583C45.6299 32.2492 45.851 32.1714 46.0893 32.1158C46.2576 32.0602 46.499 32.043 46.6379 32.0238C47.1581 31.9703 47.6894 31.9864 48.1032 32.0006L48.5149 32.0137C48.882 32.0137 49.5451 31.9551 49.8402 31.566C49.9376 31.4397 50.0309 31.2275 49.9487 30.9263C49.8372 30.5241 49.533 30.2058 49.2146 29.8683C49.0067 29.647 48.7887 29.4165 48.599 29.1437C48.1448 28.4929 48.1255 27.5217 48.5433 26.5405C48.6792 26.2262 48.8231 26.0311 48.9661 25.9766C49.0858 25.927 49.2196 25.9806 49.4083 26.0635L49.5411 26.1191C50.7874 26.5455 52.4108 26.2403 53.1257 26.0655C53.0943 26.1665 53.0588 26.2615 53.0152 26.3414C52.7617 26.8052 52.3794 28.4515 52.5477 29.081ZM21.0332 27.2347C21.3364 27.166 21.7461 27.17 21.9672 27.5682L22.2045 27.9815C22.4052 28.3322 22.6354 28.7294 22.6608 28.8799C22.7186 29.2437 21.6903 30.3301 21.0626 30.6676C20.9156 30.7647 19.9817 31.2821 19.8782 31.4276C19.8154 31.5165 19.6764 31.7308 19.6764 31.9844C19.6764 32.043 19.6846 32.1037 19.7018 32.1673C19.7697 32.4048 19.9736 32.6019 20.3021 32.7494C21.1732 33.1405 21.7674 33.3426 22.2237 33.4063C22.6547 33.4689 23.1161 33.6903 23.5268 34.0288C23.8097 34.2653 24.046 34.3754 24.2275 34.435L24.479 34.4977C24.6372 34.6473 25.0519 35.4527 25.0519 35.9549C25.0519 35.9964 25.0499 36.0368 25.0438 36.0712C25.0377 36.1308 25.0154 36.2066 24.9718 36.2339C24.8866 36.2874 24.6676 36.2389 24.4891 36.1934L24.3025 36.152L24.1524 36.1197L23.9385 36.0873C23.4943 36.0318 23.1779 35.9701 23.1445 35.7225C23.1252 35.5932 23.111 35.482 23.0877 35.387C22.8768 34.529 22.9011 34.9029 22.53 35.0363C22.5006 35.0444 22.4742 35.0495 22.4488 35.0555C22.2572 35.103 22.0807 35.0717 21.4825 34.7574C21.2107 34.6139 21.013 34.4452 20.8233 34.2784C20.6155 34.0985 20.4005 33.9136 20.1125 33.7893L19.4493 33.5387C19.065 33.4012 18.6644 33.2557 18.3491 33.088L18.2943 33.0607C17.9871 32.898 17.5713 32.6777 17.5074 32.3897C17.476 32.233 17.5439 32.043 17.7153 31.8227C18.3034 31.0587 18.4109 31.0678 18.4687 31.0011C18.562 30.9597 18.8896 30.6848 18.8115 30.4494C18.7476 30.2543 18.5488 30.036 17.8704 30.1522C17.1586 30.2685 16.686 30.0603 16.1902 29.839L16.1273 29.8107C16.3037 29.3711 16.5045 28.882 16.7743 28.3787C16.9395 28.0654 17.1251 27.7895 17.3269 27.5389L17.4679 27.3843C18.3947 27.6107 20.2463 27.4116 21.0332 27.2347ZM24.8663 36.7452C24.9971 36.7452 25.1269 36.72 25.2415 36.6452C25.3957 36.5451 25.493 36.3794 25.5326 36.152C25.6421 35.4982 25.0955 34.2784 24.7021 34.0571C25.1188 32.4614 26.0477 31.5721 26.6977 30.9597L26.717 30.9395C26.9644 31.3902 27.2362 31.8217 27.5272 32.231C26.9826 32.7818 25.9169 33.9469 26.0355 35.6427C26.0457 35.8893 26.1339 36.0873 26.3053 36.2278C26.7149 36.5643 27.4755 36.4451 28.1447 36.338C28.3749 36.3006 28.595 36.2662 28.7623 36.2551C29.1152 36.2359 29.5969 36.5401 29.9153 36.7685C28.4702 36.9403 27.0202 37.1676 25.5924 37.4526C25.4099 37.3536 25.1898 37.202 25.056 37.0443C24.984 36.9584 24.9231 36.8574 24.8663 36.7452ZM13.648 5.05267C13.221 4.69593 12.9919 4.2725 13.0355 3.92284C13.0588 3.71265 13.1916 3.53883 13.4076 3.4307C13.8345 3.21645 14.4419 3.25587 15.2654 3.54489C15.3353 3.57217 15.4621 3.58936 15.6335 3.59643L15.743 3.60047C15.743 3.60047 15.5371 2.96482 15.4996 2.84861C15.602 2.81526 15.9529 2.70409 16.0523 2.66973C16.0908 2.78595 16.3017 3.4307 16.3017 3.4307L16.3869 3.35491C16.4893 3.26295 16.5826 3.1538 16.6465 3.05173C17.119 2.38779 17.5885 2.01287 18.0459 1.93909C18.2791 1.90069 18.491 1.96436 18.636 2.121C18.7912 2.29078 18.8743 2.55049 18.8743 2.85973C18.8743 3.02748 18.848 3.20837 18.8013 3.39634C18.6046 4.18155 18.418 4.63126 18.3197 4.84246C18.2781 4.83539 18.2345 4.82529 18.1888 4.8172C18.0996 4.80002 18.0175 4.798 17.9394 4.80002C17.9151 4.80002 17.8907 4.80508 17.8684 4.80609C17.9242 4.70806 18.1473 4.29878 18.3977 3.29427C18.4383 3.13966 18.4566 2.99009 18.4566 2.85669C18.4566 2.65559 18.413 2.49289 18.3298 2.40194C18.3115 2.38173 18.2578 2.32513 18.1108 2.34636C17.7569 2.40497 17.3502 2.76271 16.8959 3.42059C16.7469 3.59946 16.6221 3.71365 16.4964 3.8036C16.5471 3.95114 16.8128 4.72221 16.8128 4.72221C16.8128 4.72221 16.8675 4.88693 16.9142 5.02437C16.901 5.02437 16.8838 5.02639 16.8716 5.02437C16.6039 4.97586 16.3727 4.93241 16.1729 4.90007C16.1537 4.84247 16.1405 4.79901 16.1405 4.79901L15.8829 3.95316L15.8241 3.95518C15.6537 3.96327 15.4621 3.94205 15.2238 3.88747L15.2157 3.88546C14.4551 3.61563 13.8974 3.56308 13.5587 3.73286C13.4451 3.78945 13.3843 3.86525 13.3742 3.96226L13.3701 4.00874C13.3701 4.23511 13.5607 4.53828 13.868 4.79497C14.3223 5.17797 14.6579 5.4094 14.881 5.54785C14.8618 5.55492 14.8455 5.55997 14.8283 5.55593C14.7026 5.53268 14.5778 5.52966 14.4612 5.55391C14.4196 5.56401 14.3781 5.57715 14.3365 5.58928C14.1175 5.43466 13.8893 5.25579 13.648 5.05267ZM17.1809 15.8739C17.0034 15.508 16.8168 15.2008 16.6475 14.9745L16.6424 14.9664L16.6363 14.9603C16.612 14.931 16.5867 14.9017 16.5593 14.8724V14.8704C15.5939 13.6698 15.82 14.1347 15.7024 15.0402C15.6933 15.1068 15.6872 15.1786 15.6801 15.2514C15.672 15.3605 15.6598 15.4717 15.6385 15.5576C15.6061 15.6849 15.5706 15.7334 15.5533 15.7435C15.5371 15.7536 15.4753 15.7607 15.2735 15.7001C14.3456 15.4232 14.1083 14.7501 13.9806 14.3883L13.9745 14.3641C13.941 14.264 13.9015 14.1741 13.871 14.0943C13.4015 12.8927 13.5384 13.3757 13.1501 13.8103H13.1541C13.1146 13.8477 13.0781 13.8891 13.0517 13.9255L13.0172 13.9679C12.9604 14.0336 12.9341 14.0518 12.9219 14.0569C12.9138 14.0518 12.9006 14.0407 12.8834 14.0225C12.7313 13.8729 12.3915 13.3343 12.2577 13.0038C12.2293 12.927 12.2161 12.8219 12.2161 12.7047C12.2161 12.4359 12.279 12.1014 12.3216 11.874L12.3429 11.7548L12.3601 11.678C12.4727 11.2768 12.5264 11.0615 12.3682 10.9019C12.211 10.7493 12.0093 10.8038 11.6452 10.9049L11.5763 10.9241C11.487 10.9483 11.4252 10.9635 11.3734 10.9756C11.4394 10.6199 11.489 10.2601 11.489 9.92464C11.489 9.3001 11.3197 8.76551 10.7559 8.52196C10.6626 8.48255 10.5957 8.44313 10.5389 8.40372C11.5996 8.19959 12.6633 7.65893 13.4948 6.91515L13.6926 6.70596C13.9522 6.43412 14.2756 6.09658 14.5606 6.03797C14.7289 6.0026 14.9409 6.07334 15.1954 6.24615C15.2613 6.29264 15.3982 6.41593 15.4895 6.49576C15.6416 6.63421 15.7987 6.7767 15.9721 6.61602C15.9884 6.59884 16.1354 6.4513 15.9721 6.25221C15.67 5.8783 15.4854 5.44275 15.5493 5.34775C15.5523 5.34775 15.6416 5.26791 16.1871 5.36998L16.1648 5.36796C16.6059 5.4771 17.8167 6.0309 17.1494 5.4771C17.2904 5.44173 17.4405 5.3902 17.5906 5.35078L17.8015 5.30935C17.914 5.29318 18.0246 5.28914 18.1392 5.30834C18.4383 5.35685 18.6553 5.38817 18.8105 5.42455L18.852 5.43466C18.852 5.43466 19.0052 5.43365 19.0508 5.43365C19.0427 5.45892 19.0315 5.49125 19.0143 5.52966C18.995 5.55593 18.9808 5.58726 18.9717 5.62465C18.9311 5.92176 19.5913 6.49879 19.5994 6.50486C19.7241 6.614 20.2048 7.0829 20.7118 7.58314C21.4591 8.31378 22.3018 9.14447 22.6253 9.41126C23.0725 9.79023 23.0076 10.1409 22.9457 10.244C22.8606 10.3784 22.7074 10.5037 22.5847 10.4693L22.4448 10.4097C22.245 10.3188 21.9753 10.1924 21.7796 10.3713C21.6924 10.4501 21.6589 10.5552 21.6589 10.6714C21.6589 10.818 21.7106 10.9857 21.7715 11.1505C21.8009 11.2333 21.8171 11.2899 21.8232 11.3313C21.74 11.4759 21.4307 11.4829 21.2269 11.3698C21.1205 11.3091 20.8132 11.0443 20.5891 10.8523L20.1632 10.4976C19.7363 10.1722 19.0548 9.96809 18.6979 9.9115C18.6259 9.90038 18.5073 9.85288 18.4008 9.81145C18.3257 9.77911 18.2487 9.75082 18.1767 9.73061C17.7001 9.46584 17.5804 8.82816 17.551 8.6978C17.5186 8.56137 17.4283 8.50074 17.4121 8.68365C17.3969 8.86353 17.2945 9.40924 17.764 10.1631C17.84 10.3117 17.984 10.4936 18.1949 10.7341L18.4059 11.0029C18.7648 11.4769 19.3053 12.1934 20.437 12.8381L21.1306 13.1979C22.4205 13.8416 24.2914 14.544 25.0438 16.5793C25.3227 17.3372 25.3642 18.2517 25.1442 19.3149C24.6351 18.9551 23.9679 18.5135 23.3159 18.081C22.9356 17.8293 22.5208 17.5524 22.1406 17.2988L22.39 17.1714C22.819 16.9047 23.0451 16.6379 23.1049 16.3357C23.1921 15.8941 22.8575 15.503 22.5503 15.0139C21.8354 13.8709 20.1429 13.6132 19.0508 13.4768L18.3156 13.3616C17.1596 13.1494 15.7805 12.5966 14.95 11.8589C13.7788 10.816 13.941 8.82109 14.0586 8.22485C14.085 8.08944 14.0546 7.79637 13.9501 8.10965C13.7879 8.76551 13.2454 11.0009 14.6214 12.2267C15.5229 13.0291 17.0663 13.6344 18.2903 13.8659L18.9889 13.9679C19.9888 14.0912 21.5666 14.3712 22.1598 15.315C22.4134 15.7223 22.6669 16.0133 22.6182 16.2417C22.5888 16.3963 22.4245 16.5671 22.1304 16.7531L21.664 16.9693C21.302 16.7137 21.0292 16.5085 20.9562 16.4135C20.8963 16.3367 20.8102 16.2276 20.7077 16.1508H20.7087C19.9077 15.5192 20.2727 15.9072 20.2058 16.2872C20.1196 16.3529 19.7393 16.363 19.0559 16.1033C18.6553 15.9527 18.636 15.9315 18.4677 15.699C17.9729 15.0624 18.0682 15.3191 17.9536 15.8567C17.914 16.0487 17.8856 16.1093 17.694 16.0901C17.5104 16.0699 17.3391 15.9891 17.1809 15.8739ZM7.53934 20.6802L7.29192 21.0601C6.91976 21.6776 6.61758 22.2779 6.39854 22.7175L6.30322 22.9135C6.12577 23.2955 6.08318 23.3117 5.97873 23.2884C5.97974 23.2288 6.00915 23.1126 6.03247 23.0318C6.06594 22.8893 6.10549 22.7316 6.10549 22.575C6.10549 22.5497 6.10548 22.5275 6.10244 22.5063C6.07303 22.1071 5.64004 21.4128 5.15837 20.6731L5.09144 20.566C4.95252 20.3608 4.91702 20.0465 4.91702 19.7393C4.91702 19.5008 4.93933 19.2643 4.95657 19.0824V19.0744C5.21921 19.0956 5.53863 19.1552 6.07202 18.7924C6.07202 18.8076 6.06898 18.8268 6.06898 18.8429C6.06898 19.1875 6.1572 19.6039 6.24644 19.8677L6.27179 19.9586C6.33567 20.189 6.44012 20.5791 6.78489 20.6256C7.08201 20.665 7.36087 20.4214 7.72086 19.8131C8.18326 19.0269 8.21875 18.7015 8.21672 18.4357V18.4114L8.23194 18.3892C8.23802 18.3831 8.2654 18.3801 8.30799 18.3781C8.45097 19.0703 7.92772 20.1072 7.53934 20.6802ZM8.64161 27.3671C8.13358 26.3353 8.57772 24.7629 9.82906 23.1591C9.82906 23.1611 10.1698 22.7084 10.1698 22.7084L10.3148 22.5275C10.5724 22.2132 10.9891 21.5351 10.9891 20.952C10.9891 20.856 10.98 20.761 10.9526 20.6721C10.8766 20.4002 10.6809 20.2052 10.3898 20.1041C10.2448 20.0546 10.1789 20.0132 10.1475 19.9909C10.2032 19.9222 10.3523 19.8161 10.4294 19.7666L10.547 19.6847C10.7397 19.5402 11.0702 19.4685 11.3288 19.517L11.4586 19.5524C11.6016 19.5958 11.7973 19.6554 11.9961 19.5372C12.21 19.4149 12.35 19.133 12.4696 18.5994C12.6217 17.9193 12.5011 16.8945 11.9403 16.08C11.5195 15.4717 10.5024 14.646 9.63132 14.7936C9.30378 14.8502 8.87991 15.0401 8.6842 15.7637C8.63451 15.9416 8.59294 16.0972 8.59294 16.2872C8.59294 16.9259 8.91946 17.609 9.24193 17.8586C9.25612 17.8708 9.26829 17.8799 9.27843 17.89C9.24902 17.897 9.19122 17.9082 9.1821 17.9112C9.16384 17.9132 9.09793 17.9041 9.05433 17.9001C8.75518 17.8657 7.79285 17.6575 7.68232 18.4114C7.68232 18.4114 7.68232 18.4559 7.68232 18.464C7.68232 18.6095 7.66001 18.8571 7.25845 19.5443C7.05666 19.8838 6.93294 20.0132 6.87007 20.0647C6.83661 19.994 6.80315 19.8767 6.78895 19.8181L6.75346 19.6989C6.67639 19.4755 6.64698 19.1552 6.64698 18.8864C6.64698 18.8621 6.65003 18.8389 6.65003 18.8177C6.65205 18.7621 6.65814 18.6024 6.6916 18.5266C6.72709 18.4357 6.77374 18.3275 6.77374 18.2224C6.77374 18.1396 6.74332 18.0597 6.65814 17.992C6.4462 17.8354 6.25556 18.0375 5.78505 18.3407C5.39464 18.5953 5.26991 18.5953 5.03972 18.565C4.89573 18.5468 4.67467 18.47 4.55095 18.4266C4.45462 18.3963 4.38668 18.3932 4.33496 18.375C4.68785 18.0648 5.48894 17.1927 5.56601 16.8743C5.58224 16.8076 5.55486 16.6702 5.52951 16.6308C5.40478 16.4337 5.19994 16.1962 4.60977 15.9244C5.02451 15.795 5.64004 15.5869 5.9189 15.5505C6.77273 15.4393 7.32944 15.0816 7.92569 14.74C8.45503 14.4389 9.00261 14.1266 9.80675 13.9427C10.8005 13.7153 11.6797 14.258 12.7566 15.7708C13.1876 16.3701 13.287 17.127 13.287 17.8202C13.287 18.7803 13.0355 19.6383 12.8915 19.9232L12.8316 20.0415C12.7302 20.2325 12.6116 20.4619 12.6116 20.6973C12.6116 20.9106 12.7089 21.1288 13.004 21.3289C13.2271 21.4846 13.3407 21.5907 13.3407 21.7402C13.3407 21.8474 13.287 21.9727 13.1754 22.1546L12.8093 22.7276C12.5751 23.0894 12.354 23.436 12.2455 23.6714C12.2232 23.726 12.0671 23.9756 12.0488 23.914C12.0255 23.822 12.0001 23.728 12.0001 23.728L11.918 23.3713C11.7892 22.6063 11.6645 22.4507 11.4627 22.4193C11.3562 22.4042 11.2153 22.4446 11.1321 22.6093L10.9121 22.9873L10.694 23.339L10.4709 23.628L10.2296 23.9584C9.58366 24.8346 8.60308 26.1575 9.62625 27.4176C10.26 28.1968 11.34 27.9593 11.9038 27.7835C11.8774 28.1432 11.8511 28.4474 11.8176 28.7102C10.2468 28.695 9.07055 28.2322 8.64161 27.3671ZM9.00464 36.9372L8.54426 36.911C8.48443 36.9029 8.46213 36.8877 8.45807 36.8837C8.41041 36.816 8.48038 36.5259 8.5179 36.3693C8.55136 36.2217 8.57164 36.0368 8.58077 35.8913C8.59091 35.7609 8.60815 35.5831 8.64465 35.4193C8.72578 35.0343 8.83124 34.5361 8.83124 33.7418C8.83124 33.5356 8.82718 33.3083 8.80893 33.0566C8.7927 32.8444 8.78763 32.6716 8.78763 32.5311C8.78763 32.0764 8.84645 31.949 8.87991 31.9137C8.89512 31.8935 8.95394 31.8894 9.04419 31.8854L9.21151 31.8722L9.35956 31.8551C9.86252 31.8066 11.0449 31.6944 11.7304 30.608C12.2131 29.8319 12.3327 29.0689 12.4372 27.167C12.5376 25.3844 13.9106 23.9049 14.4632 23.5896L14.8019 23.4016C15.2481 23.1561 15.7886 22.8084 16.2419 22.5356C16.3737 22.4385 16.6262 22.3708 16.7631 22.0202C16.8432 21.7665 16.9669 21.5108 17.1008 21.2097C17.2803 20.8095 17.481 20.3517 17.6504 19.7302C17.9576 18.5903 17.7832 17.4595 17.4597 16.5459C17.5186 16.5611 17.5804 16.5742 17.6453 16.5793C17.9536 16.6136 18.1736 16.5024 18.3115 16.2619C18.4484 16.3872 18.5985 16.456 18.8896 16.5671C19.4645 16.7854 20.1835 16.9602 20.5272 16.6561C20.5455 16.6773 20.5607 16.6955 20.582 16.7207C20.7889 16.9885 21.6569 17.5686 23.0583 18.4973C24.0277 19.139 25.0296 19.802 25.4666 20.1698C25.711 20.3729 25.8043 20.4619 25.8043 20.7256C25.8043 20.7933 25.7982 20.8732 25.783 20.9692C25.7607 21.1753 25.7009 21.4644 25.636 21.7695C25.5295 22.2758 25.4666 22.8711 25.4393 23.3713C25.3936 24.1535 25.493 24.7336 25.493 25.0489L25.5153 25.3076C25.5295 25.4228 25.5366 25.5157 25.5366 25.5956C25.5366 25.7734 25.493 25.8755 25.3693 25.9473C25.1006 26.0999 24.4526 26.3212 23.979 26.4829C23.6515 26.594 23.4609 26.6617 23.3655 26.7042C23.2844 26.7426 23.1303 26.7759 23.0319 26.7123C22.9265 26.6435 22.8971 26.4596 22.895 26.3191L22.8768 25.9644C22.8453 25.4814 22.8423 25.4521 23.2053 25.3187C23.3077 25.2823 23.3524 25.2975 23.4477 25.3278C23.5724 25.3692 23.7458 25.4258 24.0155 25.3278C24.482 25.157 24.6088 24.9256 24.8177 24.5456C24.9971 24.2111 24.8988 23.8099 24.9404 23.0752L24.9698 22.5689C25.0022 22.199 25.206 21.6786 24.2285 21.3673C22.5756 20.8378 21.6112 20.5548 21.2766 20.4993C20.8264 20.4265 20.3062 20.2193 20.219 20.1284C20.1236 20.0314 19.9756 20.0314 19.8823 20.1284C19.787 20.2234 19.787 20.38 19.8823 20.476C20.1023 20.7064 20.7909 20.9197 21.2036 20.9864C21.4135 21.0227 22.0808 21.2147 24.0886 21.8383C24.1352 21.8514 24.1839 21.8696 24.2255 21.8969C24.1484 22.0606 24.0673 22.2243 23.978 22.3921C23.6312 23.058 22.7784 24.1363 22.386 24.4738C21.736 25.0307 20.946 25.5319 20.0648 25.6016C18.418 25.73 17.1667 26.5869 16.3362 28.1473C16.0228 28.7374 15.7906 29.3185 15.602 29.7874C15.4104 30.2685 15.2441 30.6828 15.0828 30.8758C14.7664 31.2538 13.9055 31.7035 13.4827 31.5165C12.9087 31.2669 12.5913 31.2507 12.2293 31.4579C12.0305 31.5711 12.1005 31.7237 11.7091 31.6913C11.5732 31.6792 11.0865 31.6529 11.0743 31.7874C11.0611 31.9248 11.4089 32.0481 11.5458 32.0582C12.3043 32.1229 12.2161 32.0319 12.4727 31.8864C12.6116 31.8076 12.7221 31.7459 13.144 31.9117C13.0912 32.2401 12.787 32.4745 12.5284 32.5766C12.1664 32.7211 11.5823 32.6564 11.197 32.612C10.7184 32.5614 10.0227 32.6959 9.95784 33.088L9.91322 33.2891C9.8686 33.4871 9.80472 33.759 9.7672 34.0611C9.71447 34.4825 9.82297 35.2971 10.0805 35.5517C10.183 35.6548 10.4791 35.9004 10.762 36.1399L11.2193 36.5259L11.2994 36.5936C11.5063 36.7674 11.7223 36.9494 11.7 37.6739C11.6827 38.3076 11.4394 38.3439 10.6738 38.3702L10.5683 38.3722C10.0724 38.3894 9.77836 38.254 9.71244 38.1782C9.56541 38.0832 9.80472 37.7699 9.8392 37.6689C9.85644 37.6123 9.87063 37.5618 9.87469 37.5153H9.8757C10.0116 36.9453 10.3868 36.9625 9.34536 36.9524L9.34941 36.9554C9.24192 36.9453 9.12734 36.9403 9.00464 36.9372ZM4.44752 43.5898C4.73449 43.033 5.89558 40.7774 5.89558 40.7774C5.89558 40.7774 4.68176 38.6754 4.35626 38.1135C4.771 38.1135 4.59659 38.1135 9.15573 38.1135C9.15269 38.1327 9.14863 38.155 9.14863 38.1762C9.14863 38.2843 9.17297 38.3894 9.22874 38.4895C9.32406 38.6572 9.49949 38.7664 9.74895 38.8088C9.98319 38.8583 10.4192 38.8715 10.5876 38.8654L10.69 38.8624C11.2791 38.8422 11.9332 38.8179 12.134 38.1135H12.5376C16.1313 38.1135 19.1238 38.1135 19.1867 38.1135C19.2191 38.1368 19.6937 38.4854 20.1652 38.831C19.4645 39.0534 18.775 39.2848 18.0996 39.5344L17.8938 39.6092L19.068 43.5898C15.8951 43.5898 5.10361 43.5898 4.44752 43.5898ZM51.3512 46.4396C46.5801 44.7762 40.9846 43.8233 35.8971 43.8233H35.8697C30.7731 43.8233 25.1858 44.7793 20.4147 46.4487L18.5052 39.9154C23.8279 37.9933 30.1221 36.8968 35.8677 36.8968H35.8971C41.6407 36.8968 47.9551 38.0003 53.2789 39.9235L51.3512 46.4396ZM61.1519 38.5895C61.2117 38.4723 61.2706 38.3045 61.3121 38.1135H61.5616C66.2779 38.1135 66.7596 38.1135 67.1804 38.1135C66.8488 38.6754 65.634 40.7774 65.634 40.7774C65.634 40.7774 66.7961 43.033 67.0851 43.5898C66.426 43.5898 55.7754 43.5898 52.7039 43.5898L53.87 39.6193L53.6642 39.5344C52.999 39.2898 52.3175 39.0594 51.628 38.8401C52.0701 38.4905 52.5153 38.1368 52.5498 38.1135C52.6106 38.1135 53.8092 38.1135 57.1008 38.1135C57.1586 38.1913 57.2276 38.2621 57.3249 38.3359C57.5095 38.4753 57.8177 38.4137 58.0317 38.3359C58.0601 38.4602 58.1108 38.5855 58.2162 38.7077C58.486 39.023 58.9707 39.2848 59.4645 38.9776C59.4645 38.9776 59.5872 38.8917 59.6765 38.829L59.6795 38.831C59.8509 39.0038 60.1592 39.0837 60.4603 39.0402C60.7676 38.9968 61.017 38.832 61.1519 38.5895ZM59.7748 31.8813L59.9056 31.9804C60.1886 32.1896 60.7686 32.6241 60.724 33.0314C60.6885 33.3406 60.6844 34.6766 60.6844 34.6907C60.6844 34.8423 60.7473 35.1627 60.8426 35.6639C60.9055 35.9762 60.9674 36.3006 60.9856 36.4572C61.0181 36.8109 60.8994 38.0165 60.7159 38.354C60.6368 38.4986 60.4766 38.54 60.3883 38.5541C60.2149 38.5794 60.074 38.5258 60.0304 38.4834L59.9635 38.4147C59.6836 37.6305 59.567 38.0499 59.3053 38.4864L59.2029 38.5602C58.921 38.7371 58.6634 38.4723 58.5925 38.3854C58.5235 38.3076 58.4971 38.2459 58.4992 38.1823C58.5012 38.157 58.4992 38.1348 58.4971 38.1135L58.5012 38.1156C58.6279 37.4092 58.5965 37.4769 58.0388 37.7871C58.0094 37.8013 57.9759 37.8184 57.9455 37.8407L57.9536 37.8366C57.8928 37.873 57.6514 37.9579 57.6027 37.9256C57.4709 37.8245 57.4233 37.7578 57.4212 37.5062C57.4212 37.1889 57.9942 36.4471 58.6046 36.0904C58.9595 35.8812 59.3652 35.4507 59.3652 34.5876C59.3652 34.5068 59.3631 34.4249 59.3591 34.336C59.3104 33.7933 58.9139 33.2668 58.5925 33.1587C58.3258 33.0688 57.624 32.9606 57.1931 32.9253C57.0237 32.9101 56.0969 32.7888 54.8334 31.8268C53.7656 31.0102 53.1551 29.4408 53.0253 28.9547C53.0061 28.885 52.999 28.793 52.999 28.6849C52.999 28.0523 53.2819 26.8841 53.4492 26.5789C53.6155 26.2727 53.7058 25.8624 53.7058 25.4672C53.7058 25.4238 53.7027 25.3803 53.7027 25.3369C54.009 25.5673 54.3203 25.8401 54.5221 26.0392C55.4185 26.9154 55.2583 26.5142 54.7959 25.8674C54.5779 25.5673 54.2351 25.1014 53.8194 24.8134C53.4452 24.5527 52.7414 24.1899 51.9809 24.0322C51.2427 23.8776 50.6565 23.6472 50.3726 23.4067C50.4335 23.3713 50.4862 23.338 50.5338 23.3087C50.5602 23.2925 50.9628 23.0307 51.3248 22.766C51.4516 22.9489 51.6564 23.1247 51.8764 23.1793C52.1888 23.2561 52.7769 23.1439 53.0284 22.7872C53.1623 22.5972 53.2555 22.3708 53.3336 22.1879C53.3336 22.1879 53.4391 21.9504 53.4452 21.9383C53.5577 21.8069 54.2807 21.2936 54.4491 21.2158C54.6782 21.1117 54.6194 21.0652 54.3953 21.0985C54.1296 21.1349 53.1876 21.3936 53.0193 21.6887L52.8753 21.9989C52.8053 22.1667 52.7262 22.3607 52.6218 22.5032C52.5082 22.6679 52.1381 22.7367 51.9961 22.7013C51.8937 22.675 51.7679 22.5538 51.7142 22.4608C51.7933 22.3921 51.8501 22.3304 51.8805 22.287C51.9474 22.1718 51.9099 22.0293 51.7953 21.9565C51.6817 21.8858 51.5296 21.9221 51.4556 22.0343L51.4607 22.0252C51.3806 22.1253 50.7873 22.5588 50.2641 22.8953C49.9031 23.1288 49.8281 23.1732 49.2703 23.442L48.9945 23.5785L48.8566 23.6351C48.6224 23.727 48.2654 23.8645 48.2097 24.4749C48.163 24.9892 47.9612 25.3672 47.8081 25.3834C47.6479 25.3965 47.4238 25.2722 47.3213 25.1479C47.3213 25.1479 47.2473 25.066 47.2199 25.0064C47.0648 24.58 46.9847 24.582 46.7271 24.9033C46.645 25.0014 46.3347 24.9023 46.2312 24.87C46.1319 24.8235 45.9899 24.7406 46.0335 24.5749C46.2018 23.7169 46.2039 23.6714 45.5681 23.8493C45.4727 23.8645 45.4078 23.8028 45.35 23.7048C45.2963 23.6128 45.3744 23.3683 45.494 22.9944L45.5062 22.959C45.5944 22.6619 45.8966 22.3941 46.1856 22.1384C46.3205 22.0091 46.5071 21.8494 46.6348 21.7231C46.9208 21.4745 47.3274 21.3673 47.8243 21.2107C48.2918 21.0662 48.9742 20.7287 49.2521 20.4508C49.4519 20.2507 50.2996 19.6342 50.8644 19.3735C51.12 19.2542 51.1048 19.1653 50.687 19.2835C50.1394 19.4907 49.1923 19.809 48.8992 20.1021C48.8779 20.1284 48.8455 20.1526 48.81 20.1819C48.3151 18.5094 48.7349 17.8708 49.0158 17.4453L49.0381 17.414C49.0533 17.412 49.0716 17.4109 49.0878 17.4099L49.2196 17.4008C49.2196 17.4008 49.46 17.3847 49.677 17.3746C49.6699 17.5747 49.7632 17.704 49.8301 17.7717C50.1059 18.0345 50.6312 17.9789 50.8401 17.893C50.8543 17.8859 52.2384 17.3028 52.5031 17.1229C52.5964 17.0623 52.7019 17.0047 52.786 16.9633C52.8246 17.2695 52.8945 17.795 52.9797 18.176C53.0821 18.6236 53.292 18.7964 53.4492 18.8631C53.6165 18.9359 53.8133 18.9187 53.9816 18.8177L54.0364 18.7924C54.229 18.6772 54.6296 18.5317 55.0291 17.7C55.0636 17.6242 55.097 17.5625 55.1234 17.5049C55.1346 17.5272 55.1366 17.5443 55.1478 17.5686C55.1609 17.6019 55.2157 17.7121 55.2268 17.7323L55.31 17.9071C55.8708 19.044 56.9112 21.1571 57.0359 23.3592L57.1292 24.2828C57.3269 25.5127 57.7204 25.8907 57.9982 26.1575C58.0682 26.2262 58.123 26.2787 58.1554 26.3293C58.2517 26.4798 58.4758 27.0488 58.5752 27.7531C58.5752 27.7622 58.5732 27.7723 58.5732 27.7814C58.5732 27.8896 58.5874 27.9997 58.6138 28.1068C58.6513 28.5939 58.6208 29.1194 58.4505 29.6045C58.3339 29.4368 58.2365 29.2892 58.1655 29.1821C57.5896 28.308 56.4194 27.5571 57.7447 29.4469C58.1605 30.037 58.9139 31.185 59.7748 31.8813ZM60.9379 22.3284C60.9876 22.1475 61.013 22.0272 61.0586 21.8635C61.1479 21.5583 61.2918 21.2471 61.7076 20.7772C61.7147 20.7711 61.7188 20.7701 61.7279 20.762C61.736 20.7994 61.7593 20.8974 61.7593 20.8974L61.8151 21.0743C61.8962 21.3522 62.0209 21.7311 62.0919 21.9211C62.3515 22.6063 62.2582 22.6902 63.0269 22.3607L63.2266 22.2769C63.249 22.2627 63.2631 22.2587 63.2773 22.2516C63.2905 22.3031 63.2986 22.384 63.3027 22.4143L63.3068 22.4507C63.324 22.6245 63.611 23.7452 63.6799 24.013C63.9284 24.968 63.6667 24.8932 64.4628 24.5749C65.0185 24.3505 65.3308 24.4112 65.3561 24.4526C65.5498 24.775 64.5936 26.3111 64.1606 26.6971C63.9669 26.8669 63.5816 27.4985 63.4386 27.831L63.4132 27.8896C63.2672 28.2281 63.0269 28.791 62.6983 29.1912C61.2564 30.9092 59.6166 30.227 58.917 29.936L58.8602 29.9138C58.994 29.5833 59.0701 29.2346 59.1015 28.89C59.4443 29.1942 59.9574 29.4024 60.6205 29.4024C61.9195 29.4024 62.892 28.1109 62.892 26.9588C62.892 25.7977 61.9358 25.1802 61.0464 25.0984C60.5597 25.0539 60.1612 25.1964 59.9259 25.3177C59.9219 25.2762 59.9188 25.1913 59.9188 25.0802C59.9188 24.7235 59.9817 24.104 60.4208 23.9271C60.4837 23.9019 60.6013 23.8564 60.6621 23.8412C61.4064 23.6472 61.3811 23.6411 60.8801 23.2804C60.8507 23.2601 60.8305 23.2531 60.8051 23.2308C60.797 23.2228 60.7909 23.2177 60.7848 23.2116C60.7676 23.1914 60.7595 23.152 60.7595 23.1045C60.7595 22.9024 60.8801 22.5002 60.9379 22.3284ZM66.7707 19.4715C66.3824 20.3153 66.2019 21.0197 66.1846 21.5745C66.1806 21.8635 66.4381 22.2536 66.6622 22.3405C66.7109 22.3668 66.7048 22.4092 66.6572 22.4406C66.6196 22.4588 66.4827 22.5376 66.4827 22.5376C66.3225 22.6316 65.9919 22.7528 65.7709 22.769C65.5884 22.7872 65.4322 22.7316 65.2912 22.6023C64.8917 22.2415 64.6788 21.3855 64.623 20.6195C64.9657 20.9581 65.1817 21.0652 65.3855 21.0035C65.6228 20.9348 65.6654 20.6862 65.7009 20.5053L65.7405 20.3315C65.8855 19.9889 66.1146 18.9854 66.1917 18.3821C66.21 18.2154 66.2515 17.9223 66.2992 17.8273C66.3093 17.8303 66.3185 17.8324 66.3347 17.8404L66.3641 17.8536C66.4118 17.8738 66.4716 17.9001 66.5395 17.9223C66.6511 18.1416 66.8437 18.6439 66.8437 19.0774C66.8437 19.2209 66.8214 19.3583 66.7707 19.4715ZM67.4948 17.0835C67.5272 17.1199 67.5627 17.1745 67.5627 17.223C67.5627 17.2321 67.5607 17.2381 67.5566 17.2472C67.5384 17.3059 67.4562 17.3918 67.2696 17.4574C66.9482 17.5686 66.7261 17.4716 66.5608 17.4019L66.5304 17.3847C66.505 17.3766 66.4827 17.3685 66.4594 17.3614C65.5468 17.0148 65.8834 17.0977 65.7526 17.9557C65.7344 18.0678 65.7192 18.1901 65.7029 18.3215C65.6259 18.9167 65.3977 19.8677 65.2831 20.1415L65.2121 20.4204C65.2081 20.4356 65.2051 20.4548 65.201 20.473C65.132 20.4235 65.0256 20.3275 64.8491 20.1435L64.6747 19.9626C63.8726 19.1279 63.1242 18.2598 63.1242 17.4554C63.1242 17.1492 63.2327 16.8491 63.4923 16.5631C63.6728 16.4256 63.7702 16.2771 63.7702 16.1194C63.7702 16.1073 63.7702 16.0972 63.7681 16.0871C63.7428 15.8041 63.4589 15.6637 63.249 15.5636L63.1496 15.5131C62.9721 15.4131 61.7472 14.9765 60.7118 15.4747C59.9908 15.8223 59.5345 16.5287 59.3631 17.5737L59.3611 17.5918C59.2617 18.3093 59.0559 19.7868 60.7493 21.2572C60.6601 21.427 60.5993 21.5998 60.5688 21.7857C60.5556 21.8807 60.508 22.0272 60.4603 22.1849C60.4106 22.3577 60.3539 22.5396 60.3173 22.7114C59.8205 21.9595 59.1411 20.8135 58.9291 20.4265C58.3258 19.3088 58.0682 17.4938 58.7476 16.1831C59.0843 15.5343 59.6106 15.0533 60.3173 14.7481C60.7088 14.6006 61.4064 14.2933 62.457 14.643C62.8231 14.7926 63.2439 14.9644 63.5897 15.0058C63.9892 15.0533 64.4273 14.9391 64.8096 14.8401C65.059 14.7754 65.3186 14.7077 65.4586 14.7259C65.6654 14.7511 66.0497 14.9057 66.356 15.029C66.5994 15.1291 66.793 15.2059 66.9228 15.2311C67.0019 15.2483 67.0973 15.2453 67.2068 15.2413C67.3153 15.2362 67.5566 15.2271 67.6235 15.2716C67.6235 15.2726 67.6235 15.2716 67.6235 15.2726C67.6235 15.3019 67.6093 15.4029 67.4755 15.6253L67.4694 15.6303L67.4674 15.6374C67.3325 15.89 67.2615 16.1528 67.2615 16.3994C67.2615 16.6601 67.3406 16.8996 67.4948 17.0835Z" fill="#8F753E"/>
<path d="M35.8641 34.0103C35.8672 34.0103 35.8672 34.0103 35.8692 34.0103C35.8692 34.0103 35.8692 34.0103 35.8722 34.0103C40.5875 34.0062 44.4287 29.4081 44.4287 23.76C44.4287 18.1099 40.5875 13.5118 35.8722 13.5068C35.8692 13.5068 35.8692 13.5068 35.8692 13.5068C35.8672 13.5068 35.8672 13.5068 35.8641 13.5068C31.1468 13.5118 27.3076 18.1099 27.3076 23.76C27.3076 29.4081 31.1468 34.0062 35.8641 34.0103Z" fill="black"/>
<path d="M35.8702 13.9541C40.3431 13.9592 43.9795 18.3562 43.9795 23.7597C43.9795 29.1602 40.3431 33.5582 35.8671 33.5623C31.3932 33.5582 27.7578 29.1602 27.7578 23.7597C27.7578 18.3562 31.3932 13.9592 35.8671 13.9541H35.8702Z" fill="#FF0000"/>
<path d="M34.1573 28.8679C34.062 29.0114 34.0174 29.0831 34.058 29.1215C34.0853 29.1468 34.134 29.1539 34.4108 28.9447C35.5679 28.1676 36.0333 26.6567 36.4095 25.441L36.6032 24.8286C36.6032 24.8286 36.6154 24.7993 36.6204 24.7862C36.6296 24.7993 36.6468 24.8337 36.6762 24.9236C36.7006 24.9994 36.8547 25.5967 37.0332 26.2879C37.2877 27.2762 37.6041 28.5041 37.6609 28.684C37.7207 28.8699 37.7308 28.8982 37.7704 28.8982C37.8059 28.8962 37.8109 28.8628 37.8282 28.7891L37.8535 28.6829C37.8748 28.6142 37.9549 28.2433 38.0675 27.7259C38.3088 26.6214 38.6708 24.9499 38.8017 24.5255C38.8017 24.5255 38.8088 24.5083 38.8118 24.5042C38.8179 24.5083 38.8422 24.5356 38.8574 24.6518C38.8757 24.9125 39.6829 28.2211 41.2577 29.265C41.2536 29.263 41.2678 29.2782 41.2678 29.2782C41.3327 29.3428 41.3905 29.4035 41.4372 29.3752C41.4666 29.356 41.4747 29.3085 41.4199 29.1367C39.9881 24.6841 40.1625 18.8572 40.339 17.6061L40.3501 17.5363C40.3765 17.4211 40.3886 17.3494 40.341 17.3292C40.3004 17.31 40.2497 17.3423 40.0966 17.5596C39.6535 18.1861 38.5005 21.136 38.1152 22.5164C38.105 22.5417 38.0888 22.5882 38.0766 22.6084C38.0685 22.5993 38.0573 22.5821 38.0432 22.5164C38.033 22.4821 36.946 18.8188 36.1915 17.7122L36.1601 17.6556C36.083 17.5262 36.0455 17.4747 36.0049 17.4909C35.9694 17.504 35.9674 17.5485 35.9938 17.6829C36.4673 20.1285 35.7555 25.6623 34.1573 28.8679Z" fill="white"/>
<path d="M30.9327 17.9608L30.954 17.9538C31.1842 17.88 31.4225 17.7991 31.531 17.5839C31.7399 16.9604 32.3432 16.7289 32.6758 16.7289C33.1575 16.7289 34.9595 17.3777 34.9595 20.5519C34.9595 22.5882 34.0803 24.0142 32.4801 24.575L32.4284 24.5922C32.2104 24.6761 32.1911 24.8651 32.1749 25.0338L32.1688 25.0813C31.8281 28.0706 30.6538 29.0327 30.301 29.255C30.2046 29.3186 30.1367 29.3308 30.0951 29.2944C30.0697 29.2752 30.0586 29.2429 30.0586 29.2085C30.0586 29.1509 30.085 29.0852 30.0961 29.0589C30.5169 27.8281 30.666 24.0798 30.666 21.3857C30.666 20.2215 30.6366 19.2513 30.594 18.7683C30.5849 18.6601 30.5788 18.5662 30.5788 18.4894C30.5788 18.1154 30.6954 18.0528 30.9327 17.9608ZM32.184 24.0617C32.329 24.1546 32.5531 24.0526 32.7874 23.9272C33.2822 23.6706 33.3806 23.231 33.5479 20.5843C33.6879 18.4247 33.1717 17.6314 32.9476 17.3919C32.8087 17.2443 32.6566 17.1635 32.5197 17.1635H32.5177L32.5156 17.1655C32.1455 17.1918 32.1151 17.6021 32.1151 17.9841C32.1151 18.4499 32.0674 22.3811 32.0228 23.2956C31.9974 23.7403 32.0502 23.9758 32.184 24.0617Z" fill="white"/>
<path d="M49.4079 42.5664L49.8368 42.6927L49.345 44.3591L50.36 44.6552L50.2536 45.019L48.8096 44.5966L49.4079 42.5664Z" fill="black"/>
<path d="M22.3309 44.7574L21.9061 44.8848L21.3037 42.8545L21.7266 42.7302L22.3309 44.7574Z" fill="black"/>
<path d="M22.6348 42.4693L23.084 42.3551L24.2481 43.5729L23.8851 42.153L24.2866 42.0499L24.8089 44.1014L24.3809 44.2105L23.1915 42.9706L23.5575 44.4187L23.158 44.5198L22.6348 42.4693Z" fill="black"/>
<path d="M47.4196 42.0613L47.9094 42.1795L48.1427 44.4109L47.6752 44.2977L47.6417 43.844L46.8792 43.6641L46.6388 44.0491L46.1855 43.94L47.4196 42.0613ZM47.087 43.3346L47.6143 43.4599L47.5484 42.5878L47.087 43.3346Z" fill="black"/>
<path d="M26.7575 41.5388L26.8295 41.8986L26.2049 42.0219L26.5497 43.7368L26.1156 43.8237L25.7688 42.1108L25.1442 42.2351L25.0742 41.8723L26.7575 41.5388Z" fill="black"/>
<path d="M44.2067 41.4096L44.659 41.4925L45.2056 43.0871L45.4763 41.644L45.8809 41.7188L45.4936 43.7986L45.0606 43.7187L44.4957 42.0978L44.2219 43.5651L43.8184 43.4904L44.2067 41.4096Z" fill="black"/>
<path d="M29.149 41.5451L28.0589 41.7078L28.1238 42.1474L29.1247 41.9969L29.1784 42.3607L28.1776 42.5112L28.2617 43.0499L29.4046 42.8811L29.4614 43.255L27.8886 43.4905L27.5742 41.3986L29.0912 41.1712L29.149 41.5451Z" fill="black"/>
<path d="M42.7702 43.1354C42.5897 43.2769 42.3484 43.3294 42.0492 43.292C41.7491 43.2547 41.529 43.1435 41.3921 42.9596C41.2035 42.7322 41.1366 42.43 41.1832 42.0561C41.2329 41.6711 41.38 41.3972 41.6162 41.2325C41.7937 41.09 42.034 41.0364 42.3342 41.0759C42.6354 41.1133 42.8554 41.2244 42.9913 41.4083C43.1769 41.6266 43.2489 41.9298 43.1982 42.3118C43.1475 42.6897 43.0075 42.9636 42.7702 43.1354ZM42.535 42.7787C42.6536 42.6655 42.7286 42.4917 42.754 42.2562C42.7885 42.0218 42.7601 41.8358 42.6739 41.6953C42.5867 41.5569 42.4609 41.474 42.2875 41.4508C42.1152 41.4306 41.9701 41.475 41.8505 41.5892C41.7308 41.7014 41.6558 41.8752 41.6254 42.1107C41.596 42.3451 41.6223 42.5331 41.7105 42.6726C41.7957 42.813 41.9265 42.8939 42.0989 42.9171C42.2713 42.9373 42.4163 42.8919 42.535 42.7787Z" fill="black"/>
<path d="M31.3788 40.9761C31.461 41.0014 31.533 41.0449 31.5928 41.1045C31.6425 41.153 31.681 41.2086 31.7175 41.2722C31.749 41.3308 31.7672 41.4056 31.7763 41.4885C31.7865 41.5875 31.7692 41.6896 31.7307 41.7896C31.6891 41.8927 31.6121 41.9695 31.4975 42.0211C31.6029 42.0484 31.6729 42.0979 31.7236 42.1676C31.7692 42.2353 31.7997 42.3434 31.8139 42.492L31.8321 42.6315C31.8402 42.7264 31.8504 42.7921 31.8595 42.8255C31.8778 42.878 31.9092 42.9144 31.9528 42.9366L31.9568 42.9902L31.4721 43.0367C31.4529 42.9912 31.4417 42.9538 31.4336 42.9286C31.4184 42.8689 31.4042 42.8093 31.3961 42.7497L31.3748 42.5526C31.3596 42.4192 31.3261 42.3313 31.2795 42.2939C31.2288 42.2515 31.1426 42.2393 31.0199 42.2505L30.5899 42.2939L30.6731 43.1165L30.2401 43.158L30.0332 41.055L31.0391 40.9539C31.1862 40.9418 31.2967 40.9488 31.3788 40.9761ZM30.5017 41.3773L30.5544 41.9433L31.032 41.8947C31.1253 41.8877 31.1943 41.8695 31.2369 41.8412C31.319 41.7937 31.3504 41.7078 31.3393 41.5896C31.3261 41.4632 31.2795 41.3824 31.1943 41.348C31.1436 41.3268 31.0767 41.3197 30.9884 41.3298L30.5017 41.3773Z" fill="black"/>
<path d="M40.283 43.0444L39.8389 43.005L40.0214 40.897L40.4655 40.9364L40.283 43.0444Z" fill="black"/>
<path d="M32.6641 40.8191L33.1275 40.7999L34.0219 42.2248L33.9549 40.7615L34.3677 40.7423L34.465 42.8543L34.0219 42.8746L33.1052 41.4234L33.1721 42.914L32.7614 42.9312L32.6641 40.8191Z" fill="black"/>
<path d="M39.2946 40.8377L39.2753 41.2046L38.6395 41.1712L38.5503 42.9175L38.1051 42.8942L38.1953 41.15L37.5605 41.1166L37.5798 40.7508L39.2946 40.8377Z" fill="black"/>
<path d="M35.923 40.7281L36.43 40.7321L37.1652 42.8513L36.6866 42.8463L36.5497 42.4148L35.7668 42.4087L35.6228 42.8412L35.1533 42.8392L35.923 40.7281ZM35.8926 42.0419L36.433 42.0439L36.1724 41.2122L35.8926 42.0419Z" fill="black"/>
<path d="M22.2628 40.9519C22.1736 41.0863 22.0204 41.1853 21.7994 41.25L21.3796 41.3723L21.5925 42.0979L21.1656 42.2222L20.5693 40.1929L21.4394 39.9373C21.6422 39.8807 21.8166 39.8877 21.9667 39.9555C22.1178 40.0262 22.2243 40.1717 22.2902 40.39C22.3601 40.6325 22.351 40.8175 22.2628 40.9519ZM21.7172 40.3162C21.6503 40.2849 21.5692 40.2839 21.4759 40.3112L21.0997 40.4223L21.2741 41.0196L21.6503 40.9084C21.7477 40.8811 21.8146 40.8357 21.8491 40.772C21.8896 40.7073 21.8937 40.6224 21.8643 40.5173C21.8328 40.4102 21.7831 40.3445 21.7172 40.3162Z" fill="black"/>
<path d="M48.5012 41.6499L48.0732 41.5387L48.6026 39.4913L49.0356 39.6025L48.5012 41.6499Z" fill="black"/>
<path d="M23.7278 41.5056L23.2461 39.4461L23.6781 39.344L23.8626 40.1292L24.6566 39.9483L24.47 39.1621L24.9061 39.06L25.3878 41.1196L24.9548 41.2206L24.7388 40.3051L23.9448 40.489L24.1618 41.4056L23.7278 41.5056Z" fill="black"/>
<path d="M47.0772 39.1844C47.1451 39.2319 47.204 39.2966 47.2445 39.3694C47.277 39.431 47.3003 39.4957 47.3125 39.5664C47.3216 39.6341 47.3206 39.7109 47.3043 39.7908C47.28 39.8888 47.2374 39.9807 47.1654 40.0656C47.0985 40.1485 47.0011 40.2011 46.8784 40.2162C46.9636 40.2738 47.0235 40.3446 47.0468 40.4254C47.0701 40.5012 47.0671 40.6144 47.0366 40.7579L47.0072 40.8973C46.988 40.9913 46.9799 41.057 46.9799 41.0904C46.9799 41.148 46.9951 41.1924 47.0326 41.2248L47.0235 41.2783L46.5448 41.1773C46.5408 41.1288 46.5398 41.0904 46.5408 41.061C46.5408 41.0014 46.5479 40.9378 46.557 40.8771L46.5976 40.6871C46.6229 40.5548 46.6189 40.4618 46.5874 40.4082C46.5519 40.3557 46.4708 40.3173 46.3501 40.29L45.9293 40.2011L45.7569 41.0105L45.332 40.9196L45.7711 38.854L46.7608 39.0601C46.9038 39.0935 47.0093 39.1349 47.0772 39.1844ZM46.1199 39.3016L46.0003 39.8585L46.4688 39.9555C46.557 39.9757 46.6331 39.9787 46.6827 39.9676C46.771 39.9434 46.8308 39.8746 46.8531 39.7584C46.8805 39.6341 46.8572 39.5422 46.7892 39.4815C46.7497 39.4482 46.6868 39.4209 46.5976 39.4027L46.1199 39.3016Z" fill="black"/>
<path d="M26.9329 40.8214L26.4948 40.9043L26.1074 38.8235L26.5435 38.7417L26.9329 40.8214Z" fill="black"/>
<path d="M44.1653 38.6263C44.2352 38.6697 44.292 38.7304 44.3376 38.8031C44.3731 38.8627 44.3995 38.9254 44.4147 38.9951C44.433 39.0618 44.435 39.1376 44.4188 39.2195C44.4066 39.3195 44.365 39.4135 44.3021 39.5035C44.2383 39.5914 44.1419 39.647 44.0213 39.6692C44.1115 39.7217 44.1713 39.7884 44.1997 39.8642C44.2291 39.941 44.2352 40.0552 44.2129 40.2007L44.1896 40.3412C44.1754 40.4352 44.1693 40.5039 44.1734 40.5363C44.1754 40.5928 44.1957 40.6363 44.2352 40.6686L44.222 40.7212L43.7434 40.6464C43.7373 40.6009 43.7353 40.5605 43.7312 40.5312C43.7292 40.4716 43.7312 40.4099 43.7434 40.3503L43.7688 40.1522C43.785 40.0209 43.7779 39.9299 43.7394 39.8764C43.6998 39.8268 43.6217 39.7915 43.5021 39.7733L43.0741 39.7106L42.9494 40.5262L42.5215 40.4645L42.8389 38.3706L43.8408 38.5222C43.9817 38.5454 44.0922 38.5828 44.1653 38.6263ZM43.212 38.7991L43.1259 39.362L43.5994 39.4307C43.6886 39.4479 43.7617 39.4458 43.8113 39.4287C43.8996 39.4044 43.9553 39.3306 43.9716 39.2144C43.9929 39.0881 43.9655 38.9972 43.8904 38.9396C43.8489 38.9082 43.7819 38.885 43.6927 38.8718L43.212 38.7991Z" fill="black"/>
<path d="M27.7617 38.5353L28.2038 38.4706L28.4533 40.1886L29.4988 40.038L29.5545 40.4149L28.0629 40.6282L27.7617 38.5353Z" fill="black"/>
<path d="M30.997 40.2585L30.5549 40.304L30.3389 38.1989L30.783 38.1555L30.997 40.2585Z" fill="black"/>
<path d="M41.1571 40.109C40.9837 40.2555 40.7434 40.3171 40.4432 40.2898C40.1421 40.2626 39.919 40.1585 39.776 39.9806C39.5823 39.7623 39.5012 39.4622 39.5316 39.0842C39.5722 38.7012 39.705 38.4193 39.9342 38.2475C40.1096 38.0999 40.3489 38.0373 40.646 38.0656C40.9482 38.0919 41.1723 38.1949 41.3173 38.3738C41.5131 38.586 41.5921 38.8852 41.5567 39.2692C41.5232 39.6471 41.3883 39.9281 41.1571 40.109ZM40.9107 39.7603C41.0223 39.6411 41.0902 39.4642 41.1125 39.2308C41.1348 38.9953 41.1014 38.8094 41.0121 38.6699C40.9209 38.5355 40.788 38.4587 40.6156 38.4415C40.4432 38.4284 40.2962 38.4779 40.1816 38.5961C40.067 38.7154 39.9981 38.8902 39.9747 39.1257C39.9565 39.3601 39.9879 39.5471 40.0833 39.6845C40.1735 39.8209 40.3063 39.8957 40.4818 39.9119C40.6531 39.9281 40.7982 39.8765 40.9107 39.7603Z" fill="black"/>
<path d="M33.5146 39.1639C33.399 39.2741 33.2246 39.3357 32.9944 39.3468L32.5594 39.3731L32.602 40.129L32.1609 40.1553L32.0361 38.0442L32.9437 37.9906C33.1516 37.9795 33.3199 38.025 33.4507 38.125C33.5856 38.2281 33.6566 38.3928 33.6687 38.6212C33.6819 38.8718 33.6312 39.0497 33.5146 39.1639ZM33.1272 38.4171C33.0705 38.3736 32.9914 38.3544 32.892 38.3615L32.5006 38.3837L32.5371 39.0042L32.9295 38.983C33.0289 38.978 33.1039 38.9476 33.1556 38.8931C33.2084 38.8405 33.2307 38.7577 33.2226 38.6495C33.2165 38.5384 33.1871 38.4605 33.1272 38.4171Z" fill="black"/>
<path d="M37.8171 37.9462L38.4529 37.9634L38.391 40.0806L37.9783 40.0674L38.0239 38.6365C38.0239 38.596 38.025 38.5384 38.027 38.4637C38.029 38.3899 38.0351 38.3323 38.0351 38.2929L37.5818 40.0563L37.1519 40.0432L36.8061 38.2555C36.8061 38.2969 36.8061 38.3525 36.8051 38.4283C36.803 38.501 36.803 38.5607 36.8 38.6021L36.7574 40.028L36.3457 40.0179L36.4096 37.9048L37.0535 37.924L37.3851 39.5965L37.8171 37.9462Z" fill="black"/>
<path d="M50.1099 41.4132C50.0906 41.5103 50.0977 41.5871 50.12 41.6447C50.1646 41.7467 50.2701 41.8266 50.4364 41.8751C50.5368 41.9054 50.622 41.9195 50.6909 41.9175C50.8217 41.9115 50.9059 41.8508 50.9394 41.7386C50.9586 41.6709 50.9475 41.6093 50.8998 41.5567C50.8512 41.5022 50.771 41.4415 50.6524 41.3769L50.4496 41.2637C50.2539 41.1515 50.1231 41.0565 50.0572 40.9757C49.9466 40.8392 49.9233 40.6715 49.9831 40.4744C50.0399 40.2915 50.1535 40.1611 50.3228 40.0823C50.4902 40.0015 50.7031 40.0015 50.9607 40.0803C51.1767 40.145 51.347 40.2582 51.4636 40.4158C51.5823 40.5755 51.6107 40.7634 51.5508 40.9817L51.1412 40.8584C51.1716 40.7331 51.1473 40.6321 51.058 40.5482C51.0022 40.4946 50.9232 40.4542 50.8278 40.4249C50.7153 40.3885 50.62 40.3855 50.5429 40.4077C50.4618 40.433 50.41 40.4835 50.3867 40.5623C50.3644 40.6331 50.3806 40.6988 50.4334 40.7533C50.4709 40.7877 50.549 40.8453 50.6778 40.9181L51.0002 41.1091C51.1473 41.1929 51.2466 41.2778 51.3034 41.3617C51.3967 41.4941 51.417 41.6497 51.3582 41.8306C51.3034 42.0166 51.1868 42.1499 51.0022 42.2288C50.8278 42.3056 50.6068 42.3056 50.3441 42.2288C50.0795 42.1469 49.8878 42.0216 49.7732 41.8569C49.6556 41.6891 49.6323 41.5002 49.6951 41.2889L50.1099 41.4132Z" fill="#162026"/>
<path d="M18.1702 7.38085C18.2879 7.42632 18.4379 7.57892 18.7888 7.71838C19.1407 7.86087 19.1863 7.71231 19.2887 7.36973C19.3942 7.03018 19.1863 7.03018 19.0555 7.03018C18.9237 7.03018 18.5708 7.04938 18.3254 7.07768C17.8123 7.13427 18.0597 7.33436 18.1702 7.38085Z" fill="black"/>
<path d="M51.3578 5.53328C51.5515 5.47062 52.165 5.48073 52.4459 5.72933C52.5533 5.81826 52.7034 5.89607 52.7561 5.93548C52.8109 5.97287 52.8494 6.07797 52.6416 6.1285C52.4347 6.18105 52.3171 6.21743 52.1609 6.28413C52.0068 6.34881 51.7208 6.33567 51.5667 6.23057C51.4105 6.1285 51.1367 5.88394 51.1367 5.75358C51.1367 5.62524 51.2939 5.53328 51.3578 5.53328Z" fill="black"/>
<path d="M35.8079 2.51333C36.032 2.51333 36.2145 2.69624 36.2145 2.9216C36.2145 3.14595 36.032 3.33088 35.8079 3.33088C35.5797 3.33088 35.3962 3.14595 35.3962 2.9216C35.3962 2.69624 35.5797 2.51333 35.8079 2.51333ZM36.7094 2.9216C36.7094 2.42642 36.3027 2.0232 35.8079 2.0232C35.3069 2.0232 34.9023 2.42642 34.9023 2.9216C34.9023 3.41779 35.3069 3.82202 35.8079 3.82202C36.3027 3.82202 36.7094 3.41779 36.7094 2.9216Z" fill="black"/>
</svg>
