<svg width="114" height="27" viewBox="0 0 114 27" fill="none" xmlns="http://www.w3.org/2000/svg">
<path opacity="0.35" d="M0.94043 25.1779H14.8149C14.8812 25.2454 14.9475 25.3128 15.0141 25.3128L15.0804 25.3804L15.1469 25.4479C15.2135 25.5155 15.2798 25.5155 15.3462 25.5829C15.4125 25.6504 15.4788 25.718 15.6117 25.7856V26.2581H0.94043V25.1779ZM31.3447 25.6505L32.3405 26.4607H113.33V25.1785H31.3447V25.6517V25.6505ZM37.4521 3.10513C39.4437 5.13019 40.5057 7.8981 40.5057 11.138C40.5057 14.3104 39.3773 17.1457 37.3858 19.1708C35.3942 21.1958 32.606 22.3432 29.4858 22.3432C25.9674 22.3432 22.8474 20.9261 20.7894 18.3605C19.2626 16.4029 18.3995 13.9059 18.3995 11.2054C18.3995 7.62841 19.7936 4.45598 22.25 2.43092C24.2414 0.810265 26.6977 0 29.4855 0C32.6722 0 35.4603 1.07995 37.4518 3.10501L37.4521 3.10513ZM29.4855 20.0479C32.6059 20.0479 35.0621 18.1579 36.1242 14.8504C36.5222 13.7027 36.7215 12.4202 36.7215 11.1377C36.7215 8.84176 36.124 6.68186 34.9955 5.06253C33.6679 3.17231 31.809 2.22721 29.4855 2.22721C27.6268 2.22721 26.0336 2.90142 24.7722 4.18484C23.1793 5.80417 22.1835 8.43723 22.2498 11.2051C22.2498 13.0267 22.6482 14.7821 23.4449 16.1992C24.6398 18.6964 26.897 20.047 29.4859 20.047L29.4855 20.0479ZM50.3971 9.58472C50.1979 9.5173 49.9325 9.38246 49.6004 9.24761C47.9408 8.64046 45.4184 7.69571 45.4847 5.26492C45.551 3.51039 46.9451 2.22733 48.7375 2.22733C50.4635 2.22733 51.7249 3.17243 52.1895 4.65812V4.72554L52.6541 4.92781L54.0482 1.8228L53.9819 1.75537C52.7867 0.607638 51.1935 0.0674217 49.3347 0.0674217C45.8162 0.0674217 43.028 2.02482 42.4305 4.99487C42.0322 6.95251 42.5632 8.84248 43.8245 10.0575C44.754 11.0024 46.0825 11.5424 47.2772 12.0826H47.3435C48.6057 12.6224 50.3972 13.2974 51.3267 14.4451C51.8583 15.12 52.0572 15.9976 51.9246 17.0101C51.6594 18.7652 50.3318 19.9803 48.5394 20.0477C45.8841 20.1826 43.5605 18.5625 43.1623 16.5376V16.4702L42.6312 16.2674L41.6355 19.71L41.7018 19.7774C43.0299 21.3302 45.2871 22.2078 47.876 22.2078H48.1412C52.1907 22.0727 55.178 19.1702 55.178 15.3226C55.2444 12.9601 53.585 11.0027 50.3985 9.58508L50.3971 9.58472ZM109.414 0.404892L110.211 1.68759V14.0402L98.2609 0.472554L98.1943 0.405132H94.2777L95.3398 2.0926V20.7239L94.5431 22.0071H98.7252L98.1279 20.7919V5.73771L112.799 22.1405L112.998 22.4104V1.75417L113.596 0.404169H109.413L109.414 0.404892ZM83.1254 19.7104V12.015H89.8303L90.6271 9.71993L90.2287 9.85477H83.0593V2.5648H88.8351L90.8266 3.23998L91.8224 0.405855H78.8771L79.4745 2.02638V20.5216L78.8768 22.0067H91.5559L92.5517 19.1043L90.0289 19.7791H83.1247V19.7117L83.1254 19.7104ZM76.6854 0.404892H71.773L72.5696 1.68747V9.92255H61.2844V1.62005L61.8818 0.404892H56.9694L57.766 1.68747V20.7226L56.9694 22.0051H61.8818L61.2843 20.7901V12.0155H72.5695V20.6556L71.7726 21.9383H76.6853L76.0873 20.7233V1.62005L76.6841 0.405253L76.6854 0.404892ZM27.8928 25.5829H27.3617C23.7105 25.5829 19.8603 23.0178 15.9434 18.0228C14.416 16.0652 12.6897 13.8376 11.1634 12.015C14.2171 11.4752 16.3413 9.04511 16.3413 6.1426C16.3413 2.49749 13.4865 0.202506 8.90543 0.202506L1.86991 0.405012L2.53369 2.02506V20.7228L1.80337 22.0053H6.716L6.11841 20.7902V2.29499C10.6332 1.95752 12.7574 3.17267 12.9563 6.14284C13.0226 7.35764 12.6911 8.43783 11.8942 9.31528C10.8984 10.4627 9.23838 11.1378 7.11419 11.2053H7.04789L6.84897 11.7452L9.5711 15.188L10.1027 15.8622C14.8828 22.0722 18.667 27 24.4426 27C25.6376 27 26.8989 26.7974 28.2265 26.3925L28.3592 26.3251L27.9613 25.5822H27.895L27.8928 25.5829Z" fill="#121045"/>
</svg>
